SplineFontDB: 3.0
FontName: Radley-Italic
FullName: Radley Italic
FamilyName: Radley
Weight: Normal
Copyright: Copyright (c) 2010 by vernon adams. All rights reserved.
Version: 001.001
ItalicAngle: -12.9
UnderlinePosition: -205
UnderlineWidth: 102
Ascent: 1800
Descent: 248
sfntRevision: 0x00010000
LayerCount: 2
Layer: 0 0 "Back"  1
Layer: 1 0 "Fore"  0
NeedsXUIDChange: 1
XUID: [1021 14 500265001 9654576]
FSType: 0
OS2Version: 3
OS2_WeightWidthSlopeOnly: 0
OS2_UseTypoMetrics: 1
CreationTime: 1314687954
ModificationTime: 1314784804
PfmFamily: 17
TTFWeight: 400
TTFWidth: 5
LineGap: 0
VLineGap: 0
Panose: 2 0 5 3 0 0 0 2 0 3
OS2TypoAscent: 0
OS2TypoAOffset: 1
OS2TypoDescent: 0
OS2TypoDOffset: 1
OS2TypoLinegap: 0
OS2WinAscent: -79
OS2WinAOffset: 1
OS2WinDescent: -329
OS2WinDOffset: 1
HheadAscent: -79
HheadAOffset: 1
HheadDescent: 329
HheadDOffset: 1
OS2SubXSize: 1331
OS2SubYSize: 1228
OS2SubXOff: -35
OS2SubYOff: 153
OS2SupXSize: 1331
OS2SupYSize: 1228
OS2SupXOff: 164
OS2SupYOff: 716
OS2StrikeYSize: 102
OS2StrikeYPos: 555
OS2Vendor: 'newt'
OS2CodePages: 20000081.00000000
OS2UnicodeRanges: 00000003.00000000.00000000.00000000
DEI: 91125
LangName: 1033 "Copyright (c) 2011 by vernon adams. All rights reserved." "" "" "1.000;newt;Radley-Italic" "Radley-Italic" "Version 1.000;PS 001.001;hotconv 1.0.56" "" "Radley Italic is a trademark of vernon adams." "vernon adams" "vernon adams" "Copyright (c) 2010 by vernon adams. All rights reserved." "" "http://www.newtypography.co.uk" "" "http://scripts.sil.org/OFL" 
Encoding: UnicodeBmp
Compacted: 1
UnicodeInterp: none
NameList: Adobe Glyph List
DisplaySize: -48
AntiAlias: 1
FitToEm: 1
WidthSeparation: 387
WinInfo: 0 27 13
BeginPrivate: 4
BlueValues 25 [-26 0 899 926 1312 1327]
OtherBlues 11 [-378 -378]
BlueScale 9 0.0366667
BlueShift 1 6
EndPrivate
BeginChars: 65539 279

StartChar: exclam
Encoding: 33 33 2
Width: 541
Flags: HW
LayerCount: 2
Fore
SplineSet
228.582714039 433 m 1
 200.1858999 433 l 1
 278.852057083 1081.75299998 l 1
 286.283428586 1132.84367906 337.596370675 1236 432 1236 c 0
 493.58394584 1236 509 1202.33636765 509 1159 c 0
 509 1135.36377537 504.291818658 1111.07910604 497.168018713 1090.19774184 c 1
 228.582714039 433 l 1
289 149 m 0
 289 62.8332702814 196.568990427 0 116 0 c 0
 62.0962657587 0 19 26.7623128163 19 100 c 0
 19 189.701341819 109.897272994 252 188 252 c 0
 243.864040464 252 289 223.155611122 289 149 c 0
EndSplineSet
EndChar

StartChar: quotedbl
Encoding: 34 34 3
Width: 700
Flags: HW
LayerCount: 2
Fore
SplineSet
469.767626832 780.713780876 m 1
 465.819719168 815.376750718 464 868.996119557 464 926 c 0
 464 1035.94925297 470.441331186 1163.22454593 477.607300296 1196.36715306 c 0
 490.054464647 1253.26847581 529.717864065 1285 585 1285 c 0
 631.64871747 1285 652 1264.59273495 652 1230 c 0
 652 1222.33212793 650.372809383 1214.58206503 648.2586795 1202.95435068 c 0
 643.487611394 1175.91829807 529.751250847 849.450987667 469.767626832 780.713780876 c 1
153.626254267 781.442454225 m 1
 149.762241301 815.981482855 148 869.131810641 148 927 c 0
 148 1037.05304897 153.489973647 1164.33918314 160.607300296 1196.36715306 c 0
 173.054464647 1253.26847581 212.717864065 1285 268 1285 c 0
 314.64871747 1285 335 1264.59273495 335 1230 c 0
 335 1222.51694402 333.306794024 1214.22025618 331.307169111 1203.22231916 c 1
 315.382992234 1125.27766392 208.398749422 846.489618721 153.626254267 781.442454225 c 1
EndSplineSet
EndChar

StartChar: numbersign
Encoding: 35 35 4
Width: 1213
Flags: HW
LayerCount: 2
Fore
SplineSet
669.146097481 407 m 1
 358.063533874 407 l 1
 353.529662036 397.047598406 l 0
 271.258780971 216.452981433 201.24006654 35.397795373 121.465203673 -144.095646077 c 0
 121.2840021 -144.503349617 l 1
 121.124435221 -144.919996468 l 0
 103.740711101 -190.310831671 79.2376634938 -222 36 -222 c 0
 18.3068694228 -222 4 -198.525998545 4 -167 c 0
 4 -163.124561909 4.84980035328 -157.434329965 5.60927379792 -153.636962741 c 1
 13.7715211214 -119.355523983 232.793474214 313.605823406 266.291638696 382.572632633 c 0
 278.156359988 407 l 1
 251 407 l 0
 230.403477132 407 202.948514031 404 175 404 c 0
 121.510816042 404 93 413.945823415 93 434 c 0
 93 473.167757325 147.824260729 487 218 487 c 0
 252.192521678 487 286.523877015 484 306 484 c 0
 316.643655389 484 l 1
 417.15232591 691 l 1
 390 691 l 0
 367.195355296 691 332.860314283 687 299 687 c 0
 241.30014084 687 209 698.272131592 209 719 c 0
 209 756.491570082 268.318310931 772 343 772 c 0
 385.15384152 772 424.197645868 768 445 768 c 0
 455.560168745 768 l 1
 460.239740227 777.46671932 l 0
 546.897931353 952.775243895 641.527183865 1127.56972879 699.03794389 1310.32816182 c 1
 709.612778141 1334.39678345 751.384589517 1345 778 1345 c 0
 816.283554935 1345 816 1339.26024637 816 1317 c 0
 816 1310.1911201 813.433650644 1297.82468903 810.34190014 1283.39652001 c 1
 806.158319979 1261.78135585 574.528003904 847.105242779 545.962325292 792.928955755 c 0
 532.817966803 768 l 1
 840.957787702 768 l 1
 845.482810081 777.979843876 l 0
 918.424182736 938.850542472 996.573958221 1104.09030089 1056.98451945 1269.21250158 c 0
 1077.16116978 1324.9384882 1091.91161388 1345 1150 1345 c 0
 1188.34599161 1345 1196 1334.27898179 1196 1310 c 0
 1196 1303.52284069 1194.30841357 1294.22892158 1192.26738948 1283.00328907 c 0
 1186.97754385 1253.53129197 966.473072502 849.984216331 936.900300066 792.810189621 c 0
 924.067443366 768 l 1
 952 768 l 0
 970.127056681 768 999.551918798 770 1032 770 c 0
 1093.40736185 770 1130 757.922045525 1130 742 c 0
 1130 700.626157591 1072.8511632 686 1003 686 c 0
 961.101557519 686 918.994334205 691 895 691 c 0
 884.356344611 691 l 1
 783.84767409 484 l 1
 811 484 l 0
 830.484259246 484 864.762238411 487 901 487 c 0
 969.136700427 487 1015 473.020408996 1015 452 c 0
 1015 415.423166559 959.880864163 401 882 401 c 0
 832.013578297 401 782.255913313 407 759 407 c 0
 748.033203428 407 l 1
 743.511939046 397.008563896 l 0
 662.3095356 217.561277268 590.258563613 37.4255273251 513.37453449 -142.303371924 c 0
 493.304789698 -189.132776438 464.017508128 -222 418 -222 c 0
 400.306869423 -222 386 -198.525998545 386 -167 c 0
 386 -163.27701484 386.941543441 -157.179081878 387.573754095 -153.808897236 c 1
 396.355605736 -119.981434934 624.660563278 315.332838613 657.294163268 382.577832532 c 0
 669.146097481 407 l 1
804.730638722 691 m 1
 493.300792451 691 l 1
 393.988653723 484 l 1
 707.811563577 484 l 1
 804.730638722 691 l 1
EndSplineSet
EndChar

StartChar: dollar
Encoding: 36 36 5
Width: 943
Flags: HW
LayerCount: 2
Fore
SplineSet
314.968638978 -194.001953125 m 1
 314.090898293 -193.905273438 303.883029229 -188.663085938 303.194253169 -157.846679688 c 1
 304.174979575 -146.552734375 304.240172371 -137.5546875 306.481292828 -127.870117188 c 1
 334.671035647 6.7783203125 l 1
 315.898344935 7.9697265625 l 0
 193.951171875 15.515625 72.6533203125 52.2802734375 -6 104.112304688 c 1
 69.03125 369.036132812 l 1
 73.5419921875 370.135742188 75.515625 370.53125 76.662109375 370.764648438 c 1
 80.5859375 366.286132812 86.3173828125 349.056640625 86.3173828125 323 c 0
 86.3173828125 310.721679688 84.3173828125 298.879882812 84.3173828125 285 c 0
 84.3173828125 156.763671875 202.723632812 71.97265625 332.207881754 45.322265625 c 0
 347.807856405 42.0546875 l 1
 442.110652715 526.849609375 l 1
 320.028166824 612.220703125 l 0
 222.41796875 679.395507812 175.317382812 754.120117188 175.317382812 842 c 0
 175.317382812 860.984375 177.126953125 879.204101562 181.899414062 899.25 c 1
 224.799804688 1099.45214844 391.814883193 1187.29296875 570.671790789 1200.03808594 c 0
 582.387597565 1200.87402344 l 1
 585.171046497 1212.96875 l 0
 625.382718784 1387.72363281 623.190729129 1422 656.64453125 1422 c 0
 662.815429688 1422 667.317382812 1426.58496094 667.317382812 1395 c 0
 667.317382812 1369.30957031 655.556590169 1288.80566406 638.400491828 1222.49902344 c 0
 633.122709841 1202.09765625 l 1
 653.059422644 1201.02148438 l 0
 745.590820312 1196.36621094 834.303710938 1175.06640625 902.274414062 1144.63085938 c 1
 880.524414062 911.725585938 l 1
 873.596679688 910.245117188 871.330078125 910.048828125 869.350585938 909.99609375 c 1
 864.005859375 911.033203125 847.317382812 943.637695312 847.317382812 978 c 0
 847.317382812 1095.14257812 749.969726562 1153.33300781 643.357033953 1169.79882812 c 0
 628.872895415 1172.18164062 l 1
 625.33925692 1157.10058594 l 0
 605.836217932 1073.86035156 581.727166199 963.698242188 538.191606151 752.633789062 c 0
 535.875844666 741.407226562 l 1
 671.7890625 643.921875 l 1
 801.508789062 556.78125 841.317382812 494.310546875 841.317382812 413 c 0
 841.317382812 391.473632812 838.485351562 366.587890625 832.694335938 339.5625 c 0
 783.825195312 111.505859375 594.540857448 17.7607421875 402.069048591 6.9765625 c 0
 389.884609545 6.2939453125 l 1
 366.887614633 -104.331054688 l 0
 350.569574405 -182.654296875 323.922727753 -193.84375 314.968638978 -194.001953125 c 1
505.23617548 466.21484375 m 0
 485.578185498 479.888671875 l 1
 480.751084142 455.4921875 l 0
 457.626538108 338.623046875 428.892577168 200.487304688 399.217572394 39.2578125 c 0
 395.489300334 19 l 1
 414.953601575 19 l 0
 534.470892677 19 675.317382812 94.0283203125 675.317382812 259 c 0
 675.317382812 342.063476562 613.172769513 391.140625 505.23617548 466.21484375 c 0
318.358664358 962 m 0
 318.358664358 910.842773438 345.214316921 867.71875 398.347390294 828.075195312 c 2
 495.25033985 756.209960938 l 1
 571.941633072 1156.69433594 l 1
 550.759643387 1154.94824219 l 0
 438.94549524 1145.73925781 318.358664358 1077.6640625 318.358664358 962 c 0
EndSplineSet
EndChar

StartChar: percent
Encoding: 37 37 6
Width: 1496
Flags: HW
LayerCount: 2
Fore
SplineSet
960.188482967 213 m 0
 960.188482967 103.815429688 997.684289653 24 1088.41474121 24 c 0
 1199.50976562 24 1273.71289062 154.874023438 1310.640625 333.525390625 c 0
 1323.81933594 396.377929688 1331 454.342773438 1331 503 c 0
 1331 612.719726562 1293.5703125 694 1202.09179688 694 c 0
 1090.55631513 694 1017.19491243 557.703125 977.882420506 366.532226562 c 0
 966.136445021 309.60546875 960.188482967 257.549804688 960.188482967 213 c 0
1075.74119892 -5 m 1
 928.819423232 -5 851.669895379 104.202148438 851.669895379 256 c 0
 851.669895379 286.569335938 855.386891059 320.633789062 861.925996724 354.5859375 c 0
 902.353491235 554.733398438 1046.33108338 718 1218 718 c 0
 1364.48925781 718 1445 606.13671875 1445 452 c 0
 1445 216.670898438 1273.20410156 -1.236328125 1075.74119892 -5 c 1
1223.61621094 1262.75097656 m 1
 1054.28893371 1033.73144531 711.997558901 590.299804688 354.357596816 13.859375 c 1
 309.254882812 -54.734375 258.029296875 -98.64453125 212.041015625 -137.815429688 c 1
 191.884765625 -136.438476562 177.3359375 -130.205078125 165.982421875 -122.3984375 c 1
 198.25390625 -78.0771484375 232.333984375 -35.7451171875 267.522460938 9.7177734375 c 1
 977.357600325 1015.1953125 l 1
 1067.99289218 1137.06738281 1156.13384635 1317.00585938 1259.42382812 1395.93066406 c 1
 1292.89550781 1394.90722656 1306.00488281 1388.72265625 1316.76171875 1381.83789062 c 1
 1223.61621094 1262.75097656 l 1
309.881835938 588 m 1
 157.060546875 588 77 699.8984375 77 854.149414062 c 0
 77 886.485351562 80.8486328125 920.231445312 87.6513671875 955.038085938 c 0
 129.633789062 1159.84472656 279.168945312 1327 452.845005994 1327 c 0
 592.780713772 1327 670.330104621 1214.59375 670.330104621 1057.78125 c 0
 670.330104621 817.483398438 508.476906416 590.88671875 309.881835938 588 c 1
190 809.7421875 m 0
 190 698.797851562 228.84765625 616 322.842433294 616 c 0
 434.940563657 616 506.6631048 750.25 542.212463012 933.430664062 c 0
 554.900423437 997.877929688 561.811517033 1057.33886719 561.811517033 1108.20703125 c 0
 561.811517033 1220.5390625 525.927658047 1304 437.43682375 1304 c 0
 325.009959867 1304 249.200195312 1164.32324219 208.373046875 968.224609375 c 0
 196.17578125 909.84375 190 856.423828125 190 809.7421875 c 0
EndSplineSet
EndChar

StartChar: ampersand
Encoding: 38 38 7
Width: 1611
Flags: HW
LayerCount: 2
Fore
SplineSet
676 -3 m 0
 425.534823292 -3 68 156.093856835 68 471 c 0
 68 683.004222088 237.660011605 789.36493371 237.999434454 789.577435501 c 1
 250.531680425 797.411364702 l 1
 244.534796327 810.904353923 l 0
 233.443450298 835.859882487 220 878.092141253 220 951 c 0
 220 1107.10599353 368.351312054 1237 526 1237 c 0
 629.373790051 1237 730 1174.04640768 730 1081 c 0
 730 1041.63222027 689.638919083 991 643 991 c 0
 573.923139915 991 453.891293387 1070 371 1070 c 0
 318.121685149 1070 286 1029.70064911 286 936 c 0
 286 887.072617113 294.25062578 854.871107312 302.425325307 836.186079822 c 0
 308.647896955 821.963058911 l 1
 323.375872022 826.872383933 l 0
 343.90528856 833.715522779 369.395301198 841 392 841 c 0
 459.838902004 841 487 798.544364001 487 757 c 0
 487 710.05406622 451.448197847 663 394 663 c 0
 340.798563761 663 309.469821082 689.123822118 286.415971168 726.00998198 c 0
 278.49054517 738.690663576 l 1
 264.902497084 732.447506347 l 0
 182.587387993 694.627050819 140 594.931202956 140 516 c 0
 140 224.599130362 467.77528463 153 694 153 c 0
 885.468631645 153 1235 216.621775664 1235 498 c 0
 1235 713.009044866 1091.87558172 824 887 824 c 0
 776.220597091 824 634 767.103890001 634 631 c 0
 634 543.26226568 708.347169738 459 799 459 c 0
 817.490916304 459 861 468.066694153 861 504 c 0
 861 529.401060625 854 555.516109893 854 584 c 0
 854 641.286615952 889.600247934 664 930 664 c 0
 974.040490945 664 1022 631.627423669 1022 569 c 0
 1022 456.25519915 922.08736099 391 816 391 c 0
 714.801759946 391 567 453.1530275 567 619 c 0
 567 833.058339623 751.121600418 959 958 959 c 0
 1095.83692103 959 1228.89042654 895 1376 895 c 0
 1442.69748524 895 1507 939.426103045 1507 1014 c 0
 1507 1048.32035299 1480.85570097 1123 1429 1123 c 0
 1382.36625727 1123 1370.05472089 1040 1300 1040 c 0
 1236.67243865 1040 1209 1079.06148729 1209 1119 c 0
 1209 1163.23948366 1242.02715005 1209 1319 1209 c 0
 1458.091015 1209 1577 1150.07104113 1577 999 c 0
 1577 866.448134778 1469.04510264 775 1340 775 c 0
 1316.75441055 775 1242.59823085 781.924705556 1242.59823085 781.924705556 c 0
 1206.9133753 785.294491626 l 1
 1226.88269742 755.528898271 l 0
 1278.29862003 678.890070229 1302 603.710673275 1302 517 c 0
 1302 178.547960021 1009.82769466 -3 676 -3 c 0
EndSplineSet
EndChar

StartChar: quoteright
Encoding: 8217 8217 8
Width: 460
Flags: HW
LayerCount: 2
Fore
SplineSet
190.021520509 783.032736863 m 1
 120.858813601 868.333408717 l 1
 182.67270979 909.731934138 221 929.217149004 221 992 c 0
 221 1029.85678262 185.833860161 1104.7355561 173.069151718 1139.75326294 c 1
 175.135859163 1178.6129359 213.501548151 1217 268 1217 c 0
 341.514102867 1217 396 1154.42246712 396 1063 c 0
 396 950.873454878 288.936855727 842.643615739 190.021520509 783.032736863 c 1
EndSplineSet
EndChar

StartChar: parenleft
Encoding: 40 40 9
Width: 664
Flags: HW
LayerCount: 2
Fore
SplineSet
662.79190641 1264.40535696 m 1
 381.262765436 965.557865954 251 613.641421674 251 241 c 0
 251 81.2732443813 276.648604796 -84.2301764878 322.259989559 -246.733548084 c 1
 304.489404382 -258.118145337 287.830143526 -266 277 -266 c 0
 273.741806366 -266 269.636289556 -264.422888335 266.878841193 -262.69556782 c 1
 163.899753877 -137.772595537 78 99.7196474276 78 365 c 0
 78 697.591610755 213.783626106 1069.54642865 622.412502738 1313.22399247 c 1
 623.412372171 1313.24015156 624 1314 625 1314 c 0
 631.229486071 1314 651.857293174 1286.60121601 662.79190641 1264.40535696 c 1
EndSplineSet
EndChar

StartChar: parenright
Encoding: 41 41 10
Width: 680
Flags: HW
LayerCount: 2
Fore
SplineSet
-3.79190641036 -216.405356957 m 1
 277.737234564 82.4421340461 408 434.358578326 408 807 c 0
 408 966.726755619 382.351395204 1132.23017649 336.740010441 1294.73354808 c 1
 354.510595618 1306.11814534 371.169856474 1314 382 1314 c 0
 385.258193634 1314 389.363710444 1312.42288834 392.121158807 1310.69556782 c 1
 495.100246123 1185.77259554 581 948.280352572 581 683 c 0
 581 350.408389245 445.216373894 -21.546428647 36.5874972621 -265.223992468 c 1
 35.5876278287 -265.240151558 35 -266 34 -266 c 0
 27.7705139286 -266 7.14270682557 -238.601216006 -3.79190641036 -216.405356957 c 1
EndSplineSet
EndChar

StartChar: asterisk
Encoding: 42 42 11
Width: 1128
Flags: HW
LayerCount: 2
Fore
SplineSet
729.28489195 1224.11631472 m 0
 703.991735891 1101.5417892 639.162166766 952.226339417 595.911100288 825.490656251 c 0
 582.949593426 787.510426842 l 1
 619.249126939 804.623064069 l 0
 689.264864733 837.630483315 994.488279315 992 1042 992 c 0
 1076.39461163 992 1097 966.738335046 1097 932 c 0
 1097 890.029253152 1063.50506193 850.211036865 1016.52106189 840.640222043 c 0
 594.905891241 752.493977297 l 1
 608.855144996 731.570096664 l 0
 646.712097517 674.784667882 815 473.15442864 815 400 c 0
 815 358.663390521 757.966970732 312 715 312 c 0
 688.322553355 312 668.130739331 328.059272446 661.313334729 350.783954453 c 1
 551.58584031 733.732909976 l 1
 284.073057351 355.748859854 l 0
 265.952995888 329.863057764 234.368521473 312 206 312 c 0
 170.731508747 312 143 338.988037701 143 372 c 0
 143 374.405569077 143.9020673 380.920208347 144.694905282 385.769082004 c 1
 158.50451214 449.130807585 431.956535986 671.085117938 495.394866385 728.384255073 c 0
 519.645800676 750.288324755 l 1
 123.659163205 840.830251126 l 1
 100.536290806 846.278664998 82 869.185183571 82 895 c 0
 82 940.825897895 133.150900294 992 179 992 c 0
 225.115766073 992 461.384859197 838.911655246 520.593087763 805.224214856 c 0
 543.66476457 792.097226327 l 1
 545.937570921 818.544427499 l 0
 557.067862277 948.060545098 552.219676568 1097.26797354 578.652377351 1222.57855502 c 1
 586.63294118 1262.48137417 632.482842297 1292 673 1292 c 0
 709.031015595 1292 731 1270.07973981 731 1239 c 0
 731 1234.90511245 730.281421512 1230.09549209 729.28489195 1224.11631472 c 0
EndSplineSet
EndChar

StartChar: plus
Encoding: 43 43 12
Width: 963
Flags: HW
LayerCount: 2
Fore
SplineSet
54.6911148151 604.945462665 m 1
 99.9213679594 618.967685323 142.311176435 622 229 622 c 0
 433.850220809 622 l 1
 475.653245911 824.583949557 l 0
 490.40100559 896.47927799 505.082790775 952.606599618 519.562474223 996.137300021 c 1
 536.550528089 997.54891068 550.043615528 998 567 998 c 0
 581.053249123 998 596.516737327 997.772085658 606.495562062 997.051616416 c 1
 601.603569835 951.462947659 592.496877022 901.15826599 577.375381713 833.556286958 c 1
 534.17802469 622 l 1
 744 622 l 0
 811.558302075 622 867.445640647 619.239501405 906.674010771 614.368934683 c 1
 903.247938476 584.775696931 896.063882653 553.07037683 887.580914414 527.697511904 c 1
 840.694251204 522.795614367 787.417166577 522 715 522 c 0
 512.063333654 522 l 1
 471.363299103 318.499827246 l 1
 455.723082631 247.658846756 440.956716506 191.66903824 425.648356974 147.909804883 c 1
 408.559533107 146.495774442 395.185694421 146 379 146 c 0
 364.986114537 146 349.427251295 146.628796017 338.865580762 147.356118608 c 1
 344.716261242 193.435687265 354.546836353 242.266177503 369.641203066 311.522683599 c 1
 411.736666346 522 l 1
 73.5761807588 522 l 1
 53.6429453378 537.380302355 50 548.625064328 50 568 c 0
 50 577.324497636 52.0631987246 591.37445989 54.6911148151 604.945462665 c 1
EndSplineSet
EndChar

StartChar: comma
Encoding: 44 44 13
Width: 543
Flags: HW
LayerCount: 2
Fore
SplineSet
94.6524167845 -211.934629861 m 1
 22.21739271 -115.87948924 l 1
 43.6675905959 -100.983479255 l 0
 121.039276381 -47.4919434033 170 -28.730667873 170 46 c 0
 170 86.8892394958 130.85786895 169.832355042 117.057645646 208.70422187 c 1
 119.174426081 253.855064652 162.538523223 297 224 297 c 0
 306.516380574 297 368 226.39446898 368 124 c 0
 368 -5.34069724156 240.742225275 -130.258929754 124.714775293 -195.155639066 c 0
 94.6524167845 -211.934629861 l 1
EndSplineSet
EndChar

StartChar: hyphen
Encoding: 45 45 14
Width: 693
Flags: HW
LayerCount: 2
Fore
SplineSet
112.643086889 360 m 1
 119.616242308 401.428396154 138.734926608 467.978301297 147.660054638 475 c 1
 571.721009756 475 l 1
 563.752894515 435.152945114 543.749869571 369.084406744 534.823716344 360 c 1
 112.643086889 360 l 1
EndSplineSet
EndChar

StartChar: period
Encoding: 46 46 15
Width: 519
Flags: HW
LayerCount: 2
Fore
SplineSet
103 130 m 0
 103 221.034683108 166.910401134 264 231 264 c 0
 297.158122657 264 360 221.078369911 360 130 c 0
 360 40.001355821 297.213434447 -3 231 -3 c 0
 166.854487917 -3 103 40.0548078935 103 130 c 0
EndSplineSet
EndChar

StartChar: slash
Encoding: 47 47 16
Width: 882
Flags: HW
LayerCount: 2
Fore
SplineSet
879.213108019 1372.33797901 m 1
 674.879922588 962.411459421 371.276448474 511.870070709 143.152814136 97.280161347 c 0
 115.826628462 48.2814835858 82.2344112024 -4.74660070703 51.7097198562 -49.885511875 c 1
 39.2938689236 -52.333276628 27.1323705252 -53 14 -53 c 0
 3.70472431886 -53 l 1
 8.02487849675 -0.654693728966 31.3448201375 49.5700054428 61.6494230942 100.374780988 c 0
 638.721701784 1080.49873559 l 0
 680.705112955 1153.20171591 770.79611346 1351.69035671 828.948167312 1384.94644299 c 1
 850.0966892 1384.3101729 864.889926026 1380.31833542 879.213108019 1372.33797901 c 1
EndSplineSet
EndChar

StartChar: zero
Encoding: 48 48 17
Width: 1050
Flags: HW
LayerCount: 2
Fore
SplineSet
594.604712758 927 m 0
 840.483398438 927 983 749.729492188 983 537 c 0
 983 263.424804688 767.551757812 14 496.078611676 14 c 0
 261.455078125 14 104 174.356445312 104 396 c 0
 104 657.366210938 302.10546875 927 594.604712758 927 c 0
477.662932015 93 m 0
 674.76225962 93 826 325.778320312 826 564 c 0
 826 730.915039062 730.559723749 847 581.713077239 847 c 0
 391.550614484 847 250 612.959960938 250 399 c 0
 250 239.08984375 329.336914062 93 477.662932015 93 c 0
EndSplineSet
EndChar

StartChar: one
Encoding: 49 49 18
Width: 631
Flags: HW
LayerCount: 2
Fore
SplineSet
13 17 m 1
 34.560546875 87.0703125 l 1
 106.913085938 88.0869140625 181.923828125 102.4765625 209.56640625 222.256835938 c 1
 309.885742188 695.268554688 l 1
 309.978515625 696.209960938 l 0
 310.84765625 705.041992188 311.837890625 713.647460938 311.837890625 723 c 0
 311.837890625 781.557617188 271.1875 814.077148438 172.850585938 817.66796875 c 1
 175.374023438 830.419921875 180.55859375 855.2578125 187.673828125 888 c 1
 641.176757812 888 l 1
 620.291015625 817.932617188 l 1
 546.140625 816.92578125 471.029296875 802.573242188 444.388671875 682.690429688 c 1
 344.319335938 209.830078125 l 0
 341.390625 196.60546875 340.368164062 184.032226562 340.368164062 173 c 0
 340.368164062 172.064453125 l 1
 340.46484375 171.126953125 l 0
 345.978515625 117.607421875 389.622070312 90.6171875 480.276367188 87.328125 c 1
 477.84375 74.32421875 473.5625 52.8251953125 466.151367188 17 c 1
 13 17 l 1
EndSplineSet
EndChar

StartChar: two
Encoding: 50 50 19
Width: 939
Flags: HW
LayerCount: 2
Fore
SplineSet
640.755859375 -67.7197265625 m 2
 638.915039062 -70.48046875 637.719726562 -71.3662109375 637.124023438 -71.998046875 c 0
 620.91796875 -71.5869140625 642.9609375 2.8037109375 596.01171875 2.8037109375 c 2
 51 2.8037109375 l 2
 -0.033203125 2.8037109375 -2 16.69921875 -2 19.5908203125 c 0
 -2 34.998046875 27.548828125 72.359375 62.419921875 100.306640625 c 2
 416.512200892 393.181640625 l 2
 451.561608739 421.958984375 655 546.733398438 655 683.4765625 c 0
 655 795.466796875 573.120970199 835 504.52755684 835 c 0
 403.110929111 835 278.025509938 770.232421875 209.731445312 714.55078125 c 0
 196.5078125 704.853515625 187.822265625 702 181 702 c 0
 173.047851562 702 169 705.377929688 169 715 c 0
 169 720.849609375 175.23828125 734.30078125 191.629882812 752.62109375 c 0
 274.902081653 847.669921875 426.577936577 926 566.557828973 926 c 0
 715.471679688 926 835 865.88671875 835 706.393554688 c 0
 835 508.544921875 588.963358858 383.203125 435.421706028 268.458007812 c 2
 281.564707073 153.559570312 l 1
 298.565241916 122.692382812 l 1
 611 122.692382812 l 2
 739.578125 122.692382812 787.060546875 246.915039062 826 246.915039062 c 0
 827.809570312 246.915039062 829 246.875 829 246.875 c 1
 829 235.0078125 812.491210938 209.951171875 796.927734375 193.838867188 c 2
 795.528320312 192.390625 l 1
 640.755859375 -67.7197265625 l 2
EndSplineSet
EndChar

StartChar: three
Encoding: 51 51 20
Width: 830
Flags: HW
LayerCount: 2
Fore
SplineSet
247.407226562 77.5810546875 m 2
 251.690429688 72.83203125 l 1
 257.849609375 72.109375 l 2
 267.320047932 70.9658203125 276.089535883 71 284.21306752 71 c 0
 445.991938081 71 545.922594987 228.8203125 545.922594987 373 c 0
 545.922594987 504.213867188 468.506927665 601.95703125 365.992445507 645.571289062 c 1
 379.823950007 655.627929688 396.880562005 667.809570312 417.668015747 683.799804688 c 1
 522.567207826 755.802734375 656 875.59765625 656 1009 c 0
 656 1075.92382812 609.729492188 1145 516.61524857 1145 c 0
 441.744144323 1145 350.310944561 1094.00683594 294.470778988 1040.62890625 c 0
 274.110535138 1020.81542969 254.739257812 1014 240 1014 c 0
 224.594726562 1014 221 1019.44042969 221 1027 c 0
 221 1036.02636719 227.702148438 1053.78417969 249.590820312 1077.57714844 c 0
 336.842147803 1181.63867188 442.362056223 1237 574.4895689 1237 c 0
 718.014648438 1237 821 1162.23730469 821 1047 c 0
 821 922.662109375 723.881835938 816.703125 573.116327476 719.236328125 c 1
 547.672566359 701.095703125 l 1
 576.09375 689.138671875 l 1
 695.638671875 643.518554688 754 548.528320312 754 436 c 0
 754 207.329101562 539.585492459 -3 256.875976562 -3 c 0
 69.9609375 -3 16 61.373046875 16 102 c 0
 16 143.1875 46.5732421875 178 93 178 c 0
 139.90234375 178 166.651367188 166.311523438 247.407226562 77.5810546875 c 2
EndSplineSet
EndChar

StartChar: four
Encoding: 52 52 21
Width: 1052
Flags: HW
LayerCount: 2
Fore
SplineSet
605.203730764 -311 m 1
 431.973944584 -311 l 1
 533.587892464 135.141601562 l 1
 357.486319305 134 l 0
 109 134 l 0
 55.2724609375 134 40 154.125 40 172.916015625 c 0
 40 188.611328125 49.8125 211.569335938 74.0673828125 236.352539062 c 1
 661.631742775 862.7578125 l 0
 713.714698508 919.856445312 713.646570448 925 769 925 c 0
 885.416992188 925 l 1
 723.856445312 238.928710938 l 1
 968.150390625 238.928710938 l 1
 941.787109375 134.055664062 l 1
 703.918451198 135.064453125 l 1
 700.728733272 122.35546875 l 0
 700.728733272 122.35546875 644.586480624 -102.102539062 605.203730764 -311 c 1
164.268554688 238 m 1
 557.345660982 238 l 1
 690.489653571 793.322265625 l 1
 164.268554688 238 l 1
EndSplineSet
EndChar

StartChar: five
Encoding: 53 53 22
Width: 761
Flags: HW
LayerCount: 2
Fore
SplineSet
168.930664062 367.963867188 m 1
 160.124023438 367.529296875 159.467773438 367 153 367 c 0
 129.350585938 367 122.270507812 369.264648438 121.084960938 382.97265625 c 1
 124.9140625 395.709960938 148.11328125 477.608398438 258.071500701 895.58203125 c 1
 337.202390897 910.1796875 405.096689068 911 467.971976133 911 c 0
 474.953645312 911 506.313476562 906 596 906 c 0
 676.171875 906 684.28515625 985 717 985 c 0
 730.239257812 985 746.973632812 980.334960938 748.787109375 975.68359375 c 1
 740.671875 947.733398438 l 0
 721.686523438 882.234375 702.986328125 805.96484375 697.153320312 773.40234375 c 1
 674.478515625 758.73828125 575.153320312 752 501.554404169 752 c 0
 418.020642663 752 364.774178582 752.00390625 301.65824117 754.984375 c 0
 299.043860759 755.107421875 l 1
 296.494090752 754.3046875 l 1
 284.004618714 750.087890625 275.826252485 738.208984375 272.243652394 724.104492188 c 1
 253.397078418 656.794921875 238.723961997 607.635742188 219.647974267 538.434570312 c 0
 213.189743 515 l 1
 262.845179546 515 l 0
 489.733509357 515 622 402.798828125 622 235 c 0
 622 22.11328125 381.467072419 -242 112 -242 c 0
 -29.4794921875 -242 -69 -181.286132812 -69 -137 c 0
 -69 -95.8125 -38.4267578125 -61 8 -61 c 0
 54.9052734375 -61 81.64453125 -72.6806640625 162.4140625 -161.426757812 c 0
 166.49609375 -165.939453125 l 1
 172.336914062 -166.821289062 l 0
 181.187928909 -168.185546875 194.552918742 -168 197.495033087 -168 c 0
 363.723557227 -168 477.406967904 12.0537109375 477.406967904 143 c 0
 477.406967904 287.303710938 362.368611505 370 179.342318669 370 c 0
 177.568809894 370 l 1
 168.930664062 367.963867188 l 1
EndSplineSet
EndChar

StartChar: six
Encoding: 54 54 23
Width: 935
Flags: HW
LayerCount: 2
Fore
SplineSet
868 482 m 0
 868 256.770507812 669.036132812 -3 441.848292436 -3 c 0
 198.823242188 -3 110 160.787109375 110 352 c 0
 110 711.080078125 434.859967734 1133.4296875 793.397460938 1227.57617188 c 1
 798.16015625 1228.9375 802.8203125 1229 809 1229 c 0
 836.629882812 1229 848 1212.79589844 848 1203 c 0
 848 1196.02539062 844.125 1185.15234375 824.125 1177.953125 c 1
 564.590255154 1078.12402344 423.524815996 898.842773438 327.5625 673.118164062 c 1
 316.314453125 649 l 1
 353.111328125 649 l 1
 357.591289932 653.0234375 l 0
 431.46600972 721.407226562 510.5439325 763 601.097107525 763 c 0
 778.73828125 763 868 639.958984375 868 482 c 0
422.275045235 52 m 0
 635.099609375 52 705 376.264648438 705 538 c 0
 705 606.953125 666.341796875 702 554.835177363 702 c 0
 356.036267069 702 257 418.806640625 257 256 c 0
 257 159.934570312 295.63671875 52 422.275045235 52 c 0
EndSplineSet
EndChar

StartChar: seven
Encoding: 55 55 24
Width: 818
Flags: HW
LayerCount: 2
Fore
SplineSet
417.361574476 906 m 0
 855.201171875 906 l 1
 248.126953125 -237.766601562 l 0
 219.55078125 -289.38671875 181.211914062 -308 147 -308 c 0
 99.2724609375 -308 58 -270.815429688 58 -215 c 0
 58 -191.279296875 67.75 -156.0859375 92.0068359375 -120.634765625 c 0
 677.477539062 761 l 1
 312.631764845 761 l 0
 171.205078125 761 96.484375 629 77 629 c 0
 74.7060546875 629 71.6484375 629.264648438 71.6484375 629.264648438 c 1
 73.2900390625 632.916992188 75.0234375 636.161132812 77.416015625 639.990234375 c 0
 77.8916015625 640.75 l 1
 221.12890625 935.237304688 l 1
 243.727539062 977.044921875 246.583007812 986 257 986 c 0
 279.911132812 986 256.228515625 953.645507812 311.021901782 922.76171875 c 1
 336.486499068 900.33984375 390.217079481 906 417.361574476 906 c 0
EndSplineSet
EndChar

StartChar: eight
Encoding: 56 56 25
Width: 916
Flags: HW
LayerCount: 2
Fore
SplineSet
621.289277096 649.513671875 m 0
 630.941833359 643.126953125 816 530.056640625 816 357 c 0
 816 127.626953125 583.974546408 -3 406.44876039 -3 c 0
 215.69140625 -3 91 83.6123046875 91 221 c 0
 91 460.534179688 418.589339785 618.595703125 426.335160486 622.866210938 c 0
 452.35737384 637.211914062 l 1
 426.947337736 652.77734375 l 0
 419.269848746 657.481445312 253 767.30859375 253 916 c 0
 253 1058.46289062 403.590061124 1236 634.083219978 1236 c 0
 811.737304688 1236 906 1170.2109375 906 1025 c 0
 906 822.188476562 638.282344046 687.099609375 623.770747873 679.838867188 c 1
 592.707900746 668.421875 l 1
 621.289277096 649.513671875 l 0
489.834041323 586.362304688 m 0
 482.118174248 594.211914062 l 1
 472.456257477 589.469726562 l 0
 336.499023438 522.733398438 219 393.87890625 219 230 c 0
 219 116.020507812 293.465820312 51 415.517220928 51 c 0
 544.272886078 51 658.930689527 179.841796875 658.930689527 304 c 0
 658.930689527 406.133789062 606.162695521 468.037109375 489.834041323 586.362304688 c 0
784 1029 m 0
 784 1116.64648438 732.625 1195 627.734923181 1195 c 0
 523.362446363 1195 397.018048176 1123.48632812 397.018048176 985 c 0
 397.018048176 858.381835938 467.28925684 807.684570312 555.007517112 714.87109375 c 0
 562.516516951 706.923828125 l 1
 572.197154739 711.334960938 l 0
 689.18359375 763.6875 784 886.24609375 784 1029 c 0
EndSplineSet
EndChar

StartChar: nine
Encoding: 57 57 26
Width: 911
Flags: HW
LayerCount: 2
Fore
SplineSet
155 751 m 0
 155 976.229492188 353.963867188 1236 581.151707564 1236 c 0
 824.176757812 1236 913 1072.21289062 913 881 c 0
 913 521.919921875 588.140032266 99.5703125 229.602539062 5.423828125 c 1
 223.372070312 3.6435546875 218.596679688 3 213 3 c 0
 186.793945312 3 174 20.1787109375 174 30 c 0
 174 33.7314453125 179.090820312 47.1259765625 199.153320312 55.1513671875 c 1
 458.098925837 154.748046875 599.507657632 332.209960938 695.461914062 559.934570312 c 1
 706.5859375 584 l 1
 669.888671875 584 l 1
 665.408710068 579.9765625 l 0
 591.53399028 511.592773438 512.4560675 470 421.902892475 470 c 0
 244.26171875 470 155 593.041015625 155 751 c 0
600.724954765 1181 m 0
 387.900390625 1181 318 856.735351562 318 695 c 0
 318 626.046875 356.658203125 531 468.164822637 531 c 0
 666.963732931 531 766 814.193359375 766 977 c 0
 766 1073.06542969 727.36328125 1181 600.724954765 1181 c 0
EndSplineSet
EndChar

StartChar: colon
Encoding: 58 58 27
Width: 562
Flags: HW
LayerCount: 2
Fore
SplineSet
225 775 m 0
 225 866.034683108 288.910401134 909 353 909 c 0
 419.158122657 909 482 866.078369911 482 775 c 0
 482 685.001355821 419.213434447 642 353 642 c 0
 288.854487917 642 225 685.054807894 225 775 c 0
122 150 m 0
 122 241.034683108 185.910401134 284 250 284 c 0
 316.158122657 284 379 241.078369911 379 150 c 0
 379 60.001355821 316.213434447 17 250 17 c 0
 185.854487917 17 122 60.0548078935 122 150 c 0
EndSplineSet
EndChar

StartChar: semicolon
Encoding: 59 59 28
Width: 554
Flags: HW
LayerCount: 2
Fore
SplineSet
96.6524167845 -211.934629861 m 1
 24.21739271 -115.87948924 l 1
 45.6675905959 -100.983479255 l 0
 123.039276381 -47.4919434033 172 -28.730667873 172 46 c 0
 172 86.8892394958 132.85786895 169.832355042 119.057645646 208.70422187 c 1
 121.174426081 253.855064652 164.538523223 297 226 297 c 0
 308.516380574 297 370 226.39446898 370 124 c 0
 370 -5.34069724156 242.742225275 -130.258929754 126.714775293 -195.155639066 c 0
 96.6524167845 -211.934629861 l 1
215 775 m 0
 215 866.034683108 278.910401134 909 343 909 c 0
 409.158122657 909 472 866.078369911 472 775 c 0
 472 685.001355821 409.213434447 642 343 642 c 0
 278.854487917 642 215 685.054807894 215 775 c 0
EndSplineSet
EndChar

StartChar: less
Encoding: 60 60 29
Width: 618
Flags: HW
LayerCount: 2
Fore
SplineSet
336 35 m 0
 304.670652529 35 297.459434609 40.3567188688 285.339433271 66.3281503075 c 0
 54.4040030452 549.726889848 l 1
 170.452538966 671.759300102 435.936146172 980.026559104 552.381720069 1050.84088102 c 1
 577.875474252 1048.66575411 592 1035.89916954 592 1020 c 0
 592 1017.92604103 591.905811707 1015.93473136 591.878307333 1015.49413015 c 1
 489.48179112 864.502369158 289.126383501 700.167094795 153.023623509 565.065090391 c 0
 144.293729033 556.399386316 l 1
 149.794737753 545.397368877 l 0
 184.55636869 475.874107002 376 158.447048217 376 79 c 0
 376 56.4305047804 355.941601525 35 336 35 c 0
EndSplineSet
EndChar

StartChar: equal
Encoding: 61 61 30
Width: 808
Flags: HW
LayerCount: 2
Fore
SplineSet
592 712 m 2
 597.402147942 712 603.795213682 712.08892717 610.843613998 712.091094598 c 0
 659.603417633 712.106088543 700 703.387537036 700 688 c 0
 700 661.76111193 667.178764932 652 623 652 c 0
 605.078823942 652 586.602645084 654 573 654 c 0
 261 654 l 0
 249.109682257 654 232.398797417 653 216 653 c 0
 171.976247911 653 151 661.479543228 151 674 c 0
 151 714.276127653 231.245962355 712 277 712 c 0
 592 712 l 2
542 470 m 2
 547.402147942 470 553.795213682 470.08892717 560.843613998 470.091094598 c 0
 609.603417633 470.106088543 650 461.387537036 650 446 c 0
 650 419.939644109 616.118974961 410 572 410 c 0
 553.027479337 410 534.61400632 412 521 412 c 0
 209 412 l 0
 197.109682257 412 180.398797417 411 164 411 c 0
 121.215803608 411 101 419.212163431 101 432 c 0
 101 472.276127653 181.245962355 470 227 470 c 0
 542 470 l 2
EndSplineSet
EndChar

StartChar: greater
Encoding: 62 62 31
Width: 616
Flags: HW
LayerCount: 2
Fore
SplineSet
40 35 m 0
 25.6791769896 35 21 41.0813001606 21 55 c 0
 21 57.4044971072 21.6183701106 60.408518822 22.6320857003 65.4770967703 c 1
 36.5808582799 127.836315362 380.904221962 467.838351594 449.439266706 541.412737863 c 0
 458.011426433 550.615203453 l 1
 451.719706245 561.504719164 l 0
 373.269819311 697.283369627 240.661139774 863.004590066 203.523767472 1008.93120763 c 1
 211.396266369 1032.92400954 241.584329874 1048.3872626 266.149574863 1050.7313529 c 1
 349.349915715 976.589077302 483.932618203 674.865776586 547.372520521 555.440855322 c 1
 113.363999514 70.3724004376 l 0
 88.4021813462 42.637046918 71.7732415736 35 40 35 c 0
EndSplineSet
EndChar

StartChar: question
Encoding: 63 63 32
Width: 701
Flags: HW
LayerCount: 2
Fore
SplineSet
217.74485406 348.969459319 m 1
 151.984554554 353.572680285 l 1
 231.393321523 702.037034158 l 1
 237.833014438 702.833202246 244.653180543 703 253 703 c 0
 367 703 l 0
 478.987615949 703 555 829.633300979 555 935 c 0
 555 1003.16809162 529.711791787 1121 420 1121 c 0
 386.238175963 1121 345.089429647 1103 321 1103 c 0
 277.93118677 1103 254 1129.47594097 254 1155 c 0
 254 1180.55780108 292.597960873 1236 426 1236 c 0
 604.156386621 1236 647 1072.97025555 647 969 c 0
 647 807.766594332 576.842957402 566 299 566 c 0
 268.518053944 566 l 1
 217.74485406 348.969459319 l 1
16 52 m 0
 16 146.567493553 75.2770889032 199 151 199 c 0
 193.95022976 199 227 165.264478018 227 126 c 0
 227 52.2234118764 149.80756616 -3 84 -3 c 0
 46.4721016187 -3 16 27.0738307283 16 52 c 0
144 332 m 2
 133.568082352 332 128.37852107 323.88369799 127.602234726 322.643865286 c 1
 93.9440819709 288.985712531 l 1
 114.18829136 291.516238705 l 0
 124.026166619 292.745973112 133.052175287 293.859224196 143.420590488 295.155276096 c 0
 146.542789236 295.545550939 161 299.392410915 161 315 c 0
 161 332 l 1
 144 332 l 2
EndSplineSet
EndChar

StartChar: at
Encoding: 64 64 33
Width: 1611
Flags: HW
LayerCount: 2
Fore
SplineSet
912.660183819 336.343982853 m 2
 915.757220128 339.156985604 918.807803624 341.98521405 921.809049988 344.82272289 c 2
 924 346.894142319 l 1
 924 346.900609204 l 1
 925.875745787 348.680978087 l 1
 927.200967687 352.849403336 l 2
 928.202861152 356.000813688 929.21191866 359.152881218 930.227546764 362.305626923 c 2
 934.530190311 375.551205006 l 2
 988.324503371 539.856049975 1058 706.149329969 1058 878 c 0
 1058 935.781702063 1032.24618016 995 946 995 c 0
 713.230449539 995 567 595.280698494 567 408 c 0
 567 323.9905175 595.945692156 234 704 234 c 0
 761.875017472 234 821.52402909 264.621475999 872.421418041 302.922231071 c 1
 807.451091953 219.004833149 723.828279539 170 650 170 c 0
 503.426292291 170 439 270.222171791 439 417 c 0
 439 705.568630499 701.816886816 1040 974 1040 c 0
 1129.12296689 1040 1176 964.167838723 1176 847 c 0
 1176 659.701506669 1036 451.284313107 1036 241 c 0
 1036 206.956990792 1048.27041818 164 1100 164 c 0
 1287.26039191 164 1368 675.263959398 1368 781 c 0
 1368 1037.83246088 1266.83938006 1252 1017 1252 c 0
 570.937529185 1252 239 745.903487953 239 375 c 0
 239 100.354072474 367.587643287 -43 616 -43 c 0
 690.854818259 -43 767.699438516 -32.228158323 842.588939835 -14.0812460869 c 1
 831.508270212 -49.2503279338 l 1
 729.453175628 -78.8677557597 632.542051334 -95 534 -95 c 0
 267.722406278 -95 63 81.8387647769 63 399 c 0
 63 895.284043981 592.230553915 1311 1037 1311 c 0
 1322.45229765 1311 1535 1133.34028484 1535 783 c 0
 1535 555.173631461 1326.74672335 148 1061 148 c 0
 964.310251677 148 924 227.689146593 924 322 c 2
 924 346.894142319 l 1
 924 346.900609204 l 1
 924 378.372949122 l 1
 871.026081932 298.528203049 l 1
 912.660183819 336.343982853 l 2
EndSplineSet
EndChar

StartChar: A
Encoding: 65 65 34
Width: 1187
Flags: W
HStem: 34 70.001<-65.9358 81.3588 290.874 426.339 626.039 759.981 971.601 1109.9> 418 59<477.028 801.985>
VStem: 801.985 143.015<135.2 418 477 747.494> 819.866 152.664<708.178 1011.92>
LayerCount: 2
Fore
SplineSet
416.133748354 104 m 0xe0
 419.026894281 104 426.433462701 109.930664062 426.433462701 62 c 0
 426.433462701 35.14453125 418.040181264 34 418.040181264 34 c 0
 -61 34 l 0
 -65.4052734375 34 -68 33.5185546875 -68 52 c 0
 -68 75.529296875 -55.2412109375 99.87890625 -50.720703125 104.000976562 c 1
 22.1298828125 104.149414062 90.7666015625 116.09375 171.071289062 233.459960938 c 1
 819.951075178 1234 l 1
 972.530273438 1234 l 1xd0
 945 224.232421875 l 1
 945 152.318359375 964.603515625 104 1099 104 c 0
 1102.30566406 104 1110 109.810546875 1110 62 c 0
 1110 35.291015625 1101.203125 34 1101 34 c 0
 630.632333922 34 l 0
 626.715150236 34 624.146442439 33.388671875 624.146442439 52 c 0
 624.146442439 75.1416015625 635.778362917 99.1083984375 640.555929729 104.000976562 c 1
 713.56025143 104.108398438 792.494421682 113.728515625 796.691062401 242.467773438 c 0
 801.985433314 418 l 1
 427.36466713 418 l 1
 309.020355908 233.35546875 l 0
 296.466801448 213.60546875 281.528291761 194.514648438 281.528291761 169 c 0
 281.528291761 120.627929688 333.029734633 104 416.133748354 104 c 0xe0
804.777132511 477 m 1
 819.865898206 1011.921875 l 1
 477.027627261 477 l 1
 804.777132511 477 l 1
EndSplineSet
EndChar

StartChar: B
Encoding: 66 66 35
Width: 1173
Flags: HW
LayerCount: 2
Fore
SplineSet
481.600517528 1039.31445312 m 1
 302.165344283 182.447265625 291.547663174 138.288085938 291.312182688 137.333984375 c 2
 285.785091926 116 l 1
 417.715427413 116 l 0
 426.037652401 116 434.732242873 115.982421875 443.7350639 115.982421875 c 0
 611.293788396 115.96875 915 119.395507812 915 389 c 0
 915 595.822265625 702.565450503 633 587.040255555 633 c 0
 550.252651632 633 537.049471363 653.229492188 537.049471363 672 c 0
 537.049471363 692.150390625 549.202561822 708 568.416237915 708 c 0
 763.357705452 708 969 772.200195312 969 946.34375 c 0
 969 1072.51269531 838.855046697 1144 659.575903206 1144 c 0
 589.526201988 1144 505.205043175 1141.91796875 481.600517528 1039.31445312 c 1
863.935632953 666.693359375 m 1
 998.091796875 622.30859375 1074 517.091796875 1074 387 c 0
 1074 106.053710938 847.86839734 34 448.213022089 34 c 0
 -46 34 l 0
 -50.4052734375 34 -53 33.5185546875 -53 52 c 0
 -53 75.529296875 -40.2412109375 99.87890625 -35.7216796875 104.000976562 c 1
 39.494140625 104.1015625 121.377929688 112.702148438 150.592773438 239.302734375 c 1
 310.272190777 1040.53808594 l 0
 312.493939592 1051.87304688 313.561259682 1062.56640625 313.561259682 1072 c 0
 313.561259682 1153.61328125 232.470778271 1162.1328125 177.547851562 1164.99121094 c 0
 177.369140625 1165 l 1
 177.189453125 1165 l 0
 172.376953125 1165 170 1164.50878906 170 1183 c 0
 170 1201.99414062 177.809570312 1222.94433594 179.338867188 1234 c 1
 689.962458303 1234 l 0
 1004.81152344 1234 1132 1116.39941406 1132 969 c 0
 1132 749.638671875 871.441334141 714.8359375 854.719347908 693.114257812 c 0
 840.270801328 674.3515625 863.935632953 666.693359375 863.935632953 666.693359375 c 1
EndSplineSet
EndChar

StartChar: C
Encoding: 67 67 36
Width: 1153
Flags: W
HStem: -21 112<424.376 761.538> 1165 90<571.733 895.914>
VStem: 76 188<316.658 768.333> 993.814 171.186<872.815 1071.46>
LayerCount: 2
Fore
SplineSet
555.641810967 -21 m 0
 324.903872635 -21 76 188.765625 76 570.776367188 c 0
 76 939.500976562 373.982392809 1255 709.028169423 1255 c 0
 958.512695312 1255 1165 1126.52050781 1165 931 c 0
 1165 880.114257812 1129.93847656 852 1092 852 c 0
 1053.11816406 852 1006.88085938 882.440429688 993.814453125 965.51171875 c 1
 978.633789062 1072.85644531 892.87271437 1165 733.645674225 1165 c 0
 476.001096086 1165 264 848.138671875 264 500.946289062 c 0
 264 278.737304688 357.080580237 91 583.099980593 91 c 0
 745.955857931 91 925.7265625 208.393554688 1016.38964844 367.239257812 c 1
 1097.8515625 303.713867188 l 1
 972.869140625 94.8193359375 753.866207743 -21 555.641810967 -21 c 0
EndSplineSet
EndChar

StartChar: D
Encoding: 68 68 37
Width: 1275
Flags: HW
LayerCount: 2
Fore
SplineSet
714.62245499 1206 m 0
 990.534179688 1206 1230 1017.38964844 1230 721.954101562 c 0
 1230 388.051757812 964.055794161 27 602.371118937 27 c 0
 -47 26 l 0
 -51.4052734375 26 -54 25.5185546875 -54 44 c 0
 -54 66.37109375 -41.607421875 91.7841796875 -36.5390625 97.0009765625 c 1
 38.2919921875 97.099609375 120.353515625 105.53515625 149.576171875 229.74609375 c 0
 325.924759061 1014.66894531 l 1
 328.102114087 1025.80371094 329.164402326 1035.43652344 329.164402326 1045.64453125 c 0
 329.164402326 1124.91894531 249.738444576 1137 176 1137 c 0
 171.594726562 1137 169 1136.51855469 169 1155 c 0
 169 1183.12011719 185.373046875 1205.51269531 188.913085938 1206 c 1
 714.62245499 1206 l 0
581.285609028 97 m 0
 853.597969145 97 1044 499.177734375 1044 792 c 0
 1044 964.651367188 958.786575806 1156 724.214716267 1156 c 0
 641.718006607 1156 l 0
 555.374220571 1156 518.353427472 1134.69824219 491.707937387 1047.09179688 c 0
 491.500661633 1046.41113281 l 1
 285.409066445 97 l 1
 581.285609028 97 l 0
EndSplineSet
EndChar

StartChar: E
Encoding: 69 69 38
Width: 1126
Flags: W
HStem: 27 70<-45.9856 91.3938 291.698 785.638> 618 71<406.015 738.678> 905.513 21G<1057.84 1082.7> 1137 70<176.782 302.869 502.669 961.172>
VStem: 858.075 45.7303<765.295 805> 1029.37 95.627<906.478 1069.05>
LayerCount: 2
Fore
SplineSet
182 1138 m 0
 177.594726562 1138 175 1137.51855469 175 1156 c 0
 175 1184.12109375 191.375 1206.51464844 194.8984375 1207 c 1
 1124.05664062 1207 l 1
 1124.99511719 929.3046875 l 1
 1120.29296875 923.155273438 1096.40234375 905.512695312 1069 905.512695312 c 0
 1046.68945312 905.512695312 1032.90625 913.66796875 1029.36816406 922.7421875 c 1
 997.8515625 1056.05078125 979.168945312 1137 874.434558592 1137 c 0
 558.989183076 1137 l 0
 535.149829333 1137 501.385465473 1126.30664062 488.649070887 1063.16699219 c 1
 406.014653841 689 l 1
 694.316485493 689 l 0
 801.462959918 689 846.164738513 776.112304688 858.075324795 805 c 1
 903.805664062 805 l 1
 817.089205117 475 l 1
 773.922300821 475 l 1
 769.58465419 511.600585938 753.629233955 618 678.115140884 618 c 0
 390.531944269 618 l 1
 294.306617208 178.48046875 l 1
 291.291412148 166.071289062 290.054135048 155.528320312 290.054135048 147.149414062 c 0
 290.054135048 104.391601562 319.694241908 97 337.892645533 97 c 0
 643.807255453 97 l 0
 793.052729113 97 879.06023338 182.405273438 913.366210938 305.404296875 c 0
 913.620117188 306.314453125 l 1
 913.768554688 307.204101562 l 1
 914.634765625 309.84375 928.736328125 319 947 319 c 0
 984.612304688 319 1021.27246094 317.498046875 1035.57910156 314.607421875 c 1
 929.163085938 27 l 1
 -41 27 l 0
 -45.4052734375 27 -48 26.5185546875 -48 45 c 0
 -48 72.638671875 -31.908203125 96.173828125 -27.9697265625 97 c 1
 41.119140625 97.05859375 114.88671875 106.521484375 139.631835938 229.98828125 c 1
 311.127078818 998.407226562 l 1
 311.216070907 999.020507812 l 0
 313.949946138 1017.77734375 318.067504809 1034.91894531 318.067504809 1052.51074219 c 0
 318.067504809 1136.125 236.700985796 1138 182 1138 c 0
EndSplineSet
EndChar

StartChar: F
Encoding: 70 70 39
Width: 1057
Flags: HW
LayerCount: 2
Fore
SplineSet
308.514336744 180.364257812 m 1
 308.623340275 179.396484375 l 2
 314.886262454 123.982421875 365.600633362 97.4970703125 459.11514512 97.0068359375 c 1
 460.798962823 92.9306640625 462.629074739 84.69140625 462.629074739 69 c 0
 462.629074739 38.5263671875 454.043612412 27 448.553276664 27 c 0
 -49 27 l 0
 -52.3310546875 27 -56 27.1669921875 -56 45 c 0
 -56 72.638671875 -39.908203125 96.173828125 -35.9697265625 97 c 1
 40.2431640625 97.048828125 122.237304688 105.04296875 151.577148438 229.75 c 0
 322.889416444 997.354492188 l 1
 322.975471863 997.913085938 l 0
 325.565739983 1014.83691406 330.784523075 1030.0234375 330.784523075 1047.60644531 c 0
 330.784523075 1132.55273438 260.012546282 1136.859375 198.256308913 1136.99804688 c 1
 196.577272066 1141.0625 194.745247808 1149.31152344 194.745247808 1165 c 0
 194.745247808 1195.47363281 203.329753964 1207 208.820089712 1207 c 0
 1092 1207 l 1
 1092 925.317382812 l 1
 1087.30175781 919.006835938 1063.41601562 901 1036 901 c 0
 1013.7421875 901 999.966796875 909.241210938 996.377929688 918.625 c 1
 964.8671875 1054.51171875 946.23828125 1137 841.449811143 1137 c 0
 570.322651076 1137 l 0
 546.507291884 1137 512.806077362 1126.25976562 500.101428967 1063.00585938 c 1
 405.211942843 635 l 1
 725.38877954 635 l 0
 832.394868695 635 878.891601562 722.081054688 891.5703125 751 c 1
 954.934570312 751 l 1
 867.90234375 421 l 1
 814.820439741 421 l 1
 811.083722203 458.78515625 795.572710968 574 719.68043673 574 c 0
 391.727058646 574 l 1
 312.764518284 217.522460938 l 1
 309.636881879 204.650390625 308.514336744 192.150390625 308.514336744 181.330078125 c 0
 308.514336744 180.364257812 l 1
EndSplineSet
EndChar

StartChar: G
Encoding: 71 71 40
Width: 1242
Flags: HW
LayerCount: 2
Fore
SplineSet
583.522806524 -21 m 0
 278.8828125 -21 75 233.842773438 75 570.776367188 c 0
 75 939.493164062 373.260541595 1255 710.126223585 1255 c 0
 959.004457834 1255 1164 1126.54101562 1164 931 c 0
 1164 880.114257812 1128.93847656 852 1091 852 c 0
 1052.11914062 852 1005.88769531 882.438476562 993.038085938 965.489257812 c 1
 978.411428372 1072.81152344 894.961072502 1165 734.875562418 1165 c 0
 504.722395989 1165 264 888.009765625 264 526.887695312 c 0
 264 290.190429688 365.323499978 85 573.051343857 85 c 0
 729.997040995 85 833.452108218 149.076171875 836.340391829 150.856445312 c 0
 840.808623958 153.61328125 l 1
 842.739565882 159.608398438 l 0
 842.851462962 159.955078125 882.037437922 281.21875 901.373635948 388.8828125 c 0
 901.502747964 389.603515625 l 1
 901.571607706 390.327148438 l 0
 902.524167466 400.327148438 903.555150821 410.787109375 903.555150821 421 c 0
 903.555150821 479.717773438 856.302065843 511.151367188 761.535759084 514.66796875 c 1
 764.088351454 528.510742188 768.857844953 552.961914062 775.758164903 587 c 1
 1230.11035156 587 l 1
 1208.328125 514.845703125 l 1
 1138.23632812 512.818359375 1102.49902344 487.801757812 1069.71875 377.889648438 c 0
 986.678710938 101.3046875 l 1
 952.293502173 80.9326171875 770.235039787 -21 583.522806524 -21 c 0
EndSplineSet
EndChar

StartChar: H
Encoding: 72 72 41
Width: 1324
Flags: HW
LayerCount: 2
Fore
SplineSet
657.596869033 45 m 0
 657.596869033 72.0712890625 672.741637477 95.8330078125 676.836066773 97 c 1
 751.931403511 97.0546875 824.199909304 106.116210938 852.312295496 232.225585938 c 0
 939.01814013 624 l 1
 399.827808915 624 l 1
 310.950588519 219.79296875 l 0
 307.967834314 206.411132812 305.703097095 194.235351562 305.703097095 182 c 0
 305.703097095 107.994140625 374.833887913 97.2880859375 455.723409973 97.00390625 c 1
 457.445303252 92.8984375 459.295207602 84.6962890625 459.295207602 69 c 0
 459.295207602 38.568359375 450.625104383 27 444.942567815 27 c 0
 -47 27 l 0
 -50.3310546875 27 -54 27.1669921875 -54 45 c 0
 -54 72.638671875 -37.908203125 96.173828125 -33.9697265625 97 c 1
 43.67578125 97.052734375 118.41015625 105.774414062 147.567382812 229.70703125 c 0
 326.861498411 1015.62792969 l 1
 329.909701885 1031.1015625 332.059902883 1043.46386719 332.059902883 1056.43359375 c 0
 332.059902883 1122.58886719 275.781231102 1136.74707031 181.708984375 1136.99609375 c 1
 179.889648438 1141.18554688 178 1149.2890625 178 1165 c 0
 178 1195.36035156 186.901367188 1207 192.820432163 1207 c 0
 676.779279907 1207 l 0
 679.784171364 1207 683.403130967 1206.93261719 683.403130967 1189 c 0
 683.403130967 1161.92871094 668.258362523 1138.16699219 664.163933227 1137 c 1
 589.069558978 1136.9453125 516.797203228 1127.8671875 488.695404418 1001.80859375 c 0
 416.417273733 679 l 1
 955.624929754 679 l 1
 1030.10331088 1013.45019531 l 1
 1033.15055186 1029.22167969 1035.29690291 1041.80859375 1035.29690291 1055 c 0
 1035.29690291 1121.91601562 980.599600971 1136.60742188 885.275627538 1136.99707031 c 1
 883.554696748 1141.10058594 881.704792398 1149.3046875 881.704792398 1165 c 0
 881.704792398 1195.43164062 890.374895617 1207 896.057432185 1207 c 0
 1388 1207 l 0
 1391.33105469 1207 1395 1206.83300781 1395 1189 c 0
 1395 1161.36132812 1378.90820312 1137.82617188 1374.96972656 1137 c 1
 1297.32421875 1136.94726562 1222.59179688 1128.22949219 1193.43164062 1004.2890625 c 0
 1014.19336348 217.63671875 l 0
 1011.20964678 204.505859375 1008.94009712 192.544921875 1008.94009712 180.508789062 c 0
 1008.94009712 107.700195312 1078.06030055 97.28515625 1159.29101562 97.0029296875 c 1
 1161.11035156 92.814453125 1163 84.7109375 1163 69 c 0
 1163 38.6396484375 1154.09863281 27 1148.17956784 27 c 0
 664.220720093 27 l 0
 661.215828636 27 657.596869033 27.0673828125 657.596869033 45 c 0
EndSplineSet
EndChar

StartChar: I
Encoding: 73 73 42
Width: 596
Flags: W
HStem: 27 70<-51.9856 95.0783 309.478 434.773> 1137 70.0029<178.227 305.953 517.922 664.986>
LayerCount: 2
Fore
SplineSet
-54 45 m 0
 -54 72.638671875 -37.908203125 96.173828125 -33.9697265625 97 c 0
 43.67578125 97.052734375 118.409179688 105.772460938 147.569335938 229.717773438 c 1
 314.081421761 1015.69335938 l 1
 316.841733022 1031.17578125 318.781958477 1043.50488281 318.781958477 1056.43359375 c 0
 318.781958477 1122.02539062 269.068743454 1136.59960938 181.708007812 1136.99707031 c 1
 179.889648438 1141.18457031 178 1149.2890625 178 1165 c 0
 178 1195.42675781 186.993164062 1207 192.36909089 1207 c 0
 660 1207 l 0
 663.331054688 1207 667 1206.83300781 667 1189 c 0
 667 1161.36132812 650.908203125 1137.82617188 646.969726562 1137 c 1
 569.323242188 1136.94726562 494.59375 1128.24023438 465.427734375 1004.27539062 c 1
 298.966439588 217.557617188 l 0
 296.265955013 204.432617188 294.218041523 192.49609375 294.218041523 180.508789062 c 0
 294.218041523 107.95703125 357.009370155 97.2958984375 431.291015625 97.00390625 c 1
 433.110351562 92.814453125 435 84.7109375 435 69 c 0
 435 38.5732421875 426.006835938 27 420.63090911 27 c 0
 -47 27 l 0
 -50.3310546875 27 -54 27.1669921875 -54 45 c 0
EndSplineSet
EndChar

StartChar: J
Encoding: 74 74 43
Width: 874
Flags: W
HStem: -306 85<116.502 303.84> 664.185 94.3623<345.165 520.754 693.631 826.982> 1275 81<203.828 336.257>
VStem: 103 202.048<984.539 1094.41>
LayerCount: 2
Fore
SplineSet
594.739991148 191.219726562 m 0
 534.13766564 -132.7265625 412.969151968 -306 170.931684184 -306 c 0
 79.044921875 -306 -98.873046875 -268.204101562 -103 -171.63671875 c 1
 -103 -170 l 0
 -103 -120.8984375 -65.416015625 -98 -21 -98 c 0
 47.72265625 -98 128.890625 -221 210.392712602 -221 c 0
 302.420262451 -221 360.638474253 -135.484375 401.002936265 65.9765625 c 0
 520.754485668 664.184570312 l 1
 329.353044373 664.184570312 l 1
 345.165034239 758.546875 l 1
 547.692022503 758.546875 l 1
 611.643709189 1082.91113281 l 1
 592.578407401 1083.82714844 l 0
 530.556264675 1086.80761719 478.692519482 1101.19140625 430.405420338 1139.14355469 c 1
 323.073705401 1248.95507812 l 0
 305.102033752 1267.13378906 283.925550301 1275 263.947305091 1275 c 0
 212.159638515 1275 172.412364296 1214.05371094 162.44035938 1141.70898438 c 0
 161.642484868 1135.91699219 l 1
 163.824990236 1131.13378906 l 0
 195.389058056 1061.96679688 300.634316883 1140.25390625 305.047827737 1034.10253906 c 1
 305.047827737 977.9609375 275.120401196 945.473632812 222.607134797 945.473632812 c 0
 140.244140625 945.473632812 103 1049.40722656 103 1114.47363281 c 0
 103 1245.77929688 200.578570819 1356 326.896655979 1356 c 0
 392.016149458 1356 452.848612787 1328.00488281 492.720465745 1275.41894531 c 0
 493.14365306 1274.86035156 l 1
 493.616291477 1274.3359375 l 0
 598.921462216 1157.25 629.17412485 1145.76757812 652.632966856 1137.82324219 c 0
 666.868164062 1133.03417969 l 1
 672.775390625 1147.32226562 l 0
 690.20703125 1188.32324219 711.193359375 1227.58105469 754.543945312 1284.72558594 c 0
 776.102539062 1313.14355469 810.946289062 1347 847 1347 c 0
 907.221679688 1347 909 1300.2421875 909 1284 c 0
 909 1188.4765625 817.627929688 1131.74707031 759.95703125 1094.82421875 c 0
 753.61328125 1090.76464844 l 1
 693.630859375 754.50390625 l 1
 844.3828125 754.50390625 l 1
 826.982421875 663.15625 l 1
 684.053710938 663.15625 l 1
 594.739991148 191.219726562 l 0
EndSplineSet
EndChar

StartChar: K
Encoding: 75 75 44
Width: 1289
Flags: HW
LayerCount: 2
Fore
SplineSet
311.114101745 180.869140625 m 2
 317.128887369 127.180664062 364.022881441 100.490234375 452.779168429 97.228515625 c 1
 450.434372627 84.220703125 446.307916409 62.7177734375 439.187040634 27 c 1
 -48 27 l 2
 -51.3310546875 27 -55 27.1669921875 -55 45 c 0
 -55 72.638671875 -38.908203125 96.173828125 -34.9697265625 97 c 0
 40.125 97.0478515625 124.303710938 104.950195312 152.590820312 229.807617188 c 2
 326.505187631 1016.38476562 l 1
 326.605129747 1017.30566406 l 2
 327.549774941 1025.95800781 328.631840544 1034.43554688 328.631840544 1043.68261719 c 0
 328.631840544 1102.67578125 291.68785292 1136.43164062 180.709960938 1136.99414062 c 1
 178.888671875 1141.18847656 177 1149.28808594 177 1165 c 0
 177 1196.16992188 187.168945312 1207 188.885742188 1207 c 2
 676.954139842 1207 l 1
 656.852320752 1136.95019531 l 1
 585.549386777 1135.93847656 514.141705776 1121.49902344 487.537883245 1001.98828125 c 1
 417.758105559 667.125 l 1
 859.075582944 1000.67871094 l 2
 880.903325502 1017.68652344 894.594434431 1038.95507812 894.594434431 1062.30859375 c 0
 894.594434431 1104.68945312 852.033507684 1131.23535156 802.907152691 1136.35449219 c 1
 805.584448225 1150.43945312 810.348035434 1174.1171875 817.292090542 1207.30859375 c 1
 1300.01269531 1207.30859375 l 1
 1271.67578125 1126.7109375 l 1
 1209.12695312 1121.32324219 1148.6328125 1096.83007812 1041.14513302 1014.00683594 c 1
 765.194379558 792.4609375 l 1
 741.747382522 775.833007812 727.776627864 755.739257812 727.776627864 731.91015625 c 0
 727.776627864 710.17578125 738.531937132 689.368164062 752.193255623 665.495117188 c 2
 1014.02334126 212.110351562 l 2
 1044.99194351 158.83203125 1086.79003906 102.012695312 1230.28808594 97.19921875 c 1
 1227.86914062 84.2666015625 1223.57617188 62.7060546875 1216.16796875 26.9013671875 c 1
 735.386643419 26.9013671875 l 1
 754.95896149 97.3212890625 l 1
 787.788024679 99.8359375 852.243001735 111.638671875 852.243001735 160.81640625 c 0
 852.243001735 170.069335938 849.202455047 178.1171875 845.661236798 185.47265625 c 2
 588.810959298 700.55859375 l 1
 390.824666241 564.174804688 l 1
 315.298216877 219.732421875 l 2
 312.138508436 206.600585938 311.00454981 193.853515625 311.00454981 182.81640625 c 2
 311.00454981 181.842773438 l 1
 311.114101745 180.869140625 l 2
EndSplineSet
EndChar

StartChar: L
Encoding: 76 76 45
Width: 972
Flags: W
HStem: 27 70<-52.8913 96.5429 297.207 673.409> 1136.99 70.0068<177.226 304.256 532.161 646.638>
LayerCount: 2
Fore
SplineSet
837 319 m 0
 874.609375 319 911.278320312 317.497070312 925.57421875 314.608398438 c 1
 818.201171875 27 l 1
 -48 27 l 0
 -51.3310546875 27 -55 27.1669921875 -55 45 c 0
 -55 70.8173828125 -40.248046875 95.033203125 -35.78125 97 c 1
 40.083984375 97.048828125 122.241210938 105.05859375 151.577148438 229.747070312 c 0
 325.578104874 1016.36230469 l 1
 325.679689044 1017.31738281 l 0
 326.59774411 1025.97070312 327.649662428 1034.44433594 327.649662428 1043.68261719 c 0
 327.649662428 1104.22851562 281.584564318 1136.44433594 180.709960938 1136.99316406 c 1
 178.887695312 1141.18945312 177 1149.28710938 177 1165 c 0
 177 1195.38183594 185.931640625 1207 191.668333366 1207 c 0
 666.187927092 1207 l 1
 646.638196042 1136.94921875 l 1
 577.320766304 1135.94238281 507.840042387 1121.625 481.992092816 1004.25097656 c 0
 297.625369282 156.923828125 l 1
 296.18800075 150.900390625 296.253508299 145.12109375 296.253508299 142.254882812 c 0
 296.253508299 107.353515625 324.221434047 97 341.437577348 97 c 0
 532.393980525 97 l 0
 679.006520169 97 768.66015625 182.350585938 803.361328125 305.384765625 c 0
 803.616210938 306.290039062 l 1
 803.768554688 307.204101562 l 1
 804.634765625 309.84375 818.736328125 319 837 319 c 0
EndSplineSet
EndChar

StartChar: M
Encoding: 77 77 46
Width: 1610
Flags: HW
LayerCount: 2
Fore
SplineSet
445.12480059 97.005859375 m 1
 446.869755546 92.876953125 448.727693198 84.701171875 448.727693198 69 c 0
 448.727693198 38.58984375 440.01354072 27 434.232109993 27 c 2
 -49 27 l 2
 -52.3310546875 27 -56 27.1669921875 -56 45 c 0
 -56 72.638671875 -39.908203125 96.173828125 -35.9697265625 97 c 0
 40.048828125 97.046875 125.170898438 104.758789062 154.571289062 229.72265625 c 2
 333.837811658 1016.24121094 l 1
 333.941137712 1017.078125 l 2
 334.936737358 1025.10253906 336.017315441 1034.49121094 336.017315441 1043.68847656 c 0
 336.017315441 1104.07324219 288.081751503 1135.41308594 182.28515625 1136.95214844 c 1
 180.815429688 1144.32128906 180 1154.04492188 180 1165 c 0
 180 1195.36425781 188.907226562 1207 194.753217095 1207 c 2
 654.545468292 1207 l 1
 736.795904603 241.112304688 l 1
 1261.77337684 1207 l 1
 1669 1207 l 2
 1671.25195312 1207 1676 1206.20019531 1676 1189 c 0
 1676 1161.36132812 1659.90820312 1137.82617188 1655.96972656 1137 c 0
 1584.91210938 1136.94140625 1512.10058594 1127.41503906 1487.37304688 1004.03417969 c 1
 1307.80465125 217.776367188 l 2
 1304.59961224 204.861328125 1303.45240334 192.338867188 1303.45240334 181.489257812 c 2
 1303.45240334 180.517578125 l 1
 1303.56442037 179.544921875 l 2
 1309.96194476 124.103515625 1360.71531643 97.4931640625 1458.29003906 97.005859375 c 1
 1460.11230469 92.8115234375 1462 84.712890625 1462 69 c 0
 1462 38.6650390625 1453.12890625 27 1447 27 c 2
 956.997245871 27 l 2
 953.920640176 27 950.28974331 27.0888671875 950.28974331 45 c 0
 950.28974331 72.056640625 965.528887841 95.8203125 969.701522244 97 c 1
 1045.82578576 97.0498046875 1125.82622481 105.446289062 1154.26696271 232.049804688 c 1
 1375.68793768 1178.05957031 l 1
 742.150511816 81.705078125 l 2
 723.52092077 49.8095703125 698.115265015 35 682.472472907 35 c 0
 666.256076347 35 643.956961874 48.822265625 638.652569192 96.0390625 c 2
 511.661951316 1169.22460938 l 1
 289.764903959 220.880859375 l 1
 284.784008738 204.63671875 285.180896666 192.991210938 285.180896666 183 c 2
 285.180896666 182.025390625 l 1
 285.290982369 181.048828125 l 2
 291.71071704 124.331054688 343.751318898 97.482421875 445.12480059 97.005859375 c 1
EndSplineSet
EndChar

StartChar: N
Encoding: 78 78 47
Width: 1344
Flags: W
HStem: -19 21G<940.885 969.842> 20 70<-51.9856 95.4162 292.141 421.607> 1130 70<172.699 305.171 959.845 1092.6 1285.73 1419.79>
LayerCount: 2
Fore
SplineSet
-47 20 m 0
 -50.3310546875 20 -54 20.1669921875 -54 38 c 0
 -54 65.638671875 -37.908203125 89.173828125 -33.9697265625 90 c 1
 42.5859375 90.0517578125 119.36328125 98.57421875 148.571289062 222.725585938 c 0
 327.139251885 1009.34375 l 1
 327.244201699 1010.30371094 l 0
 328.192601394 1018.95605469 329.279650385 1027.43457031 329.279650385 1036.68261719 c 0
 329.279650385 1098.24316406 275.393216544 1130 177 1130 c 0
 174.385742188 1130 171 1129.53515625 171 1146 c 0
 171 1170.796875 180.302734375 1195.02636719 184.515625 1200 c 1
 593.110002913 1200 l 1
 940.05386821 228.06640625 l 1
 1112.19659702 1007.17480469 l 1
 1112.29962115 1008.13671875 l 0
 1113.24802085 1016.9609375 1114.33314415 1025.59375 1114.33314415 1035 c 0
 1114.33314415 1095.359375 1072.62281442 1130 973.044697805 1130 c 0
 967.659520653 1130 959.642895414 1140.87597656 959.642895414 1172 c 0
 959.642895414 1187.85742188 961.519475115 1196.70703125 962.646963483 1200 c 1
 1416.91015625 1200 l 1
 1418.53222656 1195.42773438 1420 1187.45703125 1420 1172 c 0
 1420 1140.99707031 1411.79785156 1130 1406 1130 c 0
 1336.02832031 1130 1262.15722656 1120.63085938 1237.36523438 994.512695312 c 1
 1014.95915011 -8.5556640625 l 1
 1006.81639253 -13.6884765625 983.075589199 -19 956.608979232 -19 c 0
 925.160623049 -19 892.050401005 -10.3681640625 881.437952844 -3.3994140625 c 1
 471.064923374 1109.60058594 l 1
 273.382801759 212.921875 l 1
 270.207347755 199.78515625 269.069268121 187.0390625 269.069268121 176 c 0
 269.069268121 175.026367188 l 1
 269.179032146 174.051757812 l 0
 275.444247188 118.313476562 322.643741047 90.517578125 418.250133046 90.0068359375 c 1
 419.977472186 85.892578125 421.82612946 77.6982421875 421.82612946 62 c 0
 421.82612946 31.5703125 413.150920067 20 407.457633369 20 c 0
 -47 20 l 0
EndSplineSet
EndChar

StartChar: O
Encoding: 79 79 48
Width: 1190
Flags: W
HStem: -21 105<403.544 671.551> 1168 87<528.085 800.108>
VStem: 77 187<316.293 779.889> 950 190<482.359 928.498>
LayerCount: 2
Fore
SplineSet
651.478374582 1255 m 0
 899.377929688 1255 1140 1042.62988281 1140 691.984375 c 0
 1140 351.6953125 882.252648068 -21 545.685305887 -21 c 0
 314.15625 -21 77 221.359375 77 549.205078125 c 0
 77 907.260742188 324.28109588 1255 651.478374582 1255 c 0
533.406042638 84 m 0
 784.748701653 84 950 458.443359375 950 750.94921875 c 0
 950 975.208984375 856.555987715 1168 657.145213583 1168 c 0
 420.027321332 1168 264 787.404296875 264 494.854492188 c 0
 264 274.697265625 349.159901251 84 533.406042638 84 c 0
EndSplineSet
EndChar

StartChar: P
Encoding: 80 80 49
Width: 1080
Flags: HW
LayerCount: 2
Fore
SplineSet
318.21173254 180.522460938 m 1
 318.321756863 179.5546875 l 2
 324.594100015 124.004882812 372.907215401 97.4736328125 478.54300314 97.005859375 c 1
 480.228767117 92.9296875 482.06091128 84.69140625 482.06091128 69 c 0
 482.06091128 38.5302734375 473.469446743 27 467.961533454 27 c 0
 -49 27 l 0
 -52.3310546875 27 -56 27.1669921875 -56 45 c 0
 -56 72.638671875 -39.908203125 96.173828125 -35.9697265625 97 c 1
 43.8857421875 97.044921875 129.908203125 104.41015625 161.541015625 229.588867188 c 1
 335.257848759 1015.10546875 l 1
 338.272515213 1026.48339844 339.548797361 1037.67089844 339.548797361 1047.60644531 c 0
 339.548797361 1139.81542969 226.892501074 1137 162 1137 c 0
 155.62890625 1137 155 1132.56835938 155 1165 c 0
 155 1195.33496094 163.87109375 1207 170 1207 c 0
 417.368522745 1207 l 0
 1020.828125 1203.06054688 1111 1041.27636719 1111 896.295898438 c 0
 1111 762.506835938 973.176757812 593 585.132653923 593 c 0
 547.608619335 593 539.596935145 610.978515625 539.596935145 632 c 0
 539.596935145 648.79296875 550.130568168 663 567.033174401 663 c 0
 857.265858022 663 928 811.453125 928 900 c 0
 928 984.434570312 856.461245363 1137 536.549739761 1137 c 0
 523.43388371 1137 l 1
 322.461541612 217.729492188 l 1
 319.341634502 204.879882812 318.21173254 192.318359375 318.21173254 181.489257812 c 0
 318.21173254 180.522460938 l 1
EndSplineSet
EndChar

StartChar: Q
Encoding: 81 81 50
Width: 1182
Flags: HW
LayerCount: 2
Fore
SplineSet
646.4851766 1255 m 0
 893.393554688 1255 1133 1043.60742188 1133 694.982421875 c 0
 1133 356.752929688 875.29234494 -14 540.743974949 -14 c 0
 539.849098752 -14 534.350232243 -13 528.470161817 -13 c 0
 522.790223447 -13 l 1
 380.17707288 -131.426757812 l 1
 403.292325425 -143.264648438 l 0
 490.162027142 -187.752929688 557.810474333 -210 622.881983041 -210 c 0
 684.290122103 -210 739.408396526 -188.430664062 798.348240223 -151.587890625 c 0
 798.722773071 -151.353515625 l 1
 799.104929999 -151.083984375 l 0
 808.554975112 -144.411132812 813.657389547 -143 822.091526221 -143 c 0
 853.093887817 -143 887.013412391 -178.052734375 887.013412391 -211 c 0
 887.013412391 -224.751953125 879.819141459 -241.07421875 863.05569919 -254.602539062 c 1
 783.967322437 -319.865234375 716.178782807 -341 656.87107733 -341 c 0
 520.675494715 -341 423.593340048 -218 326.42922654 -218 c 0
 269.965820312 -218 227.3359375 -278.69140625 209.624023438 -306.420898438 c 1
 136.581054688 -232.6171875 l 1
 171.479492188 -145.9453125 310.47265625 -97.6943359375 390.663992649 0.267578125 c 0
 404.944844407 17.8232421875 l 1
 384.996443407 27.37890625 l 0
 214.416992188 106.296875 75 305.689453125 75 555.985351562 c 0
 75 910.602539062 321.313469968 1255 646.4851766 1255 c 0
529.414594522 90 m 0
 779.716898757 90 943 462.4921875 943 753.953125 c 0
 943 976.124023438 850.578894972 1169 652.149866813 1169 c 0
 416.120790257 1169 260 790.4609375 260 498.850585938 c 0
 260 279.618164062 345.322645698 90 529.414594522 90 c 0
EndSplineSet
EndChar

StartChar: R
Encoding: 82 82 51
Width: 1197
Flags: W
HStem: -20 126.568<927.906 1093.23> 27 70<-52.9856 97.5744 334.271 469.875> 590 72<626.975 757.128> 1137 70<177.225 306.433 516.22 806.766>
VStem: 966 165<803.254 1027.47>
LayerCount: 2
Fore
SplineSet
466.568883825 97.005859375 m 1xb8
 468.25941386 92.92578125 470.092576383 84.6923828125 470.092576383 69 c 0
 470.092576383 38.5341796875 461.493464662 27 455.970045467 27 c 2
 -48 27 l 2
 -51.3310546875 27 -55 27.1669921875 -55 45 c 0
 -55 72.638671875 -38.908203125 96.173828125 -34.9697265625 97 c 0x78
 41.244140625 97.048828125 123.236328125 105.040039062 152.578125 229.754882812 c 1
 328.138788542 1016.359375 l 1
 328.2412159 1017.30957031 l 2
 329.176463829 1025.96191406 330.248600657 1034.43847656 330.248600657 1043.68261719 c 0
 330.248600657 1104.28125 283.341657161 1136.44628906 180.709960938 1136.99316406 c 1
 178.887695312 1141.18945312 177 1149.28710938 177 1165 c 0
 177 1195.36914062 185.9140625 1207 191.758197678 1207 c 2
 539.907829195 1207 l 2
 1025.1953125 1207 1131 1061.09082031 1131 913.950195312 c 0
 1131 767.4375 1001.19824219 590 649.598913894 590 c 2
 626.97491229 590 l 1
 634.01176749 567.227539062 l 2
 678.245069771 424.120117188 774.647401391 189.651367188 1019.79882812 106.568359375 c 0
 1067.11425781 91.0361328125 1103 68.103515625 1103 32.58203125 c 0
 1103 4.2001953125 1085.94140625 -20 1025 -20 c 0
 657.798846099 -20 528.84663183 467.65625 516.246152304 624.681640625 c 1
 516.246152304 630.11328125 l 2
 516.246152304 647.456054688 526.878494938 662 543.723487585 662 c 0
 805.84849762 662 966 784.935546875 966 917.61328125 c 0
 966 1037.40429688 834.904362927 1139.01171875 586.645336782 1139.01171875 c 0
 568.046634609 1139.01171875 548.84677 1137.99316406 528.961503633 1137 c 2
 516.220306148 1137 l 1
 314.106240539 217.778320312 l 2
 310.976941172 204.90625 309.848325707 192.354492188 309.848325707 181.517578125 c 2
 309.848325707 180.549804688 l 1
 309.958411185 179.58203125 l 2
 316.262001375 123.801757812 367.388569102 97.4814453125 466.568883825 97.005859375 c 1xb8
EndSplineSet
EndChar

StartChar: S
Encoding: 83 83 52
Width: 961
Flags: HW
LayerCount: 2
Fore
SplineSet
845 236 m 0
 845 74.0380859375 724.651367188 -21 556.77623922 -21 c 0
 460.11916151 -21 359.666098121 87 257 87 c 0
 194.774414062 87 199.103515625 41 160 41 c 0
 113.923828125 41 82.0419921875 51.9052734375 76.9287109375 111.55078125 c 1
 72.896484375 152.890625 50 345.587890625 50 398 c 0
 50 408.405273438 51.6494140625 411.625 51.6494140625 411.625 c 1
 52.271484375 411.93359375 57.03515625 412 66 412 c 0
 192.461914062 412 280.473632812 113 516.181643853 113 c 0
 593.759742841 113 674.250864638 154.58203125 674.250864638 250 c 0
 674.250864638 263.05078125 671.483115636 273.092773438 671.483115636 278 c 0
 671.483115636 279.43359375 l 1
 671.257658236 280.846679688 l 0
 626.745386794 559.6015625 230 650.927734375 230 941 c 0
 230 1093.53222656 350.562901846 1189 505.109704508 1189 c 0
 583.015141228 1189 659.721597382 1103 757 1103 c 0
 811.87890625 1103 811.278320312 1148 830 1148 c 0
 855.923828125 1148 887.962890625 1133.65722656 907.477539062 1112.85644531 c 1
 911.129882812 1096.40722656 918.4375 1054.97363281 920.258789062 1044.04492188 c 0
 935.200195312 959.375976562 939 919.538085938 939 835 c 0
 939 812.729492188 938.198242188 802.010742188 937.38671875 799.827148438 c 1
 935.795898438 799.610351562 931.379882812 800 925 800 c 0
 823.524414062 800 736.903320312 1055 529.097805862 1055 c 0
 459.757863668 1055 393.170577094 1023.66699219 393.170577094 942 c 0
 393.170577094 933.499023438 394.460117955 924.594726562 396.228873707 915.748046875 c 1
 438.914845876 645.674804688 845 572.23046875 845 236 c 0
EndSplineSet
EndChar

StartChar: T
Encoding: 84 84 53
Width: 1117
Flags: HW
LayerCount: 2
Fore
SplineSet
524.774571626 180.5234375 m 1
 524.883518016 179.555664062 l 2
 531.158447767 123.840820312 582.062214627 97.4833984375 679.956279365 97.0068359375 c 1
 681.636347368 92.9345703125 683.465499903 84.6904296875 683.465499903 69 c 0
 683.465499903 41.6416015625 671.733693989 27 664.65886838 27 c 2
 137.923828125 27 l 2
 134.592773438 27 130.923828125 27.1669921875 130.923828125 45 c 0
 130.923828125 72.638671875 147.014648438 96.173828125 150.954101562 97 c 0
 226.923828125 97.0390625 327.471705071 103.407226562 354.683454955 229.80859375 c 2
 552.036972025 1137 l 1
 322.570073226 1137 l 2
 276.388671875 1137 235.784179688 1056.37207031 157.704101562 923.31640625 c 1
 141.903320312 899.19921875 119.129882812 891 104.923828125 891 c 0
 72.1884765625 891 56.23046875 910.181640625 55 915.500976562 c 0
 55.3203125 916.448242188 55.7353515625 917.674804688 56.0517578125 918.624023438 c 2
 56.30859375 919.395507812 l 1
 122.45703125 1207 l 1
 1186.9140625 1207 l 1
 1126.92382812 925.79296875 l 1
 1126.92382812 924.374023438 l 1
 1124.0078125 917.190429688 1093.02636719 891 1054.92382812 891 c 0
 1040.92089844 891 1026.34765625 897.6953125 1021.44921875 917.989257812 c 1
 1004.28515625 1042.65429688 999.16015625 1137 946.036132812 1137 c 2
 731.417201883 1137 l 1
 529.017746786 218.727539062 l 2
 525.848744797 205.645507812 524.774571626 192.305664062 524.774571626 181.489257812 c 2
 524.774571626 180.5234375 l 1
EndSplineSet
EndChar

StartChar: U
Encoding: 85 85 54
Width: 1297
Flags: W
HStem: -21 129<460.747 734.086> 1130 70.0039<129.224 271.559 496.68 637.903 916.12 1052.66 1226.89 1373.99>
VStem: 161 170<238.055 647.608>
LayerCount: 2
Fore
SplineSet
639.838732356 1182 m 0
 639.838732356 1154.91210938 624.800035617 1131.15136719 620.796108451 1130 c 1
 546.450199374 1129.94628906 473.706436439 1120.96191406 446.812241759 994.548828125 c 0
 340.39453125 476.641601562 l 1
 334.1796875 448.672851562 331 421.370117188 331 396 c 0
 331 221.250976562 463.127094403 108 606.501436492 108 c 0
 748.657150365 108 898.963578996 217.57421875 952.88236445 469.475585938 c 0
 1063.00282582 1006.58691406 l 1
 1065.96646061 1022.06835938 1068.12374895 1034.88867188 1068.12374895 1048 c 0
 1068.12374895 1114.89257812 1013.8722617 1129.60742188 919.43864236 1129.99707031 c 1
 917.74157553 1134.07910156 915.902607067 1142.30761719 915.902607067 1158 c 0
 915.902607067 1188.45605469 924.522172492 1200 930.091811597 1200 c 0
 1369 1200 l 0
 1371.25195312 1200 1376 1199.20019531 1376 1182 c 0
 1376 1154.36132812 1359.90820312 1130.82617188 1355.96972656 1130 c 1
 1278.27148438 1129.94726562 1203.56835938 1121.06445312 1174.41113281 994.71484375 c 1
 1076.79604809 536.719726562 l 0
 989.970465647 142.40625 755.291051719 -21 549.059080077 -21 c 0
 346.770507812 -21 161 132.385742188 161 390 c 0
 161 433.4375 166.821289062 479.357421875 177.602539062 529.345703125 c 0
 282.637695312 1006.50585938 l 1
 285.755859375 1022.09667969 288 1034.83984375 288 1048 c 0
 288 1115.31835938 229.90234375 1129.74707031 132.708984375 1129.99609375 c 1
 130.889648438 1134.18554688 129 1142.2890625 129 1158 c 0
 129 1188.33496094 137.87109375 1200 144 1200 c 0
 633.307422048 1200 l 0
 636.231746246 1200 639.838732356 1199.95800781 639.838732356 1182 c 0
EndSplineSet
EndChar

StartChar: V
Encoding: 86 86 55
Width: 1196
Flags: HW
LayerCount: 2
Fore
SplineSet
1269.3984375 1207 m 1
 1271.60449219 1202.81152344 1275 1193.87304688 1275 1178 c 0
 1275 1149.56542969 1267.44335938 1137 1261 1137 c 0
 1196.42871094 1137 1119.93457031 1121.94921875 1041.92578125 1007.53515625 c 1
 392.211454045 7 l 1
 240.1328125 7 l 1
 248 1017 l 0
 248 1102.91210938 190.719726562 1137 63 1137 c 0
 59.2548828125 1137 56 1137.13671875 56 1156 c 0
 56 1179.27050781 64.9658203125 1201.328125 68.654296875 1207 c 1
 566.521013558 1207 l 1
 568.543613048 1201.76171875 571.174621197 1190.30761719 571.174621197 1177 c 0
 571.174621197 1147.97363281 564.770521246 1137 558.92692376 1137 c 0
 483.598266937 1137 396.373544138 1128.88476562 395.306194147 998.204101562 c 0
 387.658449412 204.830078125 l 1
 903.257480341 1007.49316406 l 0
 917.948393648 1030.03808594 929.004184989 1050.79003906 929.004184989 1073 c 0
 929.004184989 1116.39941406 902.0837786 1137 810.306051168 1137 c 0
 807.002440063 1137 803.792725097 1137.01171875 803.792725097 1156 c 0
 803.792725097 1179.26953125 812.426379294 1201.4765625 815.859337122 1207 c 1
 1269.3984375 1207 l 1
EndSplineSet
EndChar

StartChar: W
Encoding: 87 87 56
Width: 1841
Flags: HW
LayerCount: 2
Fore
SplineSet
1915.3984375 1207 m 1
 1917.60449219 1202.81152344 1921 1193.87304688 1921 1178 c 0
 1921 1149.56542969 1913.44335938 1137 1907 1137 c 0
 1843.93945312 1137 1755.78027344 1128.75292969 1687.18359375 1006.33398438 c 2
 1130.55363094 7 l 1
 977.447144269 7 l 1
 898.447395343 834.326171875 l 1
 447.449244783 7 l 1
 294.931543685 7 l 1
 234.000976562 1017.32128906 l 1
 233.650390625 1103.45410156 178.267578125 1137 49 1137 c 0
 45.2548828125 1137 42 1137.13671875 42 1156 c 0
 42 1179.27050781 50.9658203125 1201.328125 54.654296875 1207 c 1
 558.049086641 1207 l 1
 560.492208404 1200.28808594 562.681059877 1190.15722656 562.681059877 1177 c 0
 562.681059877 1147.44824219 555.436773619 1137 550.537961599 1137 c 0
 476.270733857 1137 387.2326259 1128.96875 385.020571055 998.291015625 c 2
 385.009936176 997.677734375 l 1
 427.854963508 218.681640625 l 1
 856.780905972 1008.79101562 l 2
 870.584012192 1034.63574219 878.855047683 1055.73632812 878.855047683 1075 c 0
 878.855047683 1129.86425781 820.280067405 1137 763.20653869 1137 c 0
 760.032510693 1137 756.785005349 1137 756.785005349 1156 c 0
 756.785005349 1178.97070312 764.827874344 1200.29492188 768.809186343 1207 c 1
 1219.99199708 1207 l 1
 1222.17601451 1202.81152344 1225.53760311 1193.87304688 1225.53760311 1178 c 0
 1225.53760311 1149.56542969 1218.05644909 1137 1211.67745526 1137 c 2
 1197.39191226 1137 l 2
 1147.91555442 1137.01171875 1030.50552273 1134.5234375 1030.50552273 1025 c 0
 1030.50552273 1020.21777344 1030.83617079 1013.77539062 1031.65022244 1008.51074219 c 2
 1103.83301389 210.784179688 l 1
 1545.1128186 1008.63476562 l 2
 1557.2994232 1030.4140625 1571.05128864 1049.62304688 1571.05128864 1073 c 0
 1571.05128864 1116.52246094 1543.22657777 1137 1448.28997916 1137 c 0
 1444.5822736 1137 1441.35990524 1137.13671875 1441.35990524 1156 c 0
 1441.35990524 1179.27050781 1450.23616203 1201.328125 1453.88779278 1207 c 1
 1915.3984375 1207 l 1
EndSplineSet
EndChar

StartChar: X
Encoding: 88 88 57
Width: 1293
Flags: HW
LayerCount: 2
Fore
SplineSet
-29.599609375 82.630859375 m 2
 -32.0859375 92.234375 -34 107.150390625 -34 119 c 0
 -34 150.639648438 -7.599609375 135.576171875 48.3779296875 154.752929688 c 0
 176.737304688 207.421875 538.635925818 513.198242188 538.635925818 634 c 0
 538.635925818 638 l 0
 538.635925818 649.140625 532.340360825 680.265625 525.090077438 691.760742188 c 1
 353.200385827 990.325195312 l 0
 279.637074228 1113.34277344 164 1004.6796875 164 1139 c 0
 164 1167.32714844 169.571289062 1178 182 1178 c 0
 662.891611315 1178 l 1
 664.701057454 1161.046875 665.530787538 1149.64550781 665.530787538 1138 c 0
 665.530787538 1035.34570312 560.503111251 1105.09765625 560.503111251 1005 c 0
 560.503111251 960.559570312 612.014639299 770 706.147180811 770 c 0
 758.694188929 770 874.103586475 913.247070312 956.125722266 990.516601562 c 0
 962.370330488 996.262695312 l 1
 961.556945029 1000.32617188 l 0
 952.464526253 1095.48828125 880.696239065 1035.87207031 880.696239065 1118 c 0
 880.696239065 1155.5546875 890.597236057 1177.22167969 893.093156448 1178 c 1
 1341.56738281 1178 l 1
 1343.55761719 1154.4296875 1346.43945312 1114.46582031 1348.10546875 1095.70507812 c 1
 1280.54492188 1048.81054688 792.719852509 729.370117188 792.719852509 595 c 0
 792.719852509 481.34765625 953.454818242 261.319335938 1027.59788331 181.412109375 c 0
 1103.25976562 103.709960938 1186 197.185546875 1186 76 c 0
 1186 34.5615234375 1176.546875 19 1174 19 c 0
 746.61551101 19 l 0
 691.262996073 19 692.804198071 16.689453125 692.804198071 64 c 0
 692.804198071 123.447265625 794.94079862 124.92578125 794.94079862 198 c 0
 794.94079862 245.546875 718.259509429 450 634.844234713 450 c 0
 628.331382351 450 614.886486067 447.1171875 614.075023505 447 c 1
 608.076546108 447 l 1
 603.308722834 442.40625 l 0
 576.324708309 415.645507812 454.289968923 296.649414062 428.467384226 269.071289062 c 0
 409.07977456 250.62109375 388.991268913 241.842773438 388.991268913 215 c 0
 388.991268913 126.836914062 455.476396413 146.302734375 455.476396413 72 c 0
 455.476396413 58.43359375 453.590995839 49.037109375 449.565410832 40.2275390625 c 1
 380.238241469 33.96875 127.883789062 21.8671875 71.13671875 18.978515625 c 1
 8.3857421875 18.978515625 -21.1611328125 24.6923828125 -29.2041015625 81.5439453125 c 0
 -29.349609375 81.7177734375 l 1
 -29.599609375 82.630859375 l 2
EndSplineSet
EndChar

StartChar: Y
Encoding: 89 89 58
Width: 1136
Flags: W
HStem: 27 70<144.014 289.485 512.263 646.334> 1137 70<27.4585 173.724 383.497 512.843 745.631 862.809 1075.82 1214.85>
LayerCount: 2
Fore
SplineSet
1209.3984375 1207 m 1
 1211.60449219 1202.81152344 1215 1193.87304688 1215 1178 c 0
 1215 1149.56542969 1207.44335938 1137 1201 1137 c 0
 1136.32226562 1137 1060.34179688 1121.84667969 982.513671875 1010.76953125 c 1
 544.579558906 456.563476562 l 1
 499.994979985 217.39453125 l 2
 496.990827 205.876953125 494.861688619 195.399414062 494.861688619 184.431640625 c 0
 494.861688619 108.765625 558.807641015 97.296875 643.028275347 97.00390625 c 1
 644.71607704 92.9287109375 646.551310077 84.6904296875 646.551310077 69 c 0
 646.551310077 38.5341796875 637.950510072 27 632.425664032 27 c 2
 149 27 l 2
 145.668945312 27 142 27.1669921875 142 45 c 0
 142 72.638671875 158.091796875 96.173828125 162.030273438 97 c 0
 239.711914062 97.0517578125 312.4039114 105.594726562 340.338321834 230.051757812 c 1
 379.265940913 444.173828125 l 1
 217.3359375 1023.81347656 l 2
 195.845703125 1097.58789062 164.716796875 1137 33 1137 c 0
 29.2548828125 1137 26 1137.13671875 26 1156 c 0
 26 1179.27050781 34.9658203125 1201.328125 38.654296875 1207 c 1
 507.664281948 1207 l 1
 509.701515075 1202.94726562 512.988085246 1193.86523438 512.988085246 1178 c 0
 512.988085246 1149.44238281 505.634707592 1137 499.815956209 1137 c 0
 450.897470161 1137 358.436955416 1129.875 358.436955416 1039 c 0
 358.436955416 1025.20214844 360.782454081 1009.96582031 365.778844912 993.206054688 c 2
 487.933372765 539.143554688 l 1
 843.173027198 1006.98046875 l 1
 843.509055782 1007.49609375 l 2
 858.172730501 1030.04101562 869.20710504 1050.79296875 869.20710504 1073 c 0
 869.20710504 1116.39453125 842.334391756 1137 750.724000609 1137 c 0
 747.438387784 1137 744.230320017 1137.00683594 744.230320017 1156 c 0
 744.230320017 1179.26953125 752.85026695 1201.48242188 756.273737656 1207 c 1
 1209.3984375 1207 l 1
EndSplineSet
EndChar

StartChar: Z
Encoding: 90 90 59
Width: 1037
Flags: HW
LayerCount: 2
Fore
SplineSet
1054.59863281 1232 m 1
 1055.95898438 1229.12597656 1058 1222.52246094 1058 1209 c 0
 1058 1164.90039062 1038.23730469 1088.65527344 1026.68554688 1070.171875 c 1
 898.53515625 875.03515625 337.573419817 209.541992188 325.379376078 194.98046875 c 1
 306.570175627 176.778320312 299.907352416 163.743164062 299.907352416 148 c 0
 299.907352416 103.809570312 361.930047405 104 378.549448898 104 c 0
 566.572813647 104 l 0
 714.574432622 104 799.856472395 189.428710938 833.374023438 312.4296875 c 0
 833.625976562 313.34765625 l 1
 833.768554688 314.204101562 l 1
 834.634765625 316.84375 848.736328125 326 867 326 c 0
 904.609375 326 941.278320312 324.497070312 955.57421875 321.608398438 c 1
 848.201171875 34 l 1
 32 34 l 0
 18.6806640625 34 -8 66.080078125 -8 94 c 0
 -8 103.30078125 -6.5908203125 106.368164062 -3.9794921875 108.978515625 c 0
 -3.486328125 109.471679688 l 1
 -3.033203125 110.006835938 l 0
 191.923828125 339.956054688 562.957786373 793.040039062 841.909179688 1133.93945312 c 1
 866.102539062 1162 l 1
 492.875639757 1162 l 0
 344.874974112 1162 259.587214359 1076.5703125 226.5390625 953.55859375 c 0
 226.294921875 952.663085938 l 1
 226.149414062 951.76171875 l 1
 225.311523438 949.166015625 211.27734375 940 193 940 c 0
 155.390625 940 118.721679688 941.502929688 104.42578125 944.391601562 c 1
 211.798828125 1232 l 1
 1054.59863281 1232 l 1
EndSplineSet
EndChar

StartChar: bracketleft
Encoding: 91 91 60
Width: 946
Flags: HW
LayerCount: 2
Fore
SplineSet
346.663457413 1445.63176557 m 0
 351.301650746 1469.48533128 407.456273429 1507 434 1507 c 0
 586.371501263 1507 739.371940442 1512 891 1512 c 0
 930.778635343 1512 959 1497.0428998 959 1471 c 0
 959 1417.30957633 910.058105803 1397 864 1397 c 0
 458.178653833 1397 l 1
 455.357822267 1383.46957062 l 0
 396.507917576 1101.18951931 318.513194844 819.202880154 258.370019873 535.527571542 c 0
 216.335912783 337.366780975 177.320465883 139.285291714 138.320479358 -58.7146398736 c 0
 134.291331373 -79.1703142589 l 1
 155.139339582 -78.9994289457 l 0
 277.503922392 -77.996440562 402.460330758 -73 524 -73 c 0
 540.814985224 -73 564 -102.606461399 564 -132 c 0
 564 -183.271880997 521.501206026 -197 476 -197 c 0
 335.216740547 -197 198.211670539 -182 55 -182 c 0
 22.5704544585 -182 19 -172.095550756 19 -152 c 0
 19 -144.53934078 20.8305212068 -133.423835774 22.7079692433 -122.159147555 c 1
 51.435579286 13.5540447153 86.576274334 151.218834129 115.637629413 288.508683983 c 0
 196.705959402 674.834305907 265.723185568 1059.91639603 346.663457413 1445.63176557 c 0
EndSplineSet
EndChar

StartChar: backslash
Encoding: 92 92 61
Width: 480
Flags: HW
LayerCount: 2
Fore
SplineSet
94.8631410653 1369.18009957 m 1
 113.832812879 1379.8656807 133.544137053 1383.86684258 152.780580788 1384.80740315 c 1
 196.780242861 1323.09085082 193.217679222 1226.28498823 208.227926479 1139.22555415 c 0
 385.231303295 69.2052172158 l 0
 387.08029977 58.1112383627 388 47.1319278507 388 35 c 0
 388 -6.10249171862 378.385079462 -58.3183239397 372.926072321 -100 c 1
 369 -100 l 0
 354.249138251 -100 338.430680054 -99.529812826 327.591354559 -97.7746539753 c 1
 313.136311045 -45.9932537151 305.46552437 2.33229686835 298.857418149 55.1971466352 c 0
 241.192437814 497.626737137 135.253759105 927.206216888 94.8631410653 1369.18009957 c 1
EndSplineSet
EndChar

StartChar: bracketright
Encoding: 93 93 62
Width: 893
Flags: HW
LayerCount: 2
Fore
SplineSet
52 -197 m 0
 9.28623489595 -197 -6 -189.259576518 -6 -164 c 0
 -6 -83.823130577 80.8382992308 -71 143 -71 c 0
 190.872831402 -71 236.915853369 -80 289 -80 c 0
 447.636917308 -80 l 1
 450.595180023 -66.6878177829 l 0
 494.598082511 131.325243415 538.609201652 330.374473219 580.630341508 528.474132542 c 0
 640.764456867 812.106709984 683.76882764 1094.1479074 741.653839703 1376.58684557 c 0
 745.837454391 1397 l 1
 319 1397 l 0
 288.618593664 1397 269 1415.40473892 269 1442 c 0
 269 1490.22363874 322.936843536 1512 368 1512 c 0
 519.628059094 1512 672.628499201 1507 825 1507 c 0
 847.213521298 1507 878.449396263 1477.67258967 878.991355219 1457.62075461 c 1
 878.589685814 1455.36727834 878.292278997 1453.15322395 878.034651544 1450.94067261 c 1
 807.422557065 1116.82913894 730.259120822 779.010180684 658.374018042 443.546367711 c 0
 562.604849891 -5.43596899719 584.42959959 -182 480 -182 c 0
 336.829628673 -182 189.799888542 -197 52 -197 c 0
EndSplineSet
EndChar

StartChar: asciicircum
Encoding: 94 94 63
Width: 934
Flags: HW
LayerCount: 2
Fore
SplineSet
655.785549137 1358.2154641 m 1
 723.786922529 1166.59028823 811.703194975 942.481008721 857.94385327 749.116136851 c 1
 833.739293505 742.016499746 812.143053428 739.741207246 790.270058567 739.120452296 c 1
 704.157640495 876.97053182 654.056263578 1046.05529721 589.677304491 1199.5743535 c 0
 579.035159334 1224.95177656 l 1
 561.104315244 1204.07706255 l 0
 428.230680138 1049.38835302 304.254920706 884.449416052 162.91347626 739.075481092 c 1
 140.744717027 739.573990508 122.136972905 742.029496638 104.180712968 746.947128613 c 1
 217.590377309 918.118816453 386.464342458 1124.85214879 512.576023117 1289.7674235 c 1
 536.524689404 1322.00601273 567.377339134 1351.86289838 600.123027131 1374.89216353 c 1
 624.195643656 1373.67901348 641.687706531 1367.4016219 655.785549137 1358.2154641 c 1
EndSplineSet
EndChar

StartChar: underscore
Encoding: 95 95 64
Width: 1101
Flags: HW
LayerCount: 2
Fore
SplineSet
937.524493416 -116.705787585 m 0
 902.977962399 -128.447933243 862.217686515 -130 824 -130 c 0
 161.722784541 -130 l 1
 137.375874457 -118.332514558 132 -110.684957697 132 -90 c 0
 132 -86.9790273046 132.119331933 -83.1647178596 132.253073483 -80.6534528435 c 1
 177.394674973 -66.0970396404 228.060806736 -66 274 -66 c 0
 908.821999838 -66 l 1
 929.825887774 -77.6351477963 938 -89.5352198656 938 -110 c 0
 938 -111.296862416 937.583269224 -116.180295361 937.524493416 -116.705787585 c 0
EndSplineSet
EndChar

StartChar: quoteleft
Encoding: 8216 8216 65
Width: 466
Flags: HW
LayerCount: 2
Fore
SplineSet
327.978479491 1210.96726314 m 1
 397.141186399 1125.66659128 l 1
 335.32729021 1084.26806586 297 1064.782851 297 1002 c 0
 297 964.14321738 332.166139839 889.264443904 344.930848282 854.246737056 c 1
 342.864140837 815.387064097 304.498451849 777 250 777 c 0
 176.485897133 777 122 839.577532883 122 931 c 0
 122 1043.12654512 229.063144273 1151.35638426 327.978479491 1210.96726314 c 1
EndSplineSet
EndChar

StartChar: a
Encoding: 97 97 66
Width: 1160
Flags: W
HStem: -21 128<780.081 916.511> -20 110<292.402 474.448> 850 42<484.364 633.852>
VStem: 66 167<152.783 550.439> 664.497 132.817<112.176 343.049>
LayerCount: 2
Fore
SplineSet
665.376888197 184.481445312 m 0xb8
 672.077204711 262.465820312 l 1
 635.001420862 194.405273438 l 0
 558.81535182 54.5439453125 439.678804798 -20 332.559544294 -20 c 0x78
 196.321289062 -20 66 82.0791015625 66 322 c 0
 66 608.740234375 270.814453125 892 530.078735379 892 c 0
 650.864620416 892 728.299610151 834.405273438 750.364511316 716.733398438 c 0
 762.842277754 650.192382812 l 1
 813.006941144 820.693359375 l 1
 821.859977448 847.094726562 836.956663844 865 868.412304573 865 c 0
 915.4140625 865 952 828.8671875 952 786 c 0
 952 780.022460938 949.279296875 767.743164062 947.526367188 759.305664062 c 1
 855.731469351 470.162109375 l 0
 826.355138569 373.90234375 797.314395639 273.375 797.314395639 201 c 0
 797.314395639 153.1875 811.952508864 107 858.962455785 107 c 0
 936.627929688 107 1043.03710938 264.836914062 1078.91992188 310.20703125 c 1
 1133.13183594 264.125976562 l 1
 1124.92773438 252.543945312 l 1
 1063.171875 157.37890625 926.426757812 -21 790.91725224 -21 c 0
 769.2451414 -21 664.496923465 -3.6982421875 664.496923465 156 c 0
 664.496923465 166.029296875 664.504550461 174.321289062 665.376888197 184.481445312 c 0xb8
565.046608043 850 m 0
 416.849297224 850 233 631.209960938 233 346 c 0
 233 329.046875 232.966796875 310.356445312 235.0859375 291.280273438 c 1
 247.384765625 158.051757812 306.545898438 90 385.483273704 90 c 0
 557.849583375 90 729.705837649 370.850585938 729.705837649 617 c 0
 729.705837649 757.15625 656.784123152 850 565.046608043 850 c 0
EndSplineSet
EndChar

StartChar: b
Encoding: 98 98 67
Width: 991
Flags: HW
LayerCount: 2
Fore
SplineSet
603.315107235 835 m 0
 387.899799688 835 253 563.119140625 253 345.999023438 c 0
 253 331.28125 254.04296875 317.029296875 255.046875 303.080078125 c 0
 262.202148438 208.8359375 306.149414062 90 431.243980915 90 c 0
 638.869874851 90 772 368.03125 772 571.068359375 c 0
 772 677.236328125 729.33984375 835 603.315107235 835 c 0
457.787392397 1415 m 0
 484.642869201 1415 489.491161152 1410.04394531 489.491161152 1383 c 0
 489.491161152 1364.01464844 484.371221978 1335.66796875 476.260343488 1299.23632812 c 1
 347.696010747 796.588867188 l 1
 386.398690295 830.806640625 l 0
 441.909659235 879.88671875 533.269601953 919.334960938 623.451780069 919.334960938 c 0
 813.603515625 919.334960938 935 758.038085938 935 543.9921875 c 0
 935 241.697265625 695.798828125 -20 424.837242268 -20 c 0
 253.103515625 -20 84 123.680664062 84 313.833007812 c 0
 84 573.908203125 227.037109375 910.55859375 318.46484375 1275.76855469 c 0
 323.921875 1297 l 1
 143 1297 l 0
 117.435546875 1297 116 1302.15429688 116 1309 c 0
 116 1327.55761719 133.323242188 1376.82617188 143.118164062 1378.13183594 c 1
 440.540143653 1414.13183594 l 1
 446.945002389 1415.00683594 451.293237862 1415 457.787392397 1415 c 0
EndSplineSet
EndChar

StartChar: c
Encoding: 99 99 68
Width: 915
Flags: W
HStem: -21 120<330.88 614.726> 826 66<410.284 584.153>
VStem: 61 170<207.08 593.712>
LayerCount: 2
Fore
SplineSet
504.172753622 826 m 0
 342.507314345 826 231 585.317382812 231 388 c 0
 231 238.53125 302.889648438 99 461.771275269 99 c 0
 611.77734375 99 702.38671875 205.427734375 781.815429688 306.083007812 c 1
 856.927734375 246.588867188 l 1
 757.6640625 106.54296875 612.482421875 -21 446.434629925 -21 c 0
 238.391601562 -21 61 150.015625 61 389 c 0
 61 657.732421875 267.572265625 892 516.802822302 892 c 0
 617.092773438 892 837 821.161132812 837 688 c 0
 837 644.327148438 814.970703125 623 765 623 c 0
 677.090820312 623 627.779296875 826 504.172753622 826 c 0
EndSplineSet
EndChar

StartChar: d
Encoding: 100 100 69
Width: 1194
Flags: HW
LayerCount: 2
Fore
SplineSet
1110.5625 332.8828125 m 1
 1169.80078125 286.845703125 l 1
 1080.62207031 153.873046875 972.424804688 -20 812.314525045 -20 c 0
 727.914642191 -20 684.423962171 41.7392578125 684.423962171 151 c 0
 684.423962171 175.286132812 688.014918227 203.139648438 694.444257633 232.181640625 c 0
 724.501323855 367.944335938 l 1
 663.959332818 243.690429688 l 0
 593.035085589 98.12890625 478.584821804 -20 331.249613903 -20 c 0
 143.346679688 -20 57 195.686523438 57 351.708984375 c 0
 57 644.971679688 260.854492188 921.599609375 537.148921885 921.599609375 c 0
 622.185817422 921.599609375 728.501992716 856.444335938 749.923573656 760.9453125 c 1
 749.923573656 757.759765625 900.083794326 1192.15039062 900.083794326 1192.15039062 c 1
 906.165498625 1214 l 1
 733.560847564 1214 l 0
 709.155716965 1214 707.196926839 1219.59082031 707.196926839 1226 c 0
 707.196926839 1244.21777344 724.552896096 1293.84667969 733.711744122 1295.13378906 c 1
 1031.10839844 1331.13085938 l 0
 1038.05078125 1331.99902344 1042.93554688 1332 1050 1332 c 0
 1078.80859375 1332 1084 1326.80566406 1084 1298 c 0
 1084 1279.59765625 1079.38476562 1251.70410156 1069.61132812 1216.51855469 c 0
 825.005116553 295.139648438 l 1
 821.355902966 280.311523438 804.520431329 224.551757812 804.520431329 176.50390625 c 0
 804.520431329 137.041992188 823.765472681 90.251953125 876.83617403 90.251953125 c 0
 949.353515625 90.251953125 1009.94238281 190.537109375 1110.5625 332.8828125 c 1
553.279572892 840 m 0
 372.616281618 840 249 569.766601562 249 327.623046875 c 0
 249 310.375 248.954101562 291.35546875 251.084960938 272.900390625 c 1
 259.239257812 176.340820312 307.162512125 75 403.361932764 75 c 0
 567.680643734 75 727.121957742 335.713867188 727.121957742 581.264648438 c 0
 727.121957742 728.262695312 665.399535406 840 553.279572892 840 c 0
EndSplineSet
EndChar

StartChar: e
Encoding: 101 101 70
Width: 915
Flags: W
HStem: -21 96<332.031 602.976> 349.986 72.0137<237.038 448.24> 837 55<427.511 598.241>
VStem: 59 178<208.717 349.322 423.27 440.998> 664 169<566.621 776.035>
LayerCount: 2
Fore
SplineSet
770.130859375 282.17578125 m 1
 789.678710938 271.6015625 820.58984375 251.286132812 838.116210938 239.591796875 c 1
 740.392578125 103.356445312 598.939453125 -21 437.371695725 -21 c 0
 229.5625 -21 59 169.13671875 59 399 c 0
 59 673.544921875 281.294921875 892 532.478295282 892 c 0
 667.810546875 892 833 812.180664062 833 641 c 0
 833 401.735351562 418.313126582 357.248046875 253.30859375 349.986328125 c 0
 237 349.322265625 l 1
 237 333 l 0
 237 327.634765625 236 319.302734375 236 310 c 0
 236 196.58984375 328.745487704 75 453.522031141 75 c 0
 602 75 691.104492188 183.25 770.130859375 282.17578125 c 1
276 422 m 0
 388.580790239 422 664 500.51171875 664 680 c 0
 664 766.880859375 594.922851562 837 522.609111476 837 c 0
 349.995242872 837 247.16796875 596.353515625 238.029296875 440.998046875 c 0
 237.038085938 424.149414062 l 1
 253.887695312 423.036132812 l 0
 254.041015625 423.026367188 268.728515625 422 276 422 c 0
EndSplineSet
EndChar

StartChar: f
Encoding: 102 102 71
Width: 1074
Flags: HW
LayerCount: 2
Fore
SplineSet
825.897340788 1169 m 0
 738.336880992 1169 700.800281904 974.331054688 684.431312949 906.227539062 c 2
 662.852204574 818.0859375 l 1
 916.186523438 818.0859375 l 1
 889.727303637 708.360351562 l 1
 638.70255613 708.360351562 l 1
 549.316821054 338.071289062 l 0
 467.378938078 -0.5986328125 450.556287984 -303 109 -303 c 0
 36.80859375 -303 -106 -262.813476562 -106 -150 c 0
 -106 -111.501953125 -69.16796875 -91 -21 -91 c 0
 53.3544921875 -91 79.76953125 -232 157.069671521 -232 c 0
 282.393091396 -232 293.94901182 -71.6708984375 376.18039676 283.647460938 c 0
 476.121651779 706.322265625 l 1
 271.936364598 706.322265625 l 1
 297.43170995 816.02734375 l 1
 501.374330475 816.02734375 l 1
 521.792859193 899.627929688 l 0
 573.664055786 1111.16699219 672.474465007 1251 891.055735724 1251 c 0
 992.856445312 1251 1157 1214.2421875 1157 1078 c 0
 1157 1040.80761719 1128.35839844 1017 1080 1017 c 0
 996.936523438 1017 926.477539062 1169 825.897340788 1169 c 0
EndSplineSet
EndChar

StartChar: g
Encoding: 103 103 72
Width: 1025
Flags: HW
LayerCount: 2
Fore
SplineSet
-64.4423828125 -156.913085938 m 1
 -64.8720703125 -155.624023438 l 2
 -67.2763671875 -148.413085938 -68 -142.790039062 -68 -135 c 0
 -68 -38.4638671875 50.0576171875 -6.3125 163.278320312 16.3828125 c 0
 219.32379378 28.0498046875 l 1
 124.137695312 66.5205078125 l 0
 82.09375 83.2734375 57 118.547851562 57 152.166015625 c 0
 57 200.749023438 110.240234375 269.7890625 260.112714663 313.600585938 c 0
 288.424495986 321.923828125 l 1
 266.78471093 342.880859375 l 0
 176.333984375 430.446289062 136 527.193359375 136 617.017578125 c 0
 136 777.106445312 267.253021798 916 483.795188567 916 c 0
 573.732857199 916 659.492046002 883.092773438 742.385936881 800.7109375 c 0
 755.098187611 788.079101562 l 1
 766.29655178 802.173828125 l 0
 813.749823038 861.897460938 885.428710938 922 967 922 c 0
 1014.50878906 922 1066 882.069335938 1066 833 c 0
 1066 801.908203125 1046.60839844 783 1010 783 c 0
 980.946289062 783 944.586914062 817 900 817 c 0
 859.735351562 817 793.859035714 758.551757812 793.859035714 758.551757812 c 1
 783.390854205 749.8359375 l 1
 789.489408593 737.259765625 l 0
 817.967488061 678.513671875 833 619.219726562 833 566.827148438 c 0
 833 399.012695312 705.337768525 265 508.502887678 265 c 0
 430.45458068 265 355.962569071 291.11328125 355.962569071 291.11328125 c 0
 353.426044491 292 l 1
 350.749026651 292 l 0
 319.958064935 292 225.10791087 276.48828125 225.10791087 214.049804688 c 0
 225.10791087 67.0869140625 790.908677245 129.30859375 815.259886654 -146.719726562 c 1
 815.259886654 -157 l 0
 815.259886654 -293.344726562 544.66795554 -329 431.526916995 -329 c 0
 326.893844467 -329 -40.70703125 -301.963867188 -64.22265625 -158.25390625 c 0
 -64.4423828125 -156.913085938 l 1
71 -147.534179688 m 1
 71.2744140625 -149.041015625 l 2
 93.1533203125 -269.374023438 346.548564884 -262 387.811531054 -262 c 0
 389.666615534 -262 396.13599567 -262.118164062 405.280482174 -262.120117188 c 0
 456.546186194 -262.127929688 672.157465645 -264.776367188 672.157465645 -159 c 0
 672.157465645 -64.6611328125 299.271149135 0.5029296875 237.63379299 11.7451171875 c 0
 233.570957274 12.484375 l 1
 229.742276992 11.1640625 l 1
 229.742276992 11.1640625 71 -35.7119140625 71 -140 c 0
 71 -147.534179688 l 1
476.192304983 326 m 0
 605.057119862 326 674.058425476 480.11328125 674.058425476 614.858398438 c 0
 674.058425476 731.278320312 621.116359695 850 491.397116415 850 c 0
 365.504641945 850 292.580993875 696.309570312 292.580993875 563.16796875 c 0
 292.580993875 444.688476562 346.497910851 326 476.192304983 326 c 0
EndSplineSet
EndChar

StartChar: h
Encoding: 104 104 73
Width: 1187
Flags: HW
LayerCount: 2
Fore
SplineSet
1091.90917969 284.2265625 m 0
 1107.33300781 306.17578125 l 1
 1137.61621094 280.982421875 1155.27636719 265.358398438 1164.41308594 257.024414062 c 1
 1142.29394531 227.057617188 l 0
 1028.70996094 72.26171875 949.295898438 -20 819.489837321 -20 c 0
 733.254535493 -20 684.775547291 47.4951171875 684.775547291 142.765625 c 0
 684.775547291 296.629882812 796.160064831 532.614257812 837.726315498 652.676757812 c 1
 842.166941891 665.98828125 861.492792585 711.874023438 861.492792585 749.06640625 c 0
 861.492792585 775.439453125 846.423139428 804 811.889075038 804 c 0
 690.129717654 804 472.972862218 437.677734375 404.941548508 330.384765625 c 0
 375.725342065 283.965820312 289.277899272 153.764648438 215.890625 43.578125 c 0
 196.068359375 13.33203125 163.962890625 -21 133 -21 c 0
 78.5595703125 -21 35 15.123046875 35 83.8115234375 c 0
 35 116.458984375 44.298828125 149.708984375 54.3466796875 184.776367188 c 1
 355.527993357 1297 l 1
 178 1297 l 0
 152.435546875 1297 151 1302.15429688 151 1309 c 0
 151 1327.55761719 168.323242188 1376.82617188 178.118164062 1378.13183594 c 1
 475.71062736 1414.13476562 l 0
 482.281263701 1414.99902344 486.895807461 1415 493.608826702 1415 c 0
 522.058650024 1415 526.662682295 1409.58105469 526.662682295 1382 c 0
 526.662682295 1363.59375 522.219189132 1334.45507812 513.010169 1299.55859375 c 0
 241.606445312 280.01953125 l 1
 280.435546875 263.4921875 l 1
 287.877004439 275.588867188 l 0
 385.488604354 434.434570312 652.441250913 917.703125 844.191836948 917.703125 c 0
 970.147460938 917.703125 1014 833.444335938 1014 756.165039062 c 0
 1014 567.694335938 850.643024548 318.206054688 850.643024548 159.134765625 c 0
 850.643024548 128.911132812 857.634120458 92 892.645979812 92 c 0
 958.892578125 92 1014.67382812 174.7265625 1091.90917969 284.2265625 c 0
EndSplineSet
EndChar

StartChar: i
Encoding: 105 105 74
Width: 673
Flags: W
HStem: -20 110<256.113 441.024> 806 86<194.489 372.119> 1091 221<396.145 548.851>
VStem: 147.188 170<91.5441 339.339> 315.188 147<585.95 804.24> 365.188 211<1121.71 1285.03>
LayerCount: 2
Fore
SplineSet
627.627929688 249.577148438 m 1xf0
 567.158203125 160.599609375 l 2
 506.517578125 72.123046875 423.543945312 -20 305.188476562 -20 c 0
 207.037109375 -20 147.188476562 64.2626953125 147.188476562 162 c 0xf0
 147.188476562 229.353515625 169.298828125 299.563476562 194.206054688 369.303710938 c 0
 295.359375 653.735351562 l 1
 295.48828125 654.170898438 l 0
 303.159179688 680.059570312 315.188476562 709.19921875 315.188476562 738 c 0
 315.188476562 776.5859375 296.896484375 806 259.188476562 806 c 0
 223.137695312 806 179.072265625 763.043945312 64.4521484375 604.87890625 c 1
 12 643.5625 l 1
 114.08984375 781.227539062 198.006835938 892 316.188476562 892 c 0
 428.049804688 892 462.188476562 816.96484375 462.188476562 722 c 0xe8
 462.188476562 673.245117188 452.512695312 621.661132812 438.017578125 576.241210938 c 0
 333.2421875 252.936523438 l 1
 325.576171875 234.1484375 317.188476562 197.4453125 317.188476562 162 c 0
 317.188476562 132.912109375 325.55859375 90 371.188476562 90 c 0
 413.024414062 90 453.6484375 131.041992188 505.311523438 208.537109375 c 0
 562.731445312 294.23828125 l 1
 627.627929688 249.577148438 l 1xf0
365.188476562 1217 m 0xe4
 365.188476562 1281.73046875 405.309570312 1312 456.188476562 1312 c 0
 512.022460938 1312 568.217773438 1273.6328125 576.188476562 1197.21484375 c 1
 576.188476562 1188 l 0
 576.188476562 1118.13671875 539.418945312 1091 491.188476562 1091 c 0
 434.825195312 1091 365.188476562 1136.15722656 365.188476562 1217 c 0xe4
EndSplineSet
EndChar

StartChar: j
Encoding: 106 106 75
Width: 735
Flags: HW
LayerCount: 2
Fore
SplineSet
483.466605622 892 m 0
 595.046875 892 638 827.641601562 638 729 c 0
 638 686.006835938 630.293945312 635.283203125 615.522460938 577.185546875 c 2
 534.520507812 258.17578125 l 2
 467.996758747 -12.0126953125 402.768781252 -339 107 -339 c 0
 26.1875 -339 -106 -303.641601562 -106 -208 c 0
 -106 -168.571289062 -82.4013671875 -148 -43 -148 c 0
 44.322265625 -148 86.62109375 -247 179.879903957 -247 c 0
 276.009992824 -247 293.571299106 -108.125976562 307.898641651 -33.4658203125 c 0
 332.456847398 92.857421875 364.379320367 218.57421875 395.480618348 343.618164062 c 2
 462.259808549 611.725585938 l 2
 469.605284581 642.854492188 479.228252798 680.506835938 479.228252798 714 c 0
 479.228252798 751.130859375 466.312128595 787 427.68777784 787 c 0
 392.781263955 787 353.202320766 754.895507812 315.670677688 694.356445312 c 2
 260.856777494 605.296875 l 1
 212.163167767 643.611328125 l 1
 306.540978199 781.065429688 376.033616184 892 483.466605622 892 c 0
528 1221 m 0
 528 1281.62890625 571.446289062 1312 620 1312 c 0
 675.357421875 1312 732.255859375 1274.06542969 739.997070312 1197.42480469 c 0
 740.201171875 1189.23339844 741 1185.81835938 741 1183 c 0
 741 1117.39648438 701.12890625 1091 655 1091 c 0
 597.03125 1091 528 1137.69628906 528 1221 c 0
EndSplineSet
EndChar

StartChar: k
Encoding: 107 107 76
Width: 1121
Flags: W
HStem: -21 122<748.358 878.809> 389 66<320.906 549.334> 830 89.7432<512.2 804.834> 1213 81.1318<151.303 291.481>
VStem: 848.291 155.709<570.727 690.037>
LayerCount: 2
Fore
SplineSet
848.291015625 689.196289062 m 1
 848.211914062 690.037109375 l 2
 838.44565572 794.625976562 763.400033929 830 669.860965574 830 c 0
 595.650157075 830 506.262309663 810.23828125 413.556150807 785.670898438 c 0
 404.29419718 783.216796875 l 1
 320.906153849 455 l 1
 342.133447361 455 l 0
 520.986245808 455 848.291015625 480.677734375 848.291015625 676.127929688 c 0
 848.291015625 689.196289062 l 1
488.103930692 1331 m 0
 515.139697075 1331 519.892516649 1325.75390625 519.892516649 1298 c 0
 519.892516649 1278.45507812 515.552820186 1250.69433594 506.32132725 1215.40332031 c 0
 413.190622524 845.666992188 l 1
 440.863207712 854.220703125 l 0
 520.103837688 878.708984375 646.064503219 919.743164062 756.501639485 919.743164062 c 0
 879.822265625 919.743164062 1004 868.741210938 1004 685.387695312 c 0
 1004 483.603515625 684.173682402 406.913085938 680.562186815 406.07421875 c 0
 663.488969934 402.110351562 l 1
 668.402660029 384.061523438 l 0
 731.006041753 154.075195312 757.584897782 101 804.531484721 101 c 0
 853.051757812 101 907.962890625 169.690429688 1022.69824219 316.799804688 c 1
 1085.80175781 265.041015625 l 1
 978.314453125 117.275390625 882.466796875 -21 759.326868505 -21 c 0
 682.25370702 -21 638.159954101 3.3232421875 599.946066296 187.584960938 c 1
 549.555517566 389.001953125 l 1
 537.074249739 389 l 0
 536.87149577 389 398.587577243 389.04296875 320.213173146 382.848632812 c 0
 308.461058092 381.919921875 l 1
 254.498046875 156.098632812 l 0
 228.56640625 49.5107421875 209.5625 -20 135 -20 c 0
 70.083984375 -20 54 13.7060546875 54 63.4150390625 c 0
 54 111.477539062 74.1435546875 171.002929688 85.396484375 213.080078125 c 0
 351.177416674 1213 l 1
 173 1213 l 0
 147.110351562 1213 145 1218.74316406 145 1225 c 0
 145 1243.09765625 163.095703125 1292.79589844 173.118164062 1294.13183594 c 1
 470.371049488 1330.13476562 l 0
 476.880118234 1330.99902344 481.450173667 1331 488.103930692 1331 c 0
EndSplineSet
EndChar

StartChar: l
Encoding: 108 108 77
Width: 605
Flags: W
HStem: -20 110<188.215 377.03> 1213 81.1309<156.303 300.762>
VStem: 85 166<92.8826 362.739>
LayerCount: 2
Fore
SplineSet
505 1331 m 0
 533.80859375 1331 539 1325.80566406 539 1297 c 0
 539 1278.59667969 534.385742188 1250.70605469 524.610351562 1215.51464844 c 0
 266.625976562 256.461914062 l 0
 257.498046875 222.991210938 251 193.984375 251 168.248046875 c 0
 251 128.21484375 266.09375 90 305 90 c 0
 346.3125 90 391.978515625 130.3203125 444.123046875 208.537109375 c 0
 501.541992188 294.23828125 l 1
 566.439453125 249.577148438 l 1
 505.927734375 160.538085938 l 0
 445.640625 71.5908203125 357.68359375 -20 237 -20 c 0
 139.430664062 -20 85 65.837890625 85 166.250976562 c 0
 85 235.955078125 111.090820312 306.561523438 131.369140625 381.633789062 c 0
 359.41796875 1213 l 1
 178 1213 l 0
 152.110351562 1213 150 1218.74316406 150 1225 c 0
 150 1243.09765625 168.102539062 1292.796875 178.110351562 1294.13085938 c 1
 486.108398438 1330.13085938 l 0
 493.05078125 1330.99902344 497.935546875 1331 505 1331 c 0
EndSplineSet
EndChar

StartChar: m
Encoding: 109 109 78
Width: 1959
Flags: HW
LayerCount: 2
Fore
SplineSet
1849.56445312 284.2265625 m 0
 1864.98828125 306.17578125 l 1
 1895.27148438 280.982421875 1912.93261719 265.358398438 1922.06738281 257.024414062 c 1
 1899.94921875 227.057617188 l 0
 1786.37304688 72.2724609375 1706.98242188 -20 1574.20170442 -20 c 0
 1485.33772673 -20 1435.58159701 46.5078125 1435.58159701 139 c 0
 1435.58159701 344 1597.73990965 608.067382812 1597.73990965 705 c 0
 1597.73990965 729.375 1585.27645899 760 1547.82614939 760 c 0
 1416.57309405 760 1210.28209718 425.087890625 1142.32882663 324.607421875 c 0
 1110.7708048 277.711914062 1079.99416628 211.340820312 1013.9759799 103.009765625 c 0
 971.945680975 34.5595703125 910.466867449 -20 857.186776353 -20 c 0
 829.261026457 -20 799.645825264 14.46484375 799.645825264 85 c 0
 799.645825264 244.626953125 960.827408767 642.775390625 960.827408767 705 c 0
 960.827408767 729.375 948.363958108 760 910.913648502 760 c 0
 786.122478429 760 583.928908661 425.500976562 520.879592041 324.360351562 c 1
 489.914377105 278.313476562 407.33821414 150.000976562 339.1489813 42.3017578125 c 1
 319.948033688 12.8193359375 288.506058884 -21 258.371547247 -21 c 0
 202.454101562 -21 160.654296875 14.70703125 160.654296875 83 c 0
 160.654296875 115.108398438 168.918945312 146.032226562 179.819335938 178.735351562 c 0
 236.903320312 353.994140625 321.961449599 606.552734375 321.961449599 713 c 0
 321.961449599 731.885742188 315.037310345 767 279.862489518 767 c 0
 207.478515625 767 138.9453125 647.962890625 63.111328125 530.756835938 c 1
 6 580.986328125 l 1
 32.8388671875 621.62890625 l 0
 107.974609375 735.34765625 210.682617188 892 360.94164584 892 c 0
 438.288923198 892 486.863307364 833.095703125 486.863307364 747 c 0
 486.863307364 614.509765625 384.881180373 335.813476562 371.405219407 286.216796875 c 1
 363.132033468 263.633789062 l 1
 402.67989308 246.765625 l 1
 410.225850986 258.916015625 l 0
 507.071929991 414.85546875 751.713567978 892 962.688029427 892 c 0
 1077.44983522 892 1114.98427892 827.702148438 1114.98427892 721 c 0
 1114.98427892 599.729492188 1059.27783791 429.696289062 999.942026147 279.336914062 c 0
 993.807973731 263.794921875 l 1
 1033.64788503 246.80078125 l 1
 1041.21995351 258.82421875 l 0
 1139.68778972 415.16796875 1405.3368407 890 1599.60053031 890 c 0
 1727.93457031 890 1771.65429688 808.51171875 1771.65429688 734 c 0
 1771.65429688 551.717773438 1612.20517152 310.576171875 1612.20517152 157 c 0
 1612.20517152 127.640625 1619.54804713 92 1655.28086074 92 c 0
 1722.87597656 92 1772.77832031 175.365234375 1849.56445312 284.2265625 c 0
EndSplineSet
EndChar

StartChar: n
Encoding: 110 110 79
Width: 1325
Flags: W
HStem: -20 112<898.537 1082.84> 760 130<857.055 1030.49> 767 105<222.46 373.197>
VStem: 318.684 162.77<514.325 765.68> 806.052 173.323<92.9113 341.034> 965.31 172.344<557.459 759.195>
LayerCount: 2
Fore
SplineSet
1021.75176106 92 m 0xd8
 1088.88574219 92 1138.79003906 175.380859375 1215.56054688 284.221679688 c 2
 1230.98730469 306.173828125 l 1
 1262.28710938 280.112304688 1278.66113281 265.599609375 1288.06640625 257.0234375 c 1
 1265.94921875 227.057617188 l 0
 1152.36816406 72.265625 1072.96191406 -20 942.122250178 -20 c 0
 854.951153555 -20 806.052237101 46.44921875 806.052237101 139 c 0xd8
 806.052237101 344.025390625 965.310299263 608.108398438 965.310299263 705 c 0
 965.310299263 729.317382812 953.105961891 760 916.219460535 760 c 0xd4
 790.134203737 760 585.866529994 432.396484375 521.594639433 333.365234375 c 0
 490.620303713 284.936523438 410.239417126 152.264648438 338.420183159 42.4697265625 c 0
 318.945830067 12.505859375 286.378539477 -20 255.201725758 -20 c 0
 191.8125 -20 158.654296875 22.1630859375 158.654296875 83 c 0
 158.654296875 116.228515625 167.026367188 150.356445312 177.819335938 182.735351562 c 0
 234.814453125 357.721679688 318.683856164 597.61328125 318.683856164 711 c 0
 318.683856164 729.661132812 313.50963167 767 277.267029543 767 c 0
 205.458007812 767 136.942382812 647.958984375 61.111328125 530.756835938 c 1
 4 580.986328125 l 1
 30.8388671875 621.62890625 l 0
 104.877929688 733.688476562 219.734375 872 357.856151797 872 c 0xb4
 428.300262673 872 481.454095931 831.267578125 481.454095931 745 c 0
 481.454095931 616.1328125 390.315965914 368.75 356.919571102 281.229492188 c 0
 351.418119132 266.810546875 l 1
 399.101207983 241.958984375 l 1
 407.155226191 254.720703125 l 0
 505.811911272 411.025390625 773.39282382 890 967.066388065 890 c 0
 1093.90917969 890 1137.65429688 808.528320312 1137.65429688 734 c 0xd4
 1137.65429688 551.705078125 979.375323076 310.561523438 979.375323076 157 c 0
 979.375323076 127.690429688 986.540741157 92 1021.75176106 92 c 0xd8
EndSplineSet
EndChar

StartChar: o
Encoding: 111 111 80
Width: 965
Flags: W
HStem: -20 61<328.365 518.176> 831 61<441.605 626.205>
VStem: 59 172<211.875 543.613> 725 171<321.493 672.705>
LayerCount: 2
Fore
SplineSet
498.024715496 892 m 0
 719.927734375 892 896 730.346679688 896 461 c 0
 896 205.626953125 690.620117188 -20 451.501776763 -20 c 0
 245.088867188 -20 59 171.930664062 59 401 c 0
 59 658.944335938 259.958984375 892 498.024715496 892 c 0
432.345438202 41 m 0
 591.97345895 41 725 339.736328125 725 563 c 0
 725 700.045898438 667.748046875 831 525.390377138 831 c 0
 369.2011308 831 231 523.326171875 231 303 c 0
 231 158.251953125 290.313476562 41 432.345438202 41 c 0
EndSplineSet
EndChar

StartChar: p
Encoding: 112 112 81
Width: 1252
Flags: HW
LayerCount: 2
Fore
SplineSet
544.119563798 -346 m 0
 544.119563798 -374.014648438 530.951808837 -390.975585938 509.366315355 -393 c 1
 41.96875 -393 l 0
 23.0048828125 -393 25.96875 -388.306640625 25.96875 -378 c 0
 25.96875 -268.016601562 194.595703125 -395.065429688 238.713158578 -213.041015625 c 0
 447.436837632 685.610351562 l 1
 415.051407677 667.521484375 l 0
 279.04755651 591.552734375 141.536132812 478.618164062 15.140625 332.456054688 c 0
 9.7763671875 326.170898438 7.7626953125 326.108398438 5.96875 326.108398438 c 0
 -3.8251953125 326.108398438 -22.2705078125 352.890625 -24 363.584960938 c 1
 -23.08984375 369.205078125 -17.0087890625 380.462890625 -14.044921875 385.047851562 c 1
 131.611328125 577.786132812 304.584526837 724.3046875 470.46698798 814.1640625 c 0
 477.137142248 817.778320312 l 1
 559.318657778 1172.01660156 l 0
 578.080024431 1252.50292969 609.497237109 1341 681.141481051 1341 c 0
 733.020671718 1341 757.528072387 1312.30957031 757.528072387 1253 c 0
 757.528072387 1231.43164062 754.86403693 1207.11914062 747.593779677 1180.52734375 c 1
 675.42899912 901.467773438 l 1
 701.915972735 907.572265625 l 0
 744.809915349 917.458984375 787.675099034 922.388671875 828.517571378 922.388671875 c 0
 1101.49804688 922.388671875 1215.96875 782.114257812 1215.96875 614.077148438 c 0
 1215.96875 349.702148438 925.55307374 4.751953125 462.947486676 4.751953125 c 0
 450.581147203 4.751953125 l 1
 390.77407844 -213.977539062 l 1
 386.549391769 -227.224609375 385.259074488 -239.705078125 385.259074488 -249 c 0
 385.259074488 -366.612304688 544.119563798 -281.818359375 544.119563798 -346 c 0
486.872039717 95 m 0
 799.605261417 95 1028.96875 385.584960938 1028.96875 592 c 0
 1028.96875 702.151367188 957.520540594 788 810.334259198 788 c 0
 760.010926591 788 706.08505881 780.795898438 650.384765109 766.499023438 c 0
 641.007436991 764.09375 l 1
 465.373781653 95 l 1
 486.872039717 95 l 0
EndSplineSet
EndChar

StartChar: q
Encoding: 113 113 82
Width: 1014
Flags: HW
LayerCount: 2
Fore
SplineSet
699.703074806 -251 m 0
 699.703074806 -364.999023438 863 -282.58984375 863 -346 c 0
 863 -373.166015625 849.569335938 -389.615234375 825.96875 -393 c 1
 572.934792194 -393 l 2
 537.214789654 -393 521.285548223 -392.072265625 521.285548223 -362 c 0
 521.285548223 -342.999023438 524.677142514 -314.5859375 534.584342117 -278.654296875 c 2
 650.411967484 152.471679688 l 1
 603.560311869 96.25 l 2
 548.791784495 30.5263671875 460.677465137 -19 374.470267521 -19 c 0
 183.258789062 -19 62 136.505859375 62 345 c 0
 62 649.528320312 306.801757812 893 536.765665794 893 c 0
 636.030548705 893 730.692621189 847.106445312 767.471679688 693.020507812 c 2
 781.362304688 635.327148438 l 1
 842.939453125 820.084960938 l 1
 853.255859375 846.735351562 867.610351562 865 909 865 c 0
 951.9296875 865 980 833.594726562 980 798 c 0
 980 791.559570312 979.205078125 785.912109375 977.55859375 779.32421875 c 2
 704.970588548 -214.276367188 l 2
 700.929419327 -228.439453125 699.703074806 -240.787109375 699.703074806 -251 c 0
225 340 m 0
 225 156.013671875 307.7265625 71 411.56600736 71 c 0
 555.55417155 71 734.600585938 269.666992188 734.600585938 578 c 0
 734.600585938 691.669921875 704.105434164 826 559.950857765 826 c 0
 354.664378029 826 225 544.145507812 225 340 c 0
EndSplineSet
EndChar

StartChar: r
Encoding: 114 114 83
Width: 933
Flags: W
HStem: -20 21G<202.215 261.73> 767 105<202.071 379.603>
VStem: 299.978 156.859<514.314 766.751>
LayerCount: 2
Fore
SplineSet
471.132770442 317.557617188 m 0
 354.60931048 106.37109375 l 1
 330.61199851 60.2060546875 286.722701406 -20 236.737304688 -20 c 0
 167.693359375 -20 138.737304688 28.4189453125 138.737304688 82 c 0
 138.737304688 139.325195312 173.512695312 222.56640625 191.853515625 277.590820312 c 0
 282.638213792 551.4140625 299.978341404 670.13671875 299.978341404 719 c 0
 299.978341404 728.638671875 296.10035154 767 258.572265625 767 c 0
 187.025390625 767 112.0859375 639.966796875 72.337890625 576.48828125 c 1
 18 627.431640625 l 1
 97.365234375 742.72265625 201.110351562 872 336.962277954 872 c 0
 422.243007171 872 456.837063792 814.202148438 456.837063792 744 c 0
 456.837063792 640.06640625 407.496415525 482.76953125 334.945609556 281.036132812 c 0
 329.634449526 266.265625 l 1
 378.771441755 242.084960938 l 1
 470.967951136 406.344726562 l 0
 551.39882493 549.931640625 699.47949845 894 868.737304688 894 c 0
 914.948242188 894 961.737304688 852.286132812 961.737304688 805 c 0
 961.737304688 718.74609375 818.571289062 689.388671875 741.71875 655.484375 c 1
 615.491748267 594.96484375 533.949765018 431.623046875 471.132770442 317.557617188 c 0
EndSplineSet
EndChar

StartChar: s
Encoding: 115 115 84
Width: 832
Flags: HW
LayerCount: 2
Fore
SplineSet
458.125880122 516.3359375 m 1
 637.557617188 407.984375 698.206054688 295.146484375 701 191.770507812 c 1
 701 71.2783203125 624.3828125 -20 443.117607673 -20 c 0
 279.66015625 -20 46 108.391601562 46 242 c 0
 46 284.448242188 64.0224609375 307 105 307 c 0
 199.89453125 307 200.248046875 69 442.241434125 69 c 0
 518.173711007 69 564 112.749023438 564 180 c 0
 564 246.666992188 506.286864406 323.998046875 384.94742315 400.803710938 c 1
 262.000976562 475.443359375 159.7890625 562.388671875 157 697.17578125 c 1
 157 846.197265625 283.556640625 892 415.072683588 892 c 0
 524.733496141 892 771 823.416992188 771 678 c 0
 771 639.296875 753.701171875 617 711 617 c 0
 610.11328125 617 615.288085938 827 406.309105471 827 c 0
 365.183306479 827 282.627929688 815.103515625 282.627929688 728 c 0
 282.627929688 652.39453125 344.487737172 591.142578125 458.125880122 516.3359375 c 1
EndSplineSet
EndChar

StartChar: t
Encoding: 116 116 85
Width: 663
Flags: HW
LayerCount: 2
Fore
SplineSet
101.143554688 153.4140625 m 0
 101.143554688 234.884765625 123.577148438 322.213867188 141.426757812 382.567382812 c 2
 269.9765625 822.76953125 l 1
 67 822.76953125 l 1
 95.7880859375 920.99609375 l 1
 318.057617188 920.99609375 l 1
 322.716796875 928.91796875 l 0
 413.94140625 1084.02050781 424.413085938 1235 504.143554688 1235 c 0
 534.125976562 1235 548.143554688 1205.39160156 548.143554688 1195 c 0
 548.143554688 1170.52734375 458.432617188 949.4921875 458.432617188 949.4921875 c 0
 448.725585938 925.66015625 l 1
 692.944335938 925.66015625 l 1
 671.51171875 826.32421875 l 1
 433.541992188 826.32421875 l 1
 286.807617188 258.268554688 l 1
 278.91796875 230.522460938 268.143554688 195.987304688 268.143554688 164.84765625 c 0
 268.143554688 132.936523438 277.245117188 90 322.620117188 90 c 0
 358.373046875 90 400.108398438 125.125976562 444.921875 204.202148438 c 1
 497.4140625 293.737304688 l 1
 562.151367188 249.185546875 l 1
 503.891601562 155.274414062 l 1
 444.759765625 67.9404296875 365.239257812 -20 252.143554688 -20 c 0
 133.862304688 -20 101.143554688 56.6904296875 101.143554688 153.4140625 c 0
EndSplineSet
EndChar

StartChar: u
Encoding: 117 117 86
Width: 1332
Flags: W
HStem: -20 124<281.127 453.919 943.819 1092.54> 779 113<231.895 402.493>
VStem: 22 50.917<566.309 578.67> 332.199 171.288<572.704 727.006> 828.837 158.823<156.237 318.067>
LayerCount: 2
Fore
SplineSet
1246.68652344 185.608398438 m 0
 1172.48925781 91.083984375 1087.5078125 -20 961.939024037 -20 c 0
 899.191679635 -20 842.614207743 23.642578125 832.492585135 90.50390625 c 0
 830.7061907 103.543945312 828.83728825 123.3125 828.83728825 140 c 0
 828.83728825 236.1875 872.840922615 341.517578125 893.572500145 428.009765625 c 0
 903.156861269 468.993164062 923.754123428 536.107421875 923.754123428 559 c 0
 923.754123428 563.318359375 923.132435138 566.114257812 922.888748679 566.888671875 c 0
 922.788971547 568.322265625 922.795687315 568.407226562 922.795687315 570 c 2
 922.795687315 613.706054688 l 1
 894.193229039 581.487304688 l 2
 744.06797936 412.377929688 558.81446316 -20 325.321581427 -20 c 0
 223.827148438 -20 157.970703125 70.345703125 157.970703125 176 c 0
 157.970703125 182.573242188 158.928710938 189.805664062 160.888671875 195.030273438 c 2
 161.056640625 195.479492188 l 1
 161.202148438 195.946289062 l 2
 212.912109375 362.016601562 278.386993786 529.9296875 327.531069282 698.688476562 c 0
 330.388149105 706.635742188 332.198528428 715.532226562 332.198528428 725 c 2
 332.198528428 726.005859375 l 1
 332.083400967 727.005859375 l 2
 328.737029435 756.095703125 314.103369754 779 282.177565438 779 c 0
 169.146484375 779 92.150390625 543.150390625 72.9169921875 539.994140625 c 1
 58.08203125 540.653320312 25.4599609375 573.890625 22 586.0546875 c 0
 22.16796875 588.897460938 22.9833984375 594.208007812 23.1904296875 595.426757812 c 0
 86.6552734375 720.025390625 215.6015625 892 363.67245746 892 c 0
 441.314417122 892 503.48612422 844.6484375 503.48612422 742 c 0
 503.48612422 656.567382812 459.038289735 565.518554688 433.467521263 490.634765625 c 0
 401.967688553 398.04296875 361.595366185 291.831054688 333.503306319 193.825195312 c 2
 331.931816477 188.346679688 l 1
 333.885145731 183.000976562 l 2
 335.920023603 177.4296875 331.892481261 104 385.723203813 104 c 0
 437.320453623 104 496.309845821 164.594726562 517.123931364 181.206054688 c 0
 527.005705096 188.350585938 543.237717694 209.125 545.0730413 211.0390625 c 2
 545.452961921 211.434570312 l 1
 545.812735237 211.862304688 l 2
 660.081537204 347.931640625 748.086887142 436.451171875 852.191853099 619.922851562 c 1
 906.780498102 702.973632812 981.175863366 865 1071.97070312 865 c 0
 1117.45214844 865 1142.97070312 816.3203125 1142.97070312 771 c 0
 1142.97070312 714.008789062 1066.28710938 440.504882812 1009.4876248 240.032226562 c 0
 1007.65421999 234.294921875 992.048692657 179.538085938 989.602234111 169.388671875 c 1
 986.488036293 160.942382812 987.660417604 158.840820312 987.660417604 158 c 2
 987.660417604 157.114257812 l 1
 987.74868199 156.237304688 l 2
 989.14556185 142.400390625 990.39277601 93 1033.84667675 93 c 0
 1133.69824219 93 1221.61035156 277.745117188 1247.58007812 309.586914062 c 1
 1294.140625 271.194335938 l 1
 1295.23828125 267.213867188 1295.53417969 266.017578125 1295.92480469 264.487304688 c 0
 1293.66503906 237.651367188 1261.19433594 203.465820312 1246.68652344 185.608398438 c 0
EndSplineSet
EndChar

StartChar: v
Encoding: 118 118 87
Width: 1094
Flags: HW
LayerCount: 2
Fore
SplineSet
864 891 m 0
 1000.078125 891 1024 601.080078125 1024 562 c 0
 1024 274.9375 847.485351562 -21 565.961348792 -21 c 0
 423.178870335 -21 241 98.111328125 241 273 c 0
 241 426.712890625 368.820299623 520.723632812 431.831634877 659.677734375 c 0
 438.491330917 674.36328125 l 1
 424.842607994 682.006835938 l 0
 385.58010757 703.99609375 241.735351562 789 190 789 c 0
 174.885742188 789 152 776.313476562 152 755 c 0
 152 714.34765625 180 688.447265625 180 666 c 0
 180 637.500976562 164.795898438 618 138 618 c 0
 88.189453125 618 49 675.248046875 49 724 c 0
 49 816.189453125 135.374023438 891 226 891 c 0
 302.123685798 891 362.727204486 810 449.985641697 810 c 0
 500.013559276 810 514.515505334 851.665039062 516.451629023 890.715820312 c 1
 519.927160859 891.538085938 525.094902763 892 530.420191986 892 c 0
 542.280847738 892 551.726094281 892.138671875 559.151698074 892.151367188 c 0
 590.754171886 892.201171875 580.670194342 897.411132812 580.670194342 865 c 0
 580.670194342 816.615234375 552.864041488 746.422851562 541.499754701 714.01953125 c 0
 501.275835995 602.203125 398.289241056 478.9765625 398.289241056 334 c 0
 398.289241056 181.5390625 498.080282829 116 611.790535392 116 c 0
 784.075195312 116 915 260.415039062 915 436 c 0
 915 445.9453125 915.021484375 457.633789062 913.926757812 468.584960938 c 1
 902.04296875 604.6953125 779.498046875 702.077148438 779.498046875 814 c 0
 779.498046875 860.134765625 810.72265625 891 864 891 c 0
EndSplineSet
EndChar

StartChar: w
Encoding: 119 119 88
Width: 1694
Flags: HW
LayerCount: 2
Fore
SplineSet
1016.24246637 363.072265625 m 0
 1066.29590481 434.297851562 1114.40763581 542.155273438 1114.40763581 657 c 0
 1114.40763581 701.365234375 1108.67795989 790 1034.761959 790 c 0
 960.183617989 790 939.599976587 703.607421875 939.599976587 625 c 0
 939.599976587 532.201171875 962.292115588 433.829101562 987.243152566 366.936523438 c 0
 998.23973401 337.455078125 l 1
 1016.24246637 363.072265625 l 0
557.837541565 892.036132812 m 0
 600.676582411 892.065429688 589.505497965 896.475585938 589.505497965 869 c 0
 589.505497965 842.630859375 586.281530899 812.633789062 585.065794515 805.797851562 c 1
 549.164453132 669.236328125 456.643154267 502.986328125 456.643154267 335 c 0
 456.643154267 252.162109375 499.257558651 105 629.38859293 105 c 0
 728.594031647 105 828.58810824 172.330078125 878.869075454 249.573242188 c 0
 883.935447144 257.353515625 l 1
 880.227499376 265.900390625 l 0
 864.805676057 301.446289062 827.940229691 422.16796875 822.426513289 486.600585938 c 0
 820.530118786 507.123046875 819.590116427 526.53515625 819.590116427 547 c 0
 819.590116427 730.876953125 889.556179199 892 1031.85325427 892 c 0
 1156.31245893 892 1183.01816697 682.1953125 1183.01816697 634 c 0
 1183.01816697 500.416015625 1109.18797143 380.431640625 1040.1002083 268.053710938 c 0
 1034.91428759 259.6171875 l 1
 1039.57477108 250.864257812 l 0
 1068.73605452 196.095703125 1128.7207384 133 1242.29809011 133 c 0
 1407.42578125 133 1505 273.37109375 1505 426 c 0
 1505 603.846679688 1378.21679688 674.321289062 1378.21679688 803 c 0
 1378.21679688 854.870117188 1400.78613281 892 1454 892 c 0
 1577.6875 892 1617.59667969 636.901367188 1620.09179688 608.208984375 c 1
 1622.00195312 592.923828125 1622 577.213867188 1622 560 c 0
 1622 303.736328125 1466.8671875 -20 1221.93233643 -20 c 0
 1056.65774729 -20 944.650922597 143.67578125 944.650922597 143.67578125 c 0
 934.958775196 158.008789062 l 1
 921.202925288 147.731445312 l 0
 824.657452222 75.607421875 718.496960153 -19 589.626975193 -19 c 0
 437.568337165 -19 308.509387628 101.290039062 308.509387628 277 c 0
 308.509387628 451.689453125 417.378050597 626.67578125 434.501519212 658.872070312 c 0
 442.545047091 673.998046875 l 1
 427.665050773 682.03515625 l 0
 386.960538361 704.01953125 239.708984375 789 188 789 c 0
 172.885742188 789 150 776.313476562 150 755 c 0
 150 714.34765625 178 688.447265625 178 666 c 0
 178 637.500976562 162.795898438 618 136 618 c 0
 86.189453125 618 47 675.248046875 47 724 c 0
 47 816.189453125 133.374023438 891 224 891 c 0
 300.659644851 891 363.559782197 810 453.85592676 810 c 0
 505.52906157 810 520.62983793 851.62109375 522.629391666 890.696289062 c 1
 527.569465602 891.73828125 531.618706534 892 537.258720689 892 c 0
 545.118104516 892 551.939147275 892.032226562 557.837541565 892.036132812 c 0
EndSplineSet
EndChar

StartChar: x
Encoding: 120 120 89
Width: 1216
Flags: HW
LayerCount: 2
Fore
SplineSet
826.423139435 -23 m 0
 611.232250884 -23 632.638524058 326 558.647129867 326 c 2
 542.278808875 326 l 1
 337.286304816 64.787109375 l 0
 294.766562527 11.0615234375 221.541992188 -15 145 -15 c 0
 79.1044921875 -15 6 31.6640625 6 106 c 0
 6 153.447265625 46.09765625 181 100 181 c 0
 140.870117188 181 185.697265625 146 238 146 c 0
 357.051535636 146 483.340031165 390.31640625 523.750818733 456.681640625 c 0
 526.435812811 461.090820312 l 1
 526.435812811 465.315429688 l 1
 526.964008368 467.805664062 527.387904439 469.983398438 527.387904439 473.72265625 c 0
 527.387904439 475.392578125 l 1
 527.097014133 477.038085938 l 0
 517.891866936 528.930664062 485.162879961 608.841796875 476.900255632 635.166015625 c 1
 460.770196766 682.314453125 432.328014306 854 340.423901246 854 c 0
 218.294921875 854 187.563476562 682 157 682 c 0
 130.44921875 682 98 711.586914062 98 728 c 0
 98 729.168945312 97.8486328125 730.125 100.092773438 733.4921875 c 1
 171.899414062 838.673828125 258.815774032 964 390.929730698 964 c 0
 581.267678695 964 578.948211252 671 648.223163599 671 c 0
 653.020939903 671 658.029228928 672.840820312 658.455038752 673 c 1
 663.387734573 673 l 1
 829.347352516 873.948242188 l 0
 869.076844366 922.125 935.6484375 956 1002 956 c 0
 1075.41015625 956 1178 918.682617188 1178 832 c 0
 1178 796.028320312 1136.20605469 768 1093 768 c 0
 1051.52050781 768 1005.00585938 795 950 795 c 0
 837.883643382 795 769.887077382 664.475585938 696.294700486 561.810546875 c 0
 686.217839247 547.892578125 674.717146507 535.64453125 674.717146507 511.967773438 c 0
 674.717146507 506.595703125 l 1
 672.981373429 483.627929688 738.406813596 307.37109375 754.034512558 266.359375 c 1
 772.891668047 214.265625 795.18496528 111 879.788114399 111 c 0
 985.4609375 111 1053.46972656 217.260742188 1100.61621094 279.440429688 c 1
 1148.65917969 237.098632812 l 1
 1149.61425781 232.935546875 1149.98242188 228.280273438 1150.00195312 227.927734375 c 1
 1149.02441406 144.841796875 908.722131127 -23 826.423139435 -23 c 0
EndSplineSet
EndChar

StartChar: y
Encoding: 121 121 90
Width: 1040
Flags: W
HStem: -399 168<24.7406 305.319> 760 131<185.171 334.066>
VStem: 838 146<425.895 672.857>
LayerCount: 2
Fore
SplineSet
984 644 m 0
 984 263.20703125 472.659570947 -399 138 -399 c 0
 59.3837890625 -399 -41.75390625 -362.0625 -58.0322265625 -280.23828125 c 1
 -58.787109375 -269.704101562 -60 -268.272460938 -60 -266 c 0
 -60 -219.188476562 -4.2783203125 -199 53 -199 c 0
 116.751953125 -199 185.627929688 -231 256.468957145 -231 c 0
 325.054229077 -231 511.252894244 -139.834960938 511.252894244 -48 c 0
 511.252894244 31.833984375 455.234905965 153.091796875 436.961627893 215.116210938 c 0
 429.409828569 240.146484375 390.793647007 368.037109375 383.292326351 395.883789062 c 1
 377.260601654 415.713867188 310.849722188 760 237.612793314 760 c 0
 134.997070312 760 88.697265625 578.287109375 69.3525390625 574.053710938 c 1
 67.76171875 574.405273438 67.177734375 574.552734375 66.8369140625 574.633789062 c 1
 15.171875 618.282226562 l 1
 14.9111328125 620.33203125 15 619.46875 15 620 c 0
 15 629.71875 32.26953125 643.590820312 44.5185546875 666.05859375 c 1
 117.489257812 766.607421875 177.891601562 891 299.837752988 891 c 0
 368.29349475 891 412.086120924 824.341796875 434.272924463 751.783203125 c 0
 497.987481078 545.069335938 543.268751765 310.544921875 627.084295231 101.427734375 c 0
 631.262595601 91 l 1
 642.07550741 91 l 0
 677.428671632 91 687.130100301 139.319335938 688.564456435 141.517578125 c 0
 755.635742188 245.805664062 838 358.235351562 838 502 c 0
 838 627.287109375 755 714.985351562 755 818 c 0
 755 864.436523438 775.875 891 829 891 c 0
 949.17578125 891 984 722.458984375 984 644 c 0
EndSplineSet
EndChar

StartChar: z
Encoding: 122 122 91
Width: 938
Flags: HW
LayerCount: 2
Fore
SplineSet
743.874023438 100.831054688 m 0
 745.169921875 102.115234375 l 1
 748.958007812 115.284179688 l 1
 748.504882812 117.104492188 l 0
 740.799804688 148.10546875 652 157.715820312 652 235 c 0
 652 270.594726562 684.79296875 296 728 296 c 0
 777.721679688 296 835 260.701171875 835 163 c 0
 835 31.3408203125 703.184570312 -20 578.642781314 -20 c 0
 393.536502492 -20 288.673828125 100 215 100 c 0
 134.612304688 100 118.784179688 9.0234375 115.3046875 -20.5263671875 c 1
 106.884765625 -20.791015625 98.2607421875 -21 89 -21 c 0
 81.6572265625 -21 71.9169921875 -20.837890625 68.654296875 -20.712890625 c 1
 52.1376953125 2.345703125 52 29.5634765625 52 55 c 0
 52 231.151367188 242.794921875 381.451171875 372.921201879 462.379882812 c 0
 445.200547985 508.9296875 570.485741829 563.1953125 621.80859375 658.650390625 c 1
 636.211914062 684 l 1
 607 684 l 0
 418.27784501 684 378.53440794 796 280 796 c 0
 253.5859375 796 223 790.923828125 223 764 c 0
 223 725.1328125 278 696.162109375 278 652 c 0
 278 619.020507812 250.038085938 598 213 598 c 0
 151.637695312 598 104 654.984375 104 725 c 0
 104 830.032226562 223.463867188 892 328.112461331 892 c 0
 430.846059378 892 538.836913167 813 661 813 c 0
 723.493164062 813 751.48828125 870.818359375 760.004882812 892 c 1
 811.908203125 892 l 1
 813.495117188 888.81640625 815 882.559570312 815 874 c 0
 815 823.58203125 794.701171875 777.440429688 771.973632812 734.94921875 c 0
 692.331054688 584.40625 553.982506015 481.28515625 422.891222037 393.291992188 c 1
 350.809419039 340.767578125 254.650390625 288.551757812 192.379882812 205.171875 c 0
 163.47265625 166.46875 l 1
 210.248046875 178.5390625 l 0
 239.833984375 186.174804688 270.385742188 190 301.173917636 190 c 0
 447.363272299 190 538.673846922 81 671 81 c 0
 719.365234375 81 739.076171875 96.0771484375 743.874023438 100.831054688 c 0
EndSplineSet
EndChar

StartChar: braceleft
Encoding: 123 123 92
Width: 707
Flags: HW
LayerCount: 2
Fore
SplineSet
38.7904080981 624.838716137 m 1
 43.4566444402 636.820943409 50.1480399146 645.637058158 57.3063229945 650.40896594 c 1
 183.816404053 662.858571634 275.461802298 742.911861051 301.642667136 867.53277768 c 0
 322.309547601 966.733803914 314.26397879 1060.51774076 333.669871487 1153.6660257 c 0
 373.815454617 1354.39394136 525.329773668 1460.415668 719.91273093 1478.55753475 c 1
 718.646055559 1469.4334034 716.821386473 1462.77916429 714.143305768 1455.49833481 c 1
 600.988466017 1438.45550258 506.500266949 1390.99869471 480.362890558 1264.49379298 c 0
 458.452949218 1160.16073898 478.406871585 1065.94075354 458.375954021 970.555431799 c 0
 422.940434523 804.870435227 295.936327891 695.098095457 131.355306953 648.353190102 c 0
 77.1917360815 632.969453996 l 1
 130.818812639 615.808789498 l 0
 250.689263117 577.450245345 326 493.633091333 326 371 c 0
 326 245.740079773 238.725060171 129.316712201 210.522361113 0.23248899097 c 1
 206.60617927 -17.2903038999 206 -27.3137443143 206 -40 c 0
 206 -137.621314682 294.150474657 -176.06448591 371.871231075 -190.913652806 c 1
 372.021391613 -192.121178702 372 -192.028880971 372 -193 c 0
 372 -198.76926387 369.072070676 -208.863156518 365.257872458 -215.426914458 c 1
 195.539329211 -202.316124686 106 -123.057456379 106 24 c 0
 106 51.3636725969 109.845254803 82.5450179342 116.646400389 116.550745865 c 0
 138.818667579 223.556035346 209 349.547941382 209 463 c 0
 209 583.444623613 97.1922025002 581.516455622 38.7904080981 624.838716137 c 1
EndSplineSet
EndChar

StartChar: bar
Encoding: 124 124 93
Width: 456
Flags: HW
LayerCount: 2
Fore
SplineSet
311.637480034 1161.50795685 m 1
 366.659570428 1422.86288622 l 1
 383.482045411 1439.42361807 404.338573143 1446.61664749 425.991993845 1449.20129536 c 1
 425.864244899 1378.45057117 424.347166882 1315.55023186 410.36611257 1247.50910088 c 0
 129.343218048 -84.5994240449 l 1
 114.964892722 -157.449605696 97.0610106964 -232.894076725 58.0899869099 -297.224686893 c 1
 39.0133394298 -294.500898881 26.3666961418 -287.240046943 10.8416292734 -275.958683093 c 1
 311.637480034 1161.50795685 l 1
EndSplineSet
EndChar

StartChar: braceright
Encoding: 125 125 94
Width: 716
Flags: HW
LayerCount: 2
Fore
SplineSet
671.254928381 650.655451614 m 1
 674.153283309 646.513706586 676 640.61671676 676 634 c 0
 676 633.334760012 675.75266409 630.71166921 675.640701212 629.770300862 c 1
 565.67715659 568.442662781 454.496698203 588.892199916 415.388001813 402.611303954 c 0
 394.667844618 307.298580853 403.653319886 218.095338181 385.36229324 130.490947401 c 0
 340.707187178 -82.3333878704 202.899354825 -196.857865305 -7.77461699387 -214.987085877 c 1
 -6.89302804522 -208.338496755 -2.98374556832 -197.481017823 0.400954834112 -191.753266422 c 1
 104.370844406 -174.893075329 211.002104554 -128.192155058 236.650060794 -7.43302776113 c 1
 249.186885685 55.2510966926 247 114.380689669 247 177 c 0
 247 410.268282412 379.681124436 558.326512063 585.557913914 615.622411021 c 0
 641.014721248 631.056145138 l 1
 586.070674883 648.226159627 l 0
 463.167335762 686.633453102 389 769.377328047 389 892 c 0
 389 915.098377521 390.894001363 938.604576211 396.591142402 963.292187379 c 1
 419.384961143 1068.71359905 507 1186.0867021 507 1303 c 0
 507 1399.96198103 431.852753939 1440.41204998 346.036841704 1455.01872722 c 1
 346.555714684 1460.89420935 349.630491945 1471.16257798 353.380202946 1479.26912092 c 1
 515.918233839 1465.63000902 612 1386.8949609 612 1241 c 0
 612 1113.96753639 509 961.607382862 509 816 c 0
 509 719.738385366 572.663123455 661.285881186 671.254928381 650.655451614 c 1
EndSplineSet
EndChar

StartChar: asciitilde
Encoding: 126 126 95
Width: 1053
Flags: HW
LayerCount: 2
Fore
SplineSet
899.006406161 829 m 1
 953.839649973 829 l 1
 919.553777868 688.358367634 836.189567019 600 719 600 c 0
 565.512149774 600 436.80153601 730 315 730 c 0
 236.3449369 730 186.683026079 677.622738942 161.172489668 613 c 1
 105.316612196 613 l 1
 148.011191316 738.079536576 219.481374528 834 353 834 c 0
 485.793652464 834 629.316558393 701 745 701 c 0
 832.370325083 701 877.817896552 757.184498585 899.006406161 829 c 1
EndSplineSet
EndChar

StartChar: exclamdown
Encoding: 161 161 96
Width: 562
Flags: HW
LayerCount: 2
Fore
SplineSet
326.417285961 803 m 1
 354.8141001 803 l 1
 276.143943089 154.214013788 l 1
 268.276954284 101.951970623 217.078171106 1.78227110142e-14 123 0 c 0
 61.4160541604 0 46 33.663632347 46 77 c 0
 46 100.636224634 50.7081813419 124.920893955 57.8319812868 145.802258159 c 1
 326.417285961 803 l 1
266 1087 m 0
 266 1173.16672972 358.431009573 1236 439 1236 c 0
 492.903734241 1236 536 1209.23768718 536 1136 c 0
 536 1046.29865818 445.102727006 984 367 984 c 0
 311.135959536 984 266 1012.84438888 266 1087 c 0
EndSplineSet
EndChar

StartChar: cent
Encoding: 162 162 97
Width: 942
Flags: HW
LayerCount: 2
Fore
SplineSet
613.169755669 804.839560032 m 1
 460.495630141 116.087683349 l 1
 469.139534632 116.012423399 l 0
 470.090096511 116.004147134 471.043583734 116 472 116 c 0
 637.914205398 116 729.45648551 222.539937836 808.814974507 323.083557269 c 1
 883.927302735 263.58864382 l 1
 784.865925355 123.787832199 639.354665005 -4 455 -4 c 0
 449.907750112 -4 444.840046232 -3.91128916424 439.798387187 -3.73513293275 c 0
 433.979833228 -3.5318318906 l 1
 372.414634146 -281.268292683 l 0
 354.893723577 -359.139006326 325.123644786 -371 316 -371 c 0
 315.787266432 -371 303 -367.096233797 303 -335 c 0
 303 -326.106768494 303.838654703 -316.634409835 306.584398039 -304.736188712 c 0
 375.303568976 3.41963102834 l 1
 368.363350954 4.8735958102 l 0
 187.275579313 42.8111997263 54 198.83212175 54 406 c 0
 54 674.639107064 260.41683055 909 533 909 c 0
 544.270859091 909 556.865340328 908.255802651 570.354115897 906.755120812 c 0
 576.593817699 906.060928287 l 1
 624.602955934 1121.34734969 l 0
 647.509127507 1225.46631139 661.296776342 1245 685 1245 c 0
 691.796293816 1245 697 1249.05942346 697 1217 c 0
 697 1197.08597056 693.23246724 1166.89517887 683.402873812 1121.6790491 c 0
 633.275132103 895.540035325 l 1
 639.846954797 893.863796021 l 0
 748.261129936 866.211178186 864 801.828531589 864 705 c 0
 864 661.327666455 841.969864251 640 792 640 c 0
 730.647774136 640 688.591580489 734.179117427 622.131968146 796.443132315 c 0
 613.169755669 804.839560032 l 1
554.69991074 837.828410822 m 2
 543.469871937 841.159338284 531.575306475 843 519 843 c 0
 340.462745962 843 224 602.536732103 224 405 c 0
 224 279.685543401 274.533480968 161.310269799 395.085025272 126.314742998 c 0
 402.245787088 124.236008681 l 1
 560.963568293 835.970555357 l 1
 554.69991074 837.828410822 l 2
EndSplineSet
EndChar

StartChar: sterling
Encoding: 163 163 98
Width: 1218
Flags: HW
LayerCount: 2
Fore
SplineSet
42.8716864197 -5.74769856924 m 1
 22.1274675017 -3.08093356106 7 18.8487183861 7 49 c 0
 7 144.632108509 289.631800596 214.373263353 317.104875969 219 c 1
 327.696307349 219 l 1
 331.876957261 229.923633641 l 0
 363.807332486 313.354614067 374.85262519 398.75348113 387.817483516 486.515599026 c 0
 390.695860932 506 l 1
 163.463358261 506 l 1
 167.627069243 535.994195832 177.042851721 573.905647555 182.688313821 582 c 1
 403.612725507 582 l 1
 405.8072075 596.447006456 l 0
 441.674591757 832.57395281 587.559879827 1236 981 1236 c 0
 1063.11659543 1236 1174 1212.42739747 1174 1125 c 0
 1174 1080.08753883 1161.09163593 1064 1112 1064 c 0
 1065.52076958 1064 1024.68785461 1165 945 1165 c 0
 701.013605206 1165 656.361158533 803.448602718 600.624715184 603.566185189 c 0
 594.61106739 582 l 1
 862.05647728 582 l 1
 855.575190667 541.952194733 844.072755681 506 827 506 c 0
 578.910217248 506 l 1
 575.564637484 493.344980895 l 0
 552.479973651 406.024730743 509.499698548 230.091879512 509.485805865 230.035020702 c 0
 505.617299959 214.202324351 l 1
 521.273012699 209.670407505 l 0
 629.719954757 178.277871646 726.095986458 95 960 95 c 0
 964.848329647 95 970.120057864 94.9368252245 975.572311314 94.9342442886 c 0
 1002.46910459 94.9215121404 1046 94.9623534922 1046 128 c 0
 1046 195.028043828 935 218.900048127 935 267 c 0
 935 296.684101644 960.430855483 320 991 320 c 0
 1079.04251016 320 1112 248.784632251 1112 178 c 0
 1112 41.125731575 988.754739667 -6 842 -6 c 0
 652.460029127 -6 572.812001673 114 394 114 c 0
 306.033610989 114 194.144386759 81.4183642048 42.8716864197 -5.74769856924 c 1
EndSplineSet
EndChar

StartChar: fraction
Encoding: 8260 8260 99
Width: 882
Flags: HW
LayerCount: 2
Fore
SplineSet
879.213108019 1372.33797901 m 1
 674.879922588 962.411459421 371.276448474 511.870070709 143.152814136 97.280161347 c 0
 115.826628462 48.2814835858 82.2344112024 -4.74660070703 51.7097198562 -49.885511875 c 1
 39.2938689236 -52.333276628 27.1323705252 -53 14 -53 c 0
 3.70472431886 -53 l 1
 8.02487849675 -0.654693728966 31.3448201375 49.5700054428 61.6494230942 100.374780988 c 0
 638.721701784 1080.49873559 l 0
 680.705112955 1153.20171591 770.79611346 1351.69035671 828.948167312 1384.94644299 c 1
 850.0966892 1384.3101729 864.889926026 1380.31833542 879.213108019 1372.33797901 c 1
EndSplineSet
EndChar

StartChar: yen
Encoding: 165 165 100
Width: 1307
Flags: HW
LayerCount: 2
Fore
SplineSet
204.160363088 336 m 1
 413.158661047 336 l 1
 432.748016815 442.517121988 l 1
 424.506577809 459 l 1
 414 459 l 0
 298.960413719 459 265.576832738 458 241 458 c 0
 156.465415033 458 130 469.099012461 130 491 c 0
 130 492.735297246 129.970777319 494.329630042 129.970707999 495.763716276 c 0
 129.970021946 509.956696813 125.52708663 520 337 520 c 0
 410.493216528 520 l 1
 265.34590711 1031.67025917 l 0
 243.881822363 1106.79455579 212.789199835 1147 81 1147 c 0
 77.2550878995 1147 74 1147.13621797 74 1166 c 0
 74 1189.2697501 82.9658536245 1211.32776281 86.6544706023 1217 c 1
 567.397964344 1217 l 1
 569.604688769 1212.81167539 573 1203.87234854 573 1188 c 0
 573 1159.5654063 565.443427306 1147 559 1147 c 0
 507.816318522 1147 411 1139.99283541 411 1049 c 0
 411 1035.17977134 413.463276286 1019.9231302 418.702766887 1003.15676027 c 1
 546.641877313 549.456721619 l 1
 918.692187522 1016.90454727 l 1
 919.045864828 1017.42327398 l 0
 934.412045869 1039.96033951 946 1060.72528022 946 1083 c 0
 946 1126.52166768 917.893971127 1147 822 1147 c 0
 818.255087899 1147 815 1147.13621797 815 1166 c 0
 815 1189.2697501 823.965853625 1211.32776281 827.654470602 1217 c 1
 1291.39796434 1217 l 1
 1293.60468877 1212.81167539 1297 1203.87234854 1297 1188 c 0
 1297 1159.5654063 1289.44342731 1147 1283 1147 c 0
 1217.96124295 1147 1142.34903628 1131.19027094 1064.33998729 1018.14542228 c 1
 660.323954784 520 l 1
 858 520 l 0
 889.906081611 520 933 508.249772485 933 491 c 0
 933 487.125340788 918.381983432 460 859 460 c 0
 606.969783152 460 l 1
 583.368547942 337.828900087 l 1
 846 340 l 0
 892.202489135 340 898 322.153396704 898 319 c 0
 898 292.12041944 847.862120317 277 810 277 c 0
 571.859110096 277 l 1
 559.361697834 209.513973784 l 1
 556.252888645 197.922203258 554 187.136414579 554 176 c 0
 554 98.9398204752 620.775162517 87.2950006493 709.29139596 87.0029941695 c 1
 711.110101372 82.8148080987 713 74.7107154012 713 59 c 0
 713 28.6650171753 704.128738077 17 698 17 c 0
 197 17 l 0
 193.66847109 17 190 17.1663227728 190 35 c 0
 190 62.6388364731 206.091264503 86.1741903242 210.030167688 86.9997343089 c 1
 287.727694904 87.0537611299 362.452094515 96.0229798668 391.564650327 222.177388386 c 0
 391.664302859 222.609216027 l 1
 401.262676502 277 l 1
 278 277 l 0
 115.084776336 277 89.5585044139 293.243505826 87.9988481059 296.055370418 c 1
 88.1495575909 313.410114694 97.3811305729 333.9852975 204.160363088 336 c 1
EndSplineSet
EndChar

StartChar: section
Encoding: 167 167 101
Width: 867
Flags: HW
LayerCount: 2
Fore
SplineSet
331.302588472 1054.30379319 m 2
 254.149753435 967.638964793 232 846.572543318 232 763 c 0
 232 477.49427015 476.027751952 343.345941407 520.193856406 107.393539691 c 1
 520.375521394 106.410179212 520.474496688 105.874421639 520.656161676 104.891061159 c 0
 520.917464553 103.47661733 l 1
 538.482171118 77.1295574815 l 1
 552.809503471 97.0854846874 l 0
 611.437991099 178.746592454 630 270.724358547 630 360 c 0
 630 609.810120339 469.48848861 879.900908039 358.283822535 1052.21804826 c 0
 346.164329342 1070.99780348 l 1
 331.302588472 1054.30379319 l 2
327.595180023 1076.68781778 m 2
 326.17316092 1083.08690375 326 1092.06500401 326 1101 c 0
 326 1253.03413408 462.521634431 1343 594 1343 c 0
 700.651385606 1343 852 1314.95121616 852 1213 c 0
 852 1169.52734654 826.388847396 1151 791 1151 c 0
 747.421547813 1151 707.017294873 1313 577 1313 c 0
 500.254209722 1313 380 1271.20193972 380 1156 c 0
 380 979.916733916 711 835.117402498 711 501 c 0
 711 356.942598289 648.968178685 213.356471113 550.564204952 86.4153449983 c 0
 545.106667015 79.3751210589 l 1
 547.789094693 70.8807667451 l 0
 553.196996378 53.7557447416 556 34.383869308 556 15 c 0
 556 -124.189937795 393.881948215 -205 276 -205 c 0
 164.690332172 -205 2 -171.989306796 2 -65 c 0
 2 -11.9811956118 31.3439479236 14 73 14 c 0
 137.819841923 14 59.0720454239 -166 288 -166 c 0
 374.538727807 -166 509 -129.504683504 509 6 c 0
 509 217.614052332 168 350.999234608 168 657 c 0
 168 793.448255123 235.877594922 936.60311412 324.906495693 1063.22199522 c 0
 329.223270899 1069.36140884 l 1
 327.595180023 1076.68781778 l 2
EndSplineSet
EndChar

StartChar: currency
Encoding: 164 164 102
Width: 1107
Flags: HW
LayerCount: 2
Fore
SplineSet
281.372355209 724.539329576 m 0
 276.173498142 700.624587065 273 676.601233904 273 654 c 0
 273 524.472362116 359.954855578 428 502 428 c 0
 678.638874114 428 844 588.156360095 844 771 c 0
 844 900.185063132 758.442686746 1000 616 1000 c 0
 463.391706421 1000 313.063326946 876.655993909 281.372355209 724.539329576 c 0
862.91003136 1031.8694125 m 2
 915.874358331 1083.87075171 963.098692825 1138.67423237 1020.58582094 1173.55917618 c 1
 1041.25708626 1156.00965377 1055.88517762 1135.13684683 1066.31087664 1112.10517981 c 1
 1021.98763269 1061.32582947 967.734157353 1017.92129642 916.588249645 971.60047435 c 0
 906.550481166 962.509665161 l 1
 913.167397729 950.693742728 l 0
 939.868698615 903.012848288 954 852.120875644 954 795 c 0
 954 677.395819687 900.580914922 571.494360767 815.648225555 481.680482356 c 0
 806.705409365 472.223711213 l 1
 813.501527831 461.123384386 l 0
 843.093293486 412.790167148 889.006969682 366.375781418 908.186862594 322.133496477 c 1
 881.216317935 295.442435983 854.237878655 274.230839983 825.646512292 258.175608472 c 1
 790.907457301 287.825349731 755.998752143 351.41870403 731.63575098 392.648398306 c 0
 723.15948012 406.992856684 l 1
 708.647539822 398.806633952 l 0
 632.870888791 356.060830806 555.875546274 335 478 335 c 0
 402.291585534 335 332.761900051 357.038635796 277.813008902 395.881817471 c 0
 266.218312486 404.078068385 l 1
 256.087963747 394.12861873 l 0
 201.954429234 340.961754476 154.915641505 285.763011476 96.7083347381 253.168904819 c 1
 74.3703109912 271.525959608 59.647758519 291.10858112 50.4039661779 313.425055358 c 1
 94.920851488 363.723726533 149.375572169 408.144163279 201.29418526 454.294041582 c 0
 211.581470181 463.438294846 l 1
 204.777932022 475.403137816 l 0
 177.049683811 524.166608807 163 573.947465825 163 630 c 0
 163 744.613606669 216.610587225 856.6528946 303.21837713 946.180048211 c 0
 312.374862095 955.645178736 l 1
 305.498472169 966.876615614 l 0
 275.970576166 1015.10551242 229.746505068 1061.8942505 209.948049717 1105.97885173 c 1
 235.419398228 1131.03934513 264.786922964 1153.79765492 293.418840476 1169.86233199 c 1
 329.790638741 1139.11160808 361.774859329 1076.07611894 388.566037736 1033.01886792 c 0
 397.094123266 1019.31301618 l 1
 411.222663899 1027.1208939 l 0
 485.232215459 1068.02090923 564.55252513 1092 641 1092 c 0
 718.836827763 1092 782.930350932 1071.18432058 841.205330655 1030.10523651 c 0
 852.793327415 1021.93664863 l 1
 862.91003136 1031.8694125 l 2
EndSplineSet
EndChar

StartChar: quotesingle
Encoding: 39 39 103
Width: 399
Flags: HW
LayerCount: 2
Fore
SplineSet
161.063473593 769.257882703 m 1
 152.927483009 773.049809615 143 805.869071438 143 872 c 0
 143 988.776608941 167.045451314 1158.31449092 175.607300296 1196.36715306 c 0
 188.083064961 1253.3992201 226.7291198 1285 283 1285 c 0
 329.67250537 1285 349 1265.85783014 349 1230 c 0
 349 1223.68706199 347.250058572 1213.90821119 345.310409404 1203.24014077 c 1
 325.547362546 1107.54538756 208.335229439 780.328559862 161.063473593 769.257882703 c 1
EndSplineSet
EndChar

StartChar: quotedblleft
Encoding: 8220 8220 104
Width: 818
Flags: HW
LayerCount: 2
Fore
SplineSet
327.978479491 1210.96726314 m 1
 397.141186399 1125.66659128 l 1
 335.32729021 1084.26806586 297 1064.782851 297 1002 c 0
 297 964.14321738 332.166139839 889.264443904 344.930848282 854.246737056 c 1
 342.864140837 815.387064097 304.498451849 777 250 777 c 0
 176.485897133 777 122 839.577532883 122 931 c 0
 122 1043.12654512 229.063144273 1151.35638426 327.978479491 1210.96726314 c 1
679.978479491 1210.96726314 m 1
 749.141186399 1125.66659128 l 1
 687.32729021 1084.26806586 649 1064.782851 649 1002 c 0
 649 964.14321738 684.166139839 889.264443904 696.930848282 854.246737056 c 1
 694.864140837 815.387064097 656.498451849 777 602 777 c 0
 528.485897133 777 474 839.577532883 474 931 c 0
 474 1043.12654512 581.063144273 1151.35638426 679.978479491 1210.96726314 c 1
EndSplineSet
EndChar

StartChar: guillemotleft
Encoding: 171 171 105
Width: 824
Flags: HW
LayerCount: 2
Fore
SplineSet
200.716953151 502.115085945 m 2
 239.269776545 373.605674633 312.907268903 200.992124822 323.428324057 91.3274265189 c 1
 316.278476506 84.703508008 309.890629549 81.5064906373 301.438323505 80.3509047401 c 1
 286.304525055 93.0239959644 278.066048536 105.423522755 262.84052448 132.292094618 c 0
 55.1283312552 504.038683427 l 1
 426.02081528 872.97918472 l 0
 446.183293011 893.14166245 469.471387137 917.47942313 484.531188226 929.781136708 c 1
 497.934995844 928.658898838 502.607229553 924.70575903 506.059473572 920.916943697 c 1
 445.657169272 813.212425697 297.279624003 642.372832004 203.4 517.2 c 0
 198.251056382 510.334741843 l 1
 200.716953151 502.115085945 l 2
732.303782147 818.07170953 m 2
 510.458341714 510.350614735 l 1
 596.559732867 195.673613912 l 0
 601.40906429 177.246154502 603.870394566 163.296275835 603.029335656 148.998274373 c 0
 603 148.499568221 l 1
 603 148 l 0
 603 139.783534927 596.510254782 132.173456205 579.744931883 130.292896137 c 1
 567.482082426 141.324322433 559.751467533 153.882761026 548.512658517 178.95395037 c 0
 548.3040539 179.41929913 l 1
 378.644934339 504.195328004 l 1
 489.027994429 622.135201667 671.927804709 810.491167934 743.571922327 880.661209641 c 1
 756.972223444 879.049357181 760.730589346 875.26705643 764.156219347 871.23210229 c 1
 753.563415029 852.017663326 741.439599728 830.252799637 732.303782147 818.07170953 c 2
EndSplineSet
EndChar

StartChar: guilsinglleft
Encoding: 8249 8249 106
Width: 556
Flags: HW
LayerCount: 2
Fore
SplineSet
466.618810557 882.486791206 m 2
 200.08034784 535.271935558 l 1
 314.786032639 179.88914426 l 1
 321.548700709 157.910473033 325.235580623 137.217534134 326.6246188 116.848153762 c 1
 318.901554419 109.765210483 312.496439394 106.41730127 305.373070327 105.384392188 c 1
 289.856163283 118.236012762 280.919284681 130.682517793 265.84052448 157.292094618 c 0
 58.1197322743 529.054073192 l 1
 428.02081528 897.97918472 l 0
 448.138112159 918.096481599 471.056595439 939.512623752 485.926859071 954.664209388 c 1
 499.755331856 953.128752481 504.980762878 949.037879691 508.797312713 945.135591308 c 1
 495.01041313 922.107275129 480.185489064 899.445139338 466.618810557 882.486791206 c 2
EndSplineSet
EndChar

StartChar: guilsinglright
Encoding: 8250 8250 107
Width: 556
Flags: HW
LayerCount: 2
Fore
SplineSet
38.0052803033 112.265247961 m 1
 105.220037088 246.947873188 244.918438565 402.572341941 333.640475586 521.854191713 c 0
 338.997397792 529.056276013 l 1
 336.071340688 537.541841616 l 0
 296.361058867 652.701658895 219.328907265 813.748947956 204.722693233 940.050007084 c 1
 214.879691771 949.275976744 225.860433 953.111380976 235.782854597 954.468727914 c 1
 330.569317367 824.026063309 401.406846013 672.479572037 480.82871195 534.621869777 c 1
 124.897966703 168.939597263 l 1
 100.706210955 144.747841516 76.4337349505 122.032962563 51.4756399774 105.332315478 c 1
 44.5038913896 106.513518507 41.4983908125 108.818426626 38.0052803033 112.265247961 c 1
EndSplineSet
EndChar

StartChar: fi
Encoding: 64257 64257 108
Width: 1339
Flags: HW
LayerCount: 2
Fore
SplineSet
703.776241888 903.982421875 m 0
 681.938609719 816.05859375 l 1
 1184.46484375 816.05859375 l 1
 1193.75390625 710.512695312 l 1
 1050.71570453 257.318359375 l 1
 1040.71689445 224.171875 1035.44225749 195.749023438 1035.44225749 170.419921875 c 0
 1035.44225749 130.2109375 1048.46188227 90 1087.72958644 90 c 0
 1128.34082031 90 1173.98339844 130.327148438 1226.12304688 208.537109375 c 0
 1283.54199219 294.23828125 l 1
 1348.43945312 249.577148438 l 1
 1287.92773438 160.538085938 l 0
 1227.63183594 71.5771484375 1139.64746094 -20 1022.06078934 -20 c 0
 927.056696028 -20 874.445055332 64.275390625 874.445055332 163 c 0
 874.445055332 230.1015625 897.675207056 300.426757812 919.973804579 369.697265625 c 0
 1020.77797761 685 l 1
 657.68836765 685 l 1
 567.592256187 323.220703125 l 0
 485.014980444 -7.6162109375 468.128635844 -303 124 -303 c 0
 51.80859375 -303 -91 -262.813476562 -91 -150 c 0
 -91 -111.501953125 -54.16796875 -91 -6 -91 c 0
 68.3515625 -91 94.77734375 -232 172.236033807 -232 c 0
 298.488573889 -232 310.153210744 -71.6884765625 393.030739495 283.640625 c 0
 493.755999878 706.322265625 l 1
 287.936412919 706.322265625 l 1
 313.689844722 817.05078125 l 1
 519.160098856 817.05078125 l 1
 539.764961467 899.546875 l 0
 593.030999743 1111.23925781 690.702725538 1251 911.969944772 1251 c 0
 1011.24301994 1251 1172 1214.30078125 1172 1078 c 0
 1172 1040.79589844 1143.33886719 1017 1095.45436493 1017 c 0
 1015.49083011 1017 947.310301115 1169 846.302110014 1169 c 0
 756.22428319 1169 720.191035291 972.354492188 703.776241888 903.982421875 c 0
EndSplineSet
EndChar

StartChar: fl
Encoding: 64258 64258 109
Width: 1379
Flags: HW
LayerCount: 2
Fore
SplineSet
1346 1198 m 0
 1377 1198 l 1
 1377 1207 l 1
1346 1205 m 1
 1349.97460938 1214.34765625 l 1
 1343 1214 l 1
 1343 1205 l 1
 1346 1205 l 1
926.375919665 1133 m 0
 816.813651267 1133 744.087944227 1065.16113281 704.423578151 912.340820312 c 2
 682.50785088 827 l 1
 1063.41709397 827 l 1
 1150.57617188 1123.78320312 l 1
 1129.35395148 1124.97460938 l 2
 1058.87257975 1128.96777344 996.62236312 1133 926.375919665 1133 c 0
288.089269008 706.306640625 m 1
 313.871684651 817.034179688 l 1
 519.224995405 817.034179688 l 1
 542.027480641 899.10546875 l 2
 611.693343148 1149.64257812 661.668557275 1252 1013.3889247 1252 c 0
 1094.68084848 1252 1196.54101562 1245.06054688 1323.30859375 1232.08496094 c 0
 1343.05078125 1230.11035156 1341.29980469 1228.51171875 1341.80761719 1225.2421875 c 1
 1337.30957031 1206.53808594 1305.15429688 1077.07910156 1083.46687451 256.381835938 c 0
 1074.70231668 223.147460938 1068.36406729 196.073242188 1068.36406729 170.288085938 c 0
 1068.36406729 130.140625 1081.41414055 90 1120.70589497 90 c 0
 1161.33984375 90 1206.98339844 130.327148438 1259.12304688 208.537109375 c 2
 1316.54199219 294.23828125 l 1
 1381.43945312 249.577148438 l 1
 1320.92773438 160.538085938 l 2
 1260.63183594 71.5771484375 1172.6484375 -20 1054.96256444 -20 c 0
 960.64078664 -20 908.140093529 62.4521484375 908.140093529 160 c 0
 908.140093529 227.858398438 933.328448732 297.291992188 953.003691978 370.555664062 c 2
 1036.01039962 685 l 1
 658.27268828 685 l 1
 568.070820723 323.209960938 l 2
 485.410728569 -8.599609375 468.514186179 -303 124 -303 c 0
 51.80859375 -303 -91 -262.813476562 -91 -150 c 0
 -91 -111.501953125 -54.16796875 -91 -6 -91 c 0
 68.3505859375 -91 94.7783203125 -232 172.260962781 -232 c 0
 298.649487649 -232 310.330429712 -71.6943359375 393.30343863 283.630859375 c 1
 494.144476134 706.306640625 l 1
 288.089269008 706.306640625 l 1
EndSplineSet
EndChar

StartChar: endash
Encoding: 8211 8211 110
Width: 1044
Flags: W
LayerCount: 2
Fore
SplineSet
113.005300219 491.223758911 m 1
 187.149054587 507.252803554 257.837191944 508 330 508 c 0
 889.448470887 508 l 1
 913.025098393 497.118433361 920 488.68872027 920 471 c 0
 920 469.600368941 919.92844482 466.655853962 919.92844482 466.655853962 c 1
 864.48061375 453.343854706 810.34292641 452 754 452 c 0
 142 452 l 0
 125.544476586 452 113.334804781 469.871487213 113.005300219 491.223758911 c 1
EndSplineSet
EndChar

StartChar: periodcentered
Encoding: 183 183 111
Width: 483
Flags: W
LayerCount: 2
Fore
SplineSet
112 609 m 0
 112 700.034683108 175.910401134 743 240 743 c 0
 306.158122657 743 369 700.078369911 369 609 c 0
 369 519.001355821 306.213434447 476 240 476 c 0
 175.854487917 476 112 519.054807894 112 609 c 0
EndSplineSet
EndChar

StartChar: paragraph
Encoding: 182 182 112
Width: 1117
Flags: HW
LayerCount: 2
Fore
SplineSet
935.154941681 1211.27038741 m 1
 658.493192301 -107.884910357 l 1
 657.65671658 -110.243837322 657 -112.491613854 657 -116 c 0
 657 -168.807196139 787.243730533 -162.373948757 814.227602178 -165.340016326 c 1
 806.021847818 -207 l 1
 579.937400018 -207 l 1
 882.937400018 1237 l 1
 708.196949012 1237 l 1
 405.196949012 -207 l 1
 148.675121879 -207 l 1
 156.506439466 -167.241003019 l 1
 184.618192787 -161.275108524 355.784740764 -172.121745068 367.635602476 -115.500961334 c 0
 516.950028301 594 l 1
 496 594 l 0
 274.245410796 594 87 644.355233761 87 846 c 0
 87 871.741510699 89.8406160161 899.465445234 96.6323794788 931.483758701 c 0
 157.008070454 1217.07036046 423.499753255 1286 671 1286 c 0
 1119.1846085 1286 l 1
 1117.37894075 1274.26315961 l 1
 1084.32728434 1257.98171045 978.448541659 1267.79258738 937.504071518 1214.33730692 c 0
 935.154941681 1211.27038741 l 1
EndSplineSet
EndChar

StartChar: bullet
Encoding: 8226 8226 113
Width: 697
Flags: HW
LayerCount: 2
Fore
SplineSet
394 835 m 0
 516.902999803 835 588 746.30945631 588 634 c 0
 588 480.85585261 458.764696541 332 289 332 c 0
 161.800197499 332 93 419.862935863 93 529 c 0
 93 683.090837722 226.345965711 835 394 835 c 0
EndSplineSet
EndChar

StartChar: quotesinglbase
Encoding: 8218 8218 114
Width: 507
Flags: HW
LayerCount: 2
Fore
SplineSet
163.021520509 -207.967263137 m 1
 93.858813601 -122.666591283 l 1
 155.67270979 -81.2680658618 194 -61.7828509958 194 1 c 0
 194 38.8567826203 158.833860161 113.735556096 146.069151718 148.753262944 c 1
 148.135859163 187.612935903 186.501548151 226 241 226 c 0
 314.514102867 226 369 163.422467117 369 72 c 0
 369 -40.1265451217 261.936855727 -148.356384261 163.021520509 -207.967263137 c 1
EndSplineSet
EndChar

StartChar: quotedblbase
Encoding: 8222 8222 115
Width: 835
Flags: HW
LayerCount: 2
Fore
SplineSet
163.021520509 -207.967263137 m 1
 93.858813601 -122.666591283 l 1
 155.67270979 -81.2680658618 194 -61.7828509958 194 1 c 0
 194 38.8567826203 158.833860161 113.735556096 146.069151718 148.753262944 c 1
 148.135859163 187.612935903 186.501548151 226 241 226 c 0
 314.514102867 226 369 163.422467117 369 72 c 0
 369 -40.1265451217 261.936855727 -148.356384261 163.021520509 -207.967263137 c 1
491.021520509 -207.967263137 m 1
 421.858813601 -122.666591283 l 1
 483.67270979 -81.2680658618 522 -61.7828509958 522 1 c 0
 522 38.8567826203 486.833860161 113.735556096 474.069151718 148.753262944 c 1
 476.135859163 187.612935903 514.501548151 226 569 226 c 0
 642.514102867 226 697 163.422467117 697 72 c 0
 697 -40.1265451217 589.936855727 -148.356384261 491.021520509 -207.967263137 c 1
EndSplineSet
EndChar

StartChar: quotedblright
Encoding: 8221 8221 116
Width: 821
Flags: HW
LayerCount: 2
Fore
SplineSet
190.021520509 783.032736863 m 1
 120.858813601 868.333408717 l 1
 182.67270979 909.731934138 221 929.217149004 221 992 c 0
 221 1029.85678262 185.833860161 1104.7355561 173.069151718 1139.75326294 c 1
 175.135859163 1178.6129359 213.501548151 1217 268 1217 c 0
 341.514102867 1217 396 1154.42246712 396 1063 c 0
 396 950.873454878 288.936855727 842.643615739 190.021520509 783.032736863 c 1
551.021520509 783.032736863 m 1
 481.858813601 868.333408717 l 1
 543.67270979 909.731934138 582 929.217149004 582 992 c 0
 582 1029.85678262 546.833860161 1104.7355561 534.069151718 1139.75326294 c 1
 536.135859163 1178.6129359 574.501548151 1217 629 1217 c 0
 702.514102867 1217 757 1154.42246712 757 1063 c 0
 757 950.873454878 649.936855727 842.643615739 551.021520509 783.032736863 c 1
EndSplineSet
EndChar

StartChar: guillemotright
Encoding: 187 187 117
Width: 820
Flags: HW
LayerCount: 2
Fore
SplineSet
302.52124532 87.383860384 m 1
 380.307039603 231.177191718 500.180097995 363.911992205 599.612090067 496.816140024 c 0
 605.051751883 504.086975125 l 1
 602.033260415 512.651067196 l 0
 559.314349906 633.853557478 485.282965293 783.75125026 470.703689552 914.928688071 c 1
 479.23082739 922.425405359 491.062991688 926.823285753 502.684160757 928.454432949 c 1
 595.494720578 798.240028622 666.504478778 647.310921111 746.77172511 509.588737767 c 1
 389.906186509 143.94781707 l 1
 365.9677623 120.00939286 340.378226351 96.849595887 316.342694228 80.341704683 c 1
 309.581346323 81.4370032987 306.84743047 83.366043957 302.52124532 87.383860384 c 1
44.6855177601 136.704759765 m 1
 97.4976355773 255.476064848 211.1606776 389.973628646 287.82489395 497.106956623 c 0
 292.640890053 503.837002458 l 1
 290.314451932 511.778980869 l 0
 261.453318185 610.304920213 195.825346217 757.298623595 190.288864283 864.761142013 c 1
 202.130728725 874.271514442 213.011303317 877.963360058 223.336710046 879.403682823 c 1
 300.179576369 763.665010544 358.014516824 632.378858508 424.232247017 509.61383409 c 1
 359.900710659 439.475267294 137.563346169 185.395795875 56.4110552603 129.35311055 c 1
 50.4913596425 130.371814903 48.6291715276 132.214175923 44.6855177601 136.704759765 c 1
EndSplineSet
EndChar

StartChar: questiondown
Encoding: 191 191 118
Width: 696
Flags: HW
LayerCount: 2
Fore
SplineSet
472.25514594 883.030540681 m 1
 538.015445446 878.427319715 l 1
 458.528498738 529.619894751 l 1
 453.267383667 529.089758238 445.525307765 529 437 529 c 0
 323 529 l 0
 211.012384051 529 135 402.366699021 135 297 c 0
 135 228.831908376 160.288208213 111 270 111 c 0
 303.761824037 111 344.910570353 129 369 129 c 0
 412.06881323 129 436 102.524059027 436 77 c 0
 436 51.4421989232 397.402039127 -4 264 -4 c 0
 85.843613379 -4 43 159.029744454 43 263 c 0
 43 424.233405668 113.157042598 666 391 666 c 0
 421.481946056 666 l 1
 472.25514594 883.030540681 l 1
674 1180 m 0
 674 1085.43250645 614.722911097 1033 539 1033 c 0
 496.04977024 1033 463 1066.73552198 463 1106 c 0
 463 1179.77658812 540.19243384 1235 606 1235 c 0
 643.527898381 1235 674 1204.92616927 674 1180 c 0
546 900 m 2
 556.431917648 900 561.62147893 908.11630201 562.397765274 909.356134714 c 1
 596.055918029 943.014287469 l 1
 575.81170864 940.483761295 l 0
 565.973833381 939.254026888 556.947824713 938.140775804 546.579409512 936.844723904 c 0
 543.457210764 936.454449061 529 932.607589085 529 917 c 0
 529 900 l 1
 546 900 l 2
EndSplineSet
EndChar

StartChar: grave
Encoding: 96 96 119
Width: 532
Flags: W
LayerCount: 2
Fore
SplineSet
105.02081528 1454.02081528 m 2
 98.4794493947 1460.56218117 97 1465.81564333 97 1475 c 0
 97 1506.99821315 142.082759978 1553 179 1553 c 0
 194.216237946 1553 207.856894862 1546.72498655 218.011342518 1527.97831395 c 1
 263.679443557 1441.6060359 366.793995934 1252.49120791 424.453397143 1145.01889137 c 1
 427.061207787 1137.49298548 428 1132.20303009 428 1127 c 0
 428 1117.24588599 421.66214559 1113 417 1113 c 0
 412.289013382 1113 401.943031899 1115.48422205 391.691629376 1127.31276342 c 1
 336.785462572 1187.21039993 188.955893293 1360.01418874 105.683359763 1453.31955764 c 0
 105.362040541 1453.67959002 l 1
 105.02081528 1454.02081528 l 2
EndSplineSet
EndChar

StartChar: acute
Encoding: 180 180 120
Width: 558
Flags: W
LayerCount: 2
Fore
SplineSet
474.384255073 1453.39486639 m 2
 390.164589021 1360.15166468 242.8716366 1186.8358061 188.542510642 1127.56766869 c 0
 178.566800816 1116.82459657 165.506955979 1113 163 1113 c 0
 158.336739678 1113 152 1117.24562675 152 1127 c 0
 152 1131.45536422 154.149018876 1140.93137624 155.571558328 1145.08339666 c 1
 214.219307505 1256.25280726 314.977315188 1440.95751845 361.947963431 1527.90318647 c 0
 372.336878228 1547.08272148 384.757556052 1553 401 1553 c 0
 437.911428525 1553 483 1507.00493366 483 1475 c 0
 483 1465.81564333 481.520550605 1460.56218117 474.97918472 1454.02081528 c 0
 474.673768056 1453.71539862 l 1
 474.384255073 1453.39486639 l 2
EndSplineSet
EndChar

StartChar: circumflex
Encoding: 710 710 121
Width: 795
Flags: W
LayerCount: 2
Fore
SplineSet
462.866180847 1362.84671441 m 2
 423.622123168 1328.83519775 209.170999399 1136.72917541 147.525198221 1092.9587695 c 1
 199.708260131 1169.41783146 407.545972387 1462.06129652 433.6 1496.8 c 0
 456.473064219 1527.29741896 490.355088199 1554 519 1554 c 0
 546.589483698 1554 564.627521079 1530.48661669 574.944819202 1501.41059471 c 1
 588.025296351 1463.10348306 692.312096748 1110.01183471 695.004198242 1085.70903904 c 1
 661.130655383 1112.3779802 512.527456261 1324.21518553 487.977267258 1359.67656964 c 0
 477.188912599 1375.25974859 l 1
 462.866180847 1362.84671441 l 2
EndSplineSet
EndChar

StartChar: tilde
Encoding: 732 732 122
Width: 852
Flags: W
LayerCount: 2
Fore
SplineSet
160.475615307 1148 m 1
 155.886910917 1148 l 1
 195.368840331 1292.79298746 261.611004919 1347 343 1347 c 0
 444.791693465 1347 538.961785655 1237 632 1237 c 0
 683.742322563 1237 725.237280304 1279.23608374 752.56945901 1345 c 1
 757.448876007 1345 l 1
 720.084617299 1201.61594021 650.18620165 1138 568 1138 c 0
 466.347341118 1138 365.461128077 1254 274 1254 c 0
 221.211445863 1254 184.432070732 1205.0770311 160.475615307 1148 c 1
EndSplineSet
EndChar

StartChar: macron
Encoding: 175 175 123
Width: 896
Flags: W
LayerCount: 2
Fore
SplineSet
736.105961766 1319 m 1
 168.800288234 1319 l 1
 187.894038234 1413 l 1
 755.199711766 1413 l 1
 736.105961766 1319 l 1
EndSplineSet
EndChar

StartChar: breve
Encoding: 728 728 124
Width: 669
Flags: HW
LayerCount: 2
Fore
SplineSet
127.549886836 897 m 1
 157.158544493 897 l 1
 184.241341687 812.921553553 248.272067846 781 336 781 c 0
 418.65144171 781 511.542530754 812.310101681 558.319778517 897 c 1
 584.576317805 897 l 1
 549.007726623 763.504045287 447.057480187 684 309 684 c 0
 181.116424662 684 124 743.187689839 124 849 c 0
 124 863.567134453 125.41556442 881.446392494 127.549886836 897 c 1
EndSplineSet
EndChar

StartChar: dotaccent
Encoding: 729 729 125
Width: 407
Flags: HW
LayerCount: 2
Fore
SplineSet
238 883 m 0
 281.99656832 883 310 852.949210278 310 813 c 0
 310 752.81330591 249.171047573 699 191 699 c 0
 148.673231646 699 120 727.378998905 120 768 c 0
 120 827.487830486 180.242635316 883 238 883 c 0
EndSplineSet
EndChar

StartChar: dieresis
Encoding: 168 168 126
Width: 885
Flags: W
LayerCount: 2
Fore
SplineSet
272 1284 m 0
 314.848394782 1284 343 1254.01791318 343 1214 c 0
 343 1153.59608965 282.946890732 1100 226 1100 c 0
 181.47191607 1100 154 1128.44008505 154 1168 c 0
 154 1227.83075613 212.452148381 1284 272 1284 c 0
711 1284 m 0
 754.99656832 1284 783 1253.94921028 783 1214 c 0
 783 1153.65015757 723.049547596 1100 665 1100 c 0
 621.617138976 1100 594 1128.3502657 594 1168 c 0
 594 1227.886271 652.555066935 1284 711 1284 c 0
EndSplineSet
EndChar

StartChar: ring
Encoding: 730 730 127
Width: 610
Flags: W
LayerCount: 2
Fore
SplineSet
360 1438 m 0
 273.38982127 1438 197 1360.92992435 197 1278 c 0
 197 1215.80699631 244.06632372 1167 311 1167 c 0
 394.116301769 1167 475 1241.38682477 475 1325 c 0
 475 1386.93443907 428.275139688 1438 360 1438 c 0
376 1477 m 0
 462.183043518 1477 518 1417.74573186 518 1341 c 0
 518 1232.64633438 405.764072102 1127 295 1127 c 0
 208.568420227 1127 153 1184.37454369 153 1262 c 0
 153 1371.66351163 261.314022036 1477 376 1477 c 0
EndSplineSet
EndChar

StartChar: cedilla
Encoding: 184 184 128
Width: 577
Flags: W
LayerCount: 2
Fore
SplineSet
316.21928015 -6 m 1
 316.539941679 -31.6878609488 317 -71.4724245714 317 -94 c 0
 317 -108.678343666 l 1
 331.521505577 -110.818355015 l 0
 420.717732452 -123.963062133 450 -168.307970464 450 -217 c 0
 450 -330.654113349 321.651590585 -408 196 -408 c 0
 158.661635748 -408 124.128438188 -399.887831017 88.2990575901 -384.482345084 c 1
 99.3799782035 -359.217846085 l 1
 123.65826918 -369.599640089 144.932006617 -373 168 -373 c 0
 241.236384569 -373 315 -323.433760034 315 -246 c 0
 315 -180.500315082 253.896219742 -156.446399006 191.995014306 -149.129089962 c 1
 260.696977488 -6 l 1
 316.21928015 -6 l 1
EndSplineSet
EndChar

StartChar: hungarumlaut
Encoding: 733 733 129
Width: 815
Flags: HW
LayerCount: 2
Fore
SplineSet
760.710246741 1022.51878231 m 1
 700.328142699 946.643224584 474.064661001 698.841644717 429.541519466 659.461759831 c 1
 426.078857768 660.082675215 424.129679033 660.870932358 423.187334213 661.283135553 c 1
 454.356872948 724.043320635 614.529567195 1005.27958508 652.475665005 1052.85842295 c 1
 693.252028589 1051.16200248 728.45331818 1039.01319142 760.710246741 1022.51878231 c 1
456.790484748 1022.30247691 m 1
 395.589714887 948.901661063 155.379192468 701.892098 103.707718773 659.419454421 c 1
 101.815797939 659.759119878 100.516571101 660.176079705 99.621220582 660.47245433 c 1
 134.664701645 731.517046994 300.229206869 996.831931882 348.385976837 1052.87104317 c 1
 389.882010539 1051.24026388 426.270005236 1039.1034567 456.790484748 1022.30247691 c 1
EndSplineSet
EndChar

StartChar: ogonek
Encoding: 731 731 130
Width: 557
Flags: W
LayerCount: 2
Fore
SplineSet
93.633358103 -191.511981544 m 0
 114.874011682 -89.3934547236 194.853433991 -29.4699072529 287.937095398 -2.89056372323 c 1
 253.321193585 -44.7707758231 198 -84.6782048499 198 -167 c 0
 198 -245.528790307 269.987836181 -281 339 -281 c 0
 373.667583805 -281 410.978387076 -270.606219061 441.373357164 -259.495553162 c 1
 438.656657327 -302.962750555 l 1
 366.649202436 -337.077917854 320.947724677 -354 251 -354 c 0
 158.815339244 -354 90 -308.308538159 90 -227 c 0
 90 -215.94380277 90.9192158382 -204.17797878 93.633358103 -191.511981544 c 0
EndSplineSet
EndChar

StartChar: caron
Encoding: 711 711 131
Width: 688
Flags: W
LayerCount: 2
Fore
SplineSet
374.081116883 689.00855671 m 1
 331.632637153 678.399698855 287.745224953 671.891756723 249.725919181 671.079601447 c 1
 208.401288451 725.255412816 135.743626288 953.288220848 118.679560001 1033.1931218 c 1
 123.648939966 1034.93726703 128.022781027 1035.51584643 132.479952823 1035.86414212 c 1
 192.312756956 996.900140184 282.528185074 852.617254253 326.212495506 792.054914791 c 0
 337.729557421 776.088078953 l 1
 351.847880442 789.808702734 l 0
 421.705959364 857.698948447 550.854218306 991.502422964 624.411342561 1035.86944724 c 1
 627.59674232 1035.64840092 629.972876379 1035.27694281 631.739533244 1034.96492889 c 1
 554.941830969 914.618839805 460.13980589 801.207322441 374.081116883 689.00855671 c 1
EndSplineSet
EndChar

StartChar: emdash
Encoding: 8212 8212 132
Width: 1762
Flags: HW
LayerCount: 2
Fore
SplineSet
112.057907292 488.333897821 m 1
 229.419859953 506.298558611 340.219864252 508 454 508 c 0
 1609.79247913 508 l 1
 1629.51913148 499.725814784 1638 489.810082039 1638 473 c 0
 1638 471.904732031 1637.94330425 469.779452657 1637.94330425 469.779452657 c 1
 1523.63287987 451.941193927 1411.09825551 452 1297 452 c 0
 141 452 l 0
 124.326388285 452 112.977371387 467.461773456 112.057907292 488.333897821 c 1
EndSplineSet
EndChar

StartChar: AE
Encoding: 198 198 133
Width: 1964
Flags: HW
LayerCount: 2
Fore
SplineSet
672.09528591 555 m 1
 1003.47375944 555 l 1
 1210.27875855 1063 l 1
 1148.69442873 1063 l 1
 672.09528591 555 l 1
987.469908227 1063.58886719 m 0
 987.469908227 1110.7890625 931.707185016 1132.29296875 873.346861513 1136.52636719 c 1
 889.845447634 1205.24707031 l 1
 2026.59179688 1205.24707031 l 1
 1965.9609375 927.079101562 l 1
 1965.87792969 926.524414062 l 2
 1963.99707031 919.418945312 1929.97167969 891 1900.68847656 891 c 0
 1881.14160156 891 1869.84667969 897.803710938 1868.65527344 915.077148438 c 0
 1860.94824219 1048.0234375 1855.63769531 1137 1748.47094473 1137 c 2
 1453.63605039 1137 l 2
 1428.27677182 1137 1396.78800854 1127.0546875 1372.46951278 1065.95898438 c 2
 1234.00279789 719 l 1
 1519.26442659 719 l 2
 1629.30082745 719 1675.24436984 806.112304688 1687.47816681 835 c 1
 1749.3645657 835 l 1
 1665.00209869 505 l 1
 1610.83395158 505 l 1
 1606.42006425 543.212890625 1590.24871961 658 1512.40784618 658 c 2
 1210.12675585 658 l 1
 1021.80993235 180.967773438 l 2
 1013.33747609 159.735351562 1012.77206477 147.004882812 1011.86004857 136.952148438 c 2
 1011.79130849 136.19140625 l 1
 1011.79130849 135.42578125 l 2
 1011.79130849 100.319335938 1042.56072141 97 1055.95244979 97 c 2
 1360.58232069 97 l 2
 1497.94048086 97 1587.89993902 182.475585938 1638.46068446 303.250976562 c 0
 1646.37450659 321.896484375 1695.14801009 344.981445312 1729.85981152 344.981445312 c 0
 1753.62064132 344.981445312 1762.10084294 336.46484375 1762.10084294 325.981445312 c 0
 1762.10084294 323.266601562 1761.5102592 320.166992188 1761.5102592 320.166992188 c 1
 1761.02520599 319.547851562 l 1
 1760.46463552 318.833984375 l 1
 1634.68094852 27 l 1
 668.175165307 27 l 1
 701.169433039 97.048828125 l 1
 766.410541211 98.068359375 832.660482594 113.114257812 873.764142812 229.939453125 c 1
 973.722861437 488.904296875 l 1
 601.140037999 488.904296875 l 1
 357.209589478 228.646484375 l 2
 335.973747216 206.063476562 309.476868807 186.442382812 309.476868807 153.904296875 c 0
 309.476868807 111.80078125 353.780331099 99.44921875 422.355816984 97.21484375 c 1
 418.595444442 83.2919921875 412.242312458 59.7734375 403.511354789 26.978515625 c 1
 -80 26.978515625 l 1
 -54.3974609375 97.048828125 l 1
 13.73046875 97.998046875 85.9951171875 111.37890625 188.470132914 221.780273438 c 1
 964.214463204 1013.7421875 l 2
 978.857067306 1029.52246094 987.469908227 1045.90527344 987.469908227 1063.58886719 c 0
EndSplineSet
EndChar

StartChar: ordfeminine
Encoding: 170 170 134
Width: 976
Flags: HW
LayerCount: 2
Fore
SplineSet
238.110093242 794.984349207 m 0
 246.855842695 697.571665693 291.295754333 647 354 647 c 0
 488.956772711 647 620 851.649639116 620 1030 c 0
 620 1132.44222513 562.648718192 1202 490 1202 c 0
 373.528663095 1202 236 1041.33622698 236 835 c 0
 236 823.033247059 235.853946422 809.649303531 238.110093242 794.984349207 c 0
539.274845037 743.495281709 m 2
 481.697753322 643.694989403 392.642965383 592 313 592 c 0
 217.284823936 592 126 662.082840125 126 832 c 0
 126 1036.71781568 271.759281981 1237 463 1237 c 0
 554.08639822 1237 609.987118177 1197.28882661 626.323117212 1114.70127593 c 2
 639.210773204 1049.54701508 l 1
 683.137034851 1188.64684363 l 2
 689.708345335 1207.53936128 698.939507868 1218 720 1218 c 0
 752.59709474 1218 777 1193.63052048 777 1166 c 0
 777 1161.32072619 775.57529369 1155.27889394 773.714969023 1147.89002575 c 2
 706.845155179 940.294185759 l 2
 683.762230756 871.045412492 662 798.307648442 662 746 c 0
 662 711.3145898 673.450075617 673 713 673 c 0
 772.877946324 673 845.986830874 781.219384239 872.894299777 817.300175179 c 1
 905.124167265 790.071494025 l 1
 901.913691738 785.523320361 l 1
 857.205849531 716.429382406 759.460904668 591 662 591 c 0
 646.592209506 591 570 601.570755132 570 713 c 0
 570 720.015791556 570.022242613 726.119559186 570.868723904 732.891409512 c 2
 581.299563622 816.338127257 l 1
 539.274845037 743.495281709 l 2
EndSplineSet
EndChar

StartChar: Oslash
Encoding: 216 216 136
Width: 1139
Flags: HW
LayerCount: 2
Fore
SplineSet
810.988800589 1100.98144531 m 1
 807.048226589 1104.54003906 l 2
 762.652427349 1144.6328125 705.304397941 1168 635.145213583 1168 c 0
 398.122642426 1168 242 799.419921875 242 516 c 0
 242 403.109375 266.087890625 299.201171875 316.198928724 225.580078125 c 0
 322.369063098 216.362304688 l 1
 779.641505821 1038.58398438 l 0
 787.713296008 1053.3828125 797.544713579 1073.35546875 808.644854903 1096.16601562 c 0
 810.988800589 1100.98144531 l 1
511.406042638 84 m 0
 762.650520927 84 928 446.614257812 928 730 c 0
 928 830.630859375 907.639648438 924.081054688 865.664026539 995.939453125 c 0
 859.583493992 1006.5625 l 1
 853.785111882 995.775390625 l 0
 701.237046886 711.982421875 524.439295735 418.1640625 372.642360955 137.2578125 c 0
 369.738880451 131.885742188 l 1
 374.560221354 128.237304688 l 0
 411.859365192 100.005859375 457.541999193 84 511.406042638 84 c 0
963.947265625 1342.94628906 m 1
 985.125 1342.30957031 1001.20117188 1337.74707031 1014.24414062 1330.31640625 c 1
 984.981445312 1270.10742188 954.709960938 1211.01660156 922.336914062 1150.09570312 c 0
 919.616210938 1144.9765625 l 1
 924.05859375 1141.28613281 l 0
 1039.74511719 1045.17285156 1118 890.598632812 1118 690.94140625 c 0
 1118 351.154296875 860.257414122 -21 523.685305887 -21 c 0
 455.646062646 -21 388.282645957 -0.6357421875 327.016919611 36.328125 c 0
 320.883007252 40.0283203125 l 1
 317.524845132 33.5986328125 l 0
 315.373448055 29.478515625 313.166764743 25.2431640625 311.068747478 21.2060546875 c 0
 284.795898438 -27.736328125 251.234375 -80.74609375 220.709960938 -125.885742188 c 1
 208.293945312 -128.333007812 196.131835938 -129 183 -129 c 0
 172.6953125 -129 l 1
 176.993164062 -75.2607421875 200.342773438 -23.7099609375 230.671875 28.4091796875 c 0
 263.685546875 85.8837890625 l 1
 259.16015625 89.705078125 l 0
 139.18359375 191.001953125 55 355.862304688 55 550.700195312 c 0
 55 907.9921875 302.274423403 1255 629.478374582 1255 c 0
 707.282310628 1255 782.970118402 1234.61523438 850.235354365 1196.13671875 c 0
 856.302541958 1192.66601562 l 1
 859.587306836 1198.93847656 l 0
 894.708007812 1264.97167969 934.706054688 1326.17871094 963.947265625 1342.94628906 c 1
EndSplineSet
EndChar

StartChar: OE
Encoding: 338 338 137
Width: 1773
Flags: HW
LayerCount: 2
Fore
SplineSet
1703.89941406 313.784179688 m 1
 1703.046875 312.112304688 l 1
 1625 27 l 1
 547.326927745 27 l 0
 234.393554688 27 55 252.283203125 55 559.127929688 c 0
 55 885.11328125 290.0546875 1207 829.806380488 1207 c 0
 1815.18359375 1207 l 1
 1802 928.333007812 l 1
 1802 927.938476562 l 1
 1800.90332031 921.840820312 1774.71582031 895.704101562 1746 895.704101562 c 0
 1726.54296875 895.704101562 1711.09863281 903.486328125 1706.55371094 921.956054688 c 0
 1675.44238281 1053.56054688 1656.70703125 1137 1551.58841692 1137 c 0
 1248.65402516 1137 l 0
 1224.37217636 1137 1189.87589775 1126.375 1176.84779096 1063.18457031 c 1
 1092.38339103 689 l 1
 1377.23027332 689 l 0
 1486.68163163 689 1532.37176622 776.133789062 1544.52766213 805 c 1
 1607.01269531 805 l 1
 1522.14477967 475 l 1
 1468.31207833 475 l 1
 1463.9259104 513.1953125 1447.85907111 628 1370.41196032 628 c 0
 1078.49949372 628 l 1
 978.208764473 178.521484375 l 1
 975.129464025 166.114257812 973.862198596 155.552734375 973.862198596 147.165039062 c 0
 973.862198596 104.330078125 1004.15100143 97 1022.67123569 97 c 0
 1335.34579863 97 l 0
 1471.47251467 97 1549.90677887 182.161132812 1580.47851562 301.75 c 1
 1584.69921875 317.400390625 1626.81542969 340.2578125 1664 340.2578125 c 0
 1690.23242188 340.2578125 1702.73535156 330.63671875 1704.03125 316.821289062 c 1
 1704.02636719 315.239257812 1703.89941406 313.784179688 1703.89941406 313.784179688 c 1
584.341316852 116 m 0
 770.127065091 116 l 1
 990.832157684 1132 l 1
 835.650096834 1132 l 0
 409.214314047 1132 236 784.090820312 236 507 c 0
 236 295.124023438 347.326943184 116 584.341316852 116 c 0
EndSplineSet
EndChar

StartChar: ordmasculine
Encoding: 186 186 138
Width: 820
Flags: HW
LayerCount: 2
Fore
SplineSet
411 591 m 0
 253.933954879 591 122 727.035145163 122 889 c 0
 122 1071.81154665 265.815797544 1238 448 1238 c 0
 615.972966192 1238 740 1123.34492791 740 932 c 0
 740 750.697855489 594.7694134 591 411 591 c 0
469 1203 m 0
 341.419555089 1203 237 977.535858369 237 818 c 0
 237 713.142060838 280.502639239 625 396 625 c 0
 526.353843595 625 627 844.51108447 627 1006 c 0
 627 1105.28791393 584.470500248 1203 469 1203 c 0
EndSplineSet
EndChar

StartChar: ae
Encoding: 230 230 139
Width: 1346
Flags: HW
LayerCount: 2
Fore
SplineSet
54.6259765625 271.6484375 m 1
 54.400390625 272.47265625 l 2
 49.0380859375 292.135742188 48 312.489257812 48 334 c 0
 48 560.607421875 240.0703125 778 453.744235245 778 c 0
 517.738980308 778 574.113271364 711 646.229021206 711 c 0
 708.45937274 711 701.59741617 779 735.288702379 779 c 0
 738.338034673 779 755.21004779 777.215820312 760.324871204 776.627929688 c 1
 775.19468123 762.526367188 813.028456593 717.775390625 831.54212282 713.555664062 c 1
 838.232434585 711.715820312 842.198484386 712 844.45863414 712 c 0
 909.845715835 712 1007.10695019 778 1062 778 c 0
 1188.19726562 778 1300 707.108398438 1300 569 c 0
 1300 360.734375 962.040120266 317.405273438 789.592707768 303.952148438 c 0
 772.131924202 302.58984375 l 1
 774.536869295 284.6640625 l 0
 796.315622458 122.369140625 839.792580385 101 960.3323024 101 c 0
 1118.5859375 101 1169.87890625 253 1243 253 c 0
 1265.15820312 253 1280.19433594 239.529296875 1281.91015625 210.720703125 c 1
 1198.00488281 93.6552734375 1095.57519531 -12 944.05289537 -12 c 0
 816.401900307 -12 724.627546265 43.3701171875 624.667940505 152.676757812 c 0
 611.82238849 166.724609375 l 1
 599.979855839 151.764648438 l 0
 541.07883818 77.361328125 450.387092993 -11 349.36213875 -11 c 0
 202.837890625 -11 78.7265625 128.006835938 54.765625 270.8125 c 0
 54.6259765625 271.6484375 l 1
232.133789062 252.72265625 m 1
 232.279296875 251.928710938 l 2
 241.155273438 203.609375 276.396484375 101 353.192982307 101 c 0
 524.616279431 101 608.093189342 327.270507812 608.093189342 484 c 0
 608.093189342 529.553710938 578.198225947 708 452.787243538 708 c 0
 289.484375 708 227 484.443359375 227 331 c 0
 227 302.759765625 230.09375 276.180664062 232.063476562 253.52734375 c 0
 232.133789062 252.72265625 l 1
802.323190641 409 m 0
 888.214634739 409 1144 430.213867188 1144 588 c 0
 1144 694.939453125 1057.63085938 703 1005.34063884 703 c 0
 889.932041701 703 782.042254158 575.712890625 782.042254158 455 c 0
 782.042254158 446.619140625 780.738137202 430.909179688 788.003794683 417.631835938 c 0
 792.726424101 409 l 1
 802.323190641 409 l 0
EndSplineSet
EndChar

StartChar: dotlessi
Encoding: 305 305 140
Width: 642
Flags: HW
LayerCount: 2
Fore
SplineSet
634.004882812 240 m 0
 634.004882812 152.124023438 415.416015625 -26 310.004882812 -26 c 0
 226.526367188 -26 155.668945312 23.2041015625 139.828125 107.455078125 c 0
 137.934570312 121.6484375 136.004882812 139.39453125 136.004882812 156 c 0
 136.004882812 281.96484375 210.290039062 417.048828125 246.155273438 526.693359375 c 0
 268.6640625 595.19921875 306.004882812 668.294921875 306.004882812 715 c 0
 306.004882812 743.893554688 294.123046875 773 259.004882812 773 c 0
 145.62890625 773 90.0185546875 606 67.0048828125 606 c 0
 50.2470703125 606 17.5869140625 634.756835938 17 648.912109375 c 0
 17.068359375 649.24609375 17.982421875 651.442382812 19.1240234375 653.49609375 c 0
 98.4248046875 759.739257812 181.494140625 886 326.004882812 886 c 0
 331.349609375 886 367.655273438 885.135742188 376.274414062 885.020507812 c 1
 441.993164062 862.557617188 488.004882812 786.697265625 488.004882812 729 c 0
 488.004882812 624.487304688 403.2109375 453.456054688 349.877929688 282.390625 c 1
 335.874023438 243.178710938 313.004882812 202.198242188 313.004882812 153 c 0
 313.004882812 88.4072265625 344.200195312 79 369.004882812 79 c 0
 492.723632812 79 546.291015625 278 578.004882812 278 c 0
 597.510742188 278 634.004882812 250.338867188 634.004882812 240 c 0
EndSplineSet
EndChar

StartChar: lslash
Encoding: 322 322 141
Width: 639
Flags: HW
LayerCount: 2
Fore
SplineSet
34.158203125 613.0546875 m 1
 19.87109375 606.524414062 1.3037109375 618.505859375 -7 638.880859375 c 1
 54.7275390625 683.44921875 120.166992188 712.30078125 186.609375 741.583984375 c 0
 265.865313904 777.459960938 l 1
 370.364888713 1213 l 1
 207.94140625 1213 l 0
 182.051757812 1213 179.94140625 1218.74316406 179.94140625 1225 c 0
 179.94140625 1243.09667969 198.044921875 1292.796875 208.05078125 1294.13085938 c 0
 482.049804688 1330.13085938 l 0
 488.993164062 1330.99902344 493.877929688 1331 500.94140625 1331 c 0
 529.75 1331 534.94140625 1325.80566406 534.94140625 1297 c 0
 534.94140625 1278.58300781 530.3359375 1250.734375 520.545898438 1215.49121094 c 0
 429.437066887 867.857421875 l 1
 668.290039062 969.966796875 l 1
 693.6875 969.29296875 704.251953125 963.999023438 711.28515625 947.375976562 c 0
 711.455078125 946.97265625 l 1
 711.706054688 946.459960938 l 0
 711.728515625 946.413085938 712.83984375 943.548828125 712.83984375 943.548828125 c 1
 668.549804688 909.598632812 616.893554688 885.619140625 565.278320312 863.137695312 c 1
 412.937085594 793.080078125 l 1
 288.255122336 257.921875 l 0
 280.273813072 224.12890625 274.603899803 194.873046875 274.603899803 168.981445312 c 0
 274.603899803 128.986328125 287.487724143 90 322.309567332 90 c 0
 359.041624727 90 398.986817003 130.6640625 444.496106249 208.708984375 c 1
 497.616210938 294.146484375 l 1
 562.381835938 249.577148438 l 1
 501.841796875 160.49609375 l 1
 444.740863947 71.2607421875 367.876825506 -20 262.830686517 -20 c 0
 169.461914062 -20 114.94140625 65.7724609375 114.94140625 166.250976562 c 0
 114.94140625 235.963867188 141.028320312 306.54296875 161.315429688 381.6484375 c 0
 249.031321168 706.331054688 l 1
 34.158203125 613.0546875 l 1
EndSplineSet
EndChar

StartChar: oslash
Encoding: 248 248 142
Width: 921
Flags: HW
LayerCount: 2
Fore
SplineSet
617.725271406 819.642578125 m 1
 612.746283143 823.279296875 l 2
 585.148677131 843.435546875 550.593446819 855 508.74252435 855 c 0
 352.319466267 855 214 547.331054688 214 327 c 0
 214 264.486328125 224.78515625 207.43359375 249.724609375 162.37890625 c 0
 255.805664062 151.391601562 l 1
 617.725271406 819.642578125 l 1
415.552241576 41 m 0
 575.422652718 41 708 339.7421875 708 563 c 0
 708 622.693359375 697.387695312 680.658203125 672.602539062 727.573242188 c 0
 666.590820312 738.953125 l 1
 660.3046875 727.72265625 l 0
 543.960743292 513.129882812 419.545198592 294.536132812 305.442601666 81.6298828125 c 0
 302.451640215 76.046875 l 1
 307.525475293 72.4423828125 l 0
 335.983276184 52.22265625 371.860727445 41 415.552241576 41 c 0
833.973632812 1182.9453125 m 1
 855.096679688 1182.31054688 871.20703125 1177.74414062 884.248046875 1170.31347656 c 1
 833.03125 1064.56445312 776.430664062 957.75390625 715.872070312 848.596679688 c 0
 712.860351562 843.16796875 l 1
 717.793945312 839.44921875 l 0
 817.017578125 764.655273438 879 639.624023438 879 475.1953125 c 0
 879 212.18359375 673.515625 -20 434.737592428 -20 c 0
 379.808139303 -20 327.278967958 -5.796875 279.297851562 19.5478515625 c 0
 273.377929688 22.5751953125 l 1
 270.049804688 16.8193359375 l 0
 239.8203125 -35.4716796875 210.366210938 -87.4443359375 182.153320312 -138.719726562 c 0
 154.827148438 -187.71875 121.234375 -240.747070312 90.7099609375 -285.885742188 c 1
 78.2939453125 -288.333007812 66.1318359375 -289 53 -289 c 0
 42.7041015625 -289 l 1
 47.025390625 -236.65234375 70.3427734375 -186.43359375 100.651367188 -135.622070312 c 1
 214.938476562 64.146484375 l 1
 210.104492188 67.9462890625 l 0
 108.853515625 147.529296875 42 275.26953125 42 416.586914062 c 0
 42 682.194335938 243.048828125 922.009765625 481.333672892 922.009765625 c 0
 540.224154401 922.009765625 594.878457854 909.810546875 643.456054688 886.646484375 c 0
 649.455078125 883.884765625 l 1
 652.561523438 889.712890625 l 0
 697.078125 973.2578125 779.890625 1151.61523438 833.973632812 1182.9453125 c 1
EndSplineSet
EndChar

StartChar: oe
Encoding: 339 339 143
Width: 1513
Flags: HW
LayerCount: 2
Fore
SplineSet
1402.02441406 282.044921875 m 1
 1420.82910156 271.739257812 1452.26953125 251.278320312 1470.06640625 239.521484375 c 1
 1372.58105469 103.58984375 1230.921875 -21 1057.25330963 -21 c 0
 939.296472014 -21 836.079548995 38.0498046875 768.449692159 131.166015625 c 0
 756.231369896 147.989257812 l 1
 742.751770429 132.215820312 l 0
 663.356727533 39.2998046875 553.906536016 -20 430.924793109 -20 c 0
 225.723632812 -20 49 171.233398438 49 401 c 0
 49 658.895507812 249.87890625 892 499.444567118 892 c 0
 628.69132692 892 737.988548892 834.56640625 805.216259373 733.413085938 c 0
 817.066107823 715.5859375 l 1
 831.156623403 731.599609375 l 0
 918.003880807 830.299804688 1040.94233045 892 1178.85159211 892 c 0
 1308.98242188 892 1465 812.971679688 1465 641 c 0
 1465 401.517578125 1049.95791296 357.245117188 883.803161268 349.984375 c 0
 867.959749376 349.291992188 l 1
 867.959749376 333 l 0
 867.959749376 327.620117188 866.994790539 319.29296875 866.994790539 310 c 0
 866.994790539 197.899414062 950.974109465 75 1074.62449284 75 c 0
 1233.54296875 75 1322.29492188 182.255859375 1402.02441406 282.044921875 c 1
429.959834272 41 m 0
 585.249899875 41 704.179392909 341.162109375 704.179392909 563 c 0
 704.179392909 697.84375 659.544033744 831 528.397180519 831 c 0
 363.53256821 831 221 523.458007812 221 303 c 0
 221 158.170898438 280.423828125 41 429.959834272 41 c 0
905.737454912 422 m 0
 1018.78291181 422 1296 500.942382812 1296 680 c 0
 1296 764.529296875 1238.42675781 837 1168.23608283 837 c 0
 983.002469029 837 877.780586672 596.49609375 868.952608319 440.989257812 c 0
 867.997270208 424.158203125 l 1
 884.379442767 423.037109375 l 0
 884.528564023 423.026367188 898.699893703 422 905.737454912 422 c 0
EndSplineSet
EndChar

StartChar: germandbls
Encoding: 223 223 144
Width: 1075
Flags: HW
LayerCount: 2
Fore
SplineSet
-69 52 m 0
 -69 79.638671875 -52.908203125 103.173828125 -48.9697265625 104 c 0
 28.73046875 104.053710938 103.446289062 112.99609375 132.576171875 239.2265625 c 0
 253.47354508 785.34375 l 1
 303.877730851 1031.2421875 474.290700179 1254 714.85843331 1254 c 0
 901.372070312 1254 1020 1169.20703125 1020 1043 c 0
 1020 872.766601562 888.98828125 778.059570312 729.123588689 728.087890625 c 0
 717.501331532 724.353515625 l 1
 717.501331532 694.087890625 l 1
 731.691985262 692.06640625 l 0
 934.795898438 664.08984375 1047 526.395507812 1047 363.283203125 c 0
 1047 202.999023438 903.3984375 -17 686.388296961 -17 c 0
 576.151646293 -17 523.367228369 30.7294921875 523.367228369 82 c 0
 523.367228369 131.314453125 560.581756917 169 600.031334918 169 c 0
 639.338595669 169 634.465423741 149.844726562 634.444410455 106.649414062 c 0
 634.425307469 70.7265625 641.217374419 21 707.265951214 21 c 0
 779.086495466 21 855 158.056640625 855 361.340820312 c 0
 855 545.603515625 740.026618394 639.873046875 577.058083016 689.684570312 c 1
 579.605466303 699.809570312 588.599152479 714.79296875 592.185738247 718.728515625 c 1
 756.27561895 737.615234375 861 864.5078125 861 1033 c 0
 861 1138.50878906 783.270049571 1196 693.031360614 1196 c 0
 509.806018053 1196 460.061840475 992.655273438 427.516081896 841.75390625 c 0
 293.713986734 226.778320312 l 0
 290.783588562 213.397460938 288.56095605 201.2265625 288.56095605 189 c 0
 288.56095605 115.041992188 356.542755108 104.290039062 435.946229962 104.00390625 c 1
 437.620606754 99.9404296875 439.448762588 91.6884765625 439.448762588 76 c 0
 439.448762588 45.5205078125 430.878207569 34 425.417618798 34 c 0
 -62 34 l 0
 -65.3310546875 34 -69 34.1669921875 -69 52 c 0
EndSplineSet
EndChar

StartChar: onesuperior
Encoding: 185 185 145
Width: 537
Flags: HW
LayerCount: 2
Fore
SplineSet
222.555733302 707.134911882 m 1
 303.622641039 1071.43800549 l 0
 318.256663304 1139.7301094 230.82925526 1159.15035622 195.087122403 1166.98958374 c 1
 198.168836577 1181.71332924 l 1
 444.082295662 1213.97857033 l 1
 328.404819977 698.687817783 l 0
 326.492532074 690.08252222 324 680.793922373 324 670 c 0
 324 668.719428976 l 1
 324.191836428 667.45330855 l 0
 330.691775444 624.553711045 369.581124524 603.612581188 437.268654699 600.430229693 c 1
 435.297748942 589.792827381 432.34175435 574.76096629 428.123839203 554 c 1
 72.1232455276 554 l 1
 86.5323664077 600.109186816 l 1
 142.754920496 601.38785432 200.089888436 615.229182885 222.555733302 707.134911882 c 1
EndSplineSet
EndChar

StartChar: logicalnot
Encoding: 172 172 146
Width: 1256
Flags: HW
LayerCount: 2
Fore
SplineSet
138.150879682 876 m 1
 301 876 l 0
 546.000027848 876 791.16204278 877.00066411 1035 878 c 0
 1073.19483884 878 1114.69223428 874.651626672 1148.98398347 870.283146013 c 1
 1142.94099443 789.579652563 1127.21026381 706.796027895 1110.35414742 623.451896833 c 0
 1065.33012851 406.333974297 l 0
 1057.72354754 368.301069411 1045.12626903 327.380211726 1018.85164631 303.143729615 c 1
 985.175304461 304.823263916 961.036940457 317.546487351 927.063141335 326.798889041 c 1
 1017.94655252 759 l 1
 184 759 l 0
 145.868702621 759 108.141291239 762.244418833 88.0055390591 778.20692807 c 1
 98.879267174 813.909296026 119.353522289 842.019165021 138.150879682 876 c 1
EndSplineSet
EndChar

StartChar: mu
Encoding: 181 181 147
AltUni2: 0003bc.ffffffff.0
Width: 1443
Flags: HW
LayerCount: 2
Fore
SplineSet
1098.07662152 172.487553998 m 2
 1098.07662152 172.487553998 1100.20310626 93 1163 93 c 0
 1267.46133463 93 1349.73594676 251.640422812 1381.07971644 301.691085371 c 1
 1408.32752253 279.223596141 l 1
 1402.9748583 259.009972033 1377.97523897 231.117829223 1363.43178261 213.218190622 c 0
 1288.09467691 117.240781992 1207.0977191 14 1088 14 c 0
 1029.67941441 14 978.719699241 52.4429241731 969.622929357 110.055800106 c 0
 967.908069669 122.059817922 966 141.70725456 966 157 c 0
 966 248.160122331 1010.80338272 352.030254663 1033.03169152 440.943489874 c 0
 1042.89232232 481.372076142 1065 546.665311197 1065 576 c 0
 1065 580.502883846 1064.16944288 585.179556669 1064.00441916 586.138179154 c 2
 1064 587 l 1
 1064 673.763565021 l 1
 1005.05213708 610.099873071 l 2
 842.10164742 434.113344234 652.346971915 14 424 14 c 0
 383.538384959 14 334.827738337 34.6419476242 323.742368561 124.177626584 c 2
 302.30357897 297.337080974 l 1
 304.064941368 302.623881348 305.219694713 306.075691823 306.683868417 310.436082985 c 0
 350.897741424 442.107469127 401.352313456 576.493310532 442.19170197 710.060105972 c 0
 446.083698274 720.874875046 448 730.57877359 448 742 c 2
 448 744.032708406 l 1
 447.757812509 746.050937501 l 2
 443.684361273 779.996364463 422.808889012 813 379 813 c 0
 265.119684474 813 187.798983716 615.953433643 164.429656728 577.149195182 c 1
 152.772946617 585.425472952 139.893892242 599.294889199 135.170531855 606.286242059 c 1
 200.184526254 732.580120971 324.963049299 892 464 892 c 0
 537.559105431 892 593 852.169340187 593 759 c 0
 593 679.306258202 548.319382781 590.19387443 520.913271847 513.245947577 c 0
 511.955895563 487.269556353 423 289.825089771 423 185 c 0
 423 153.889704002 434.493795881 104 487 104 c 0
 563.886709044 104 631.284530689 180.309405083 665.868311259 216.814506796 c 0
 790.729218848 350.737899613 866.802660644 447.413479316 987.234605154 627.057796543 c 0
 1047.12680008 716.331068227 1123.51818822 865 1202 865 c 0
 1232.92110459 865 1256 829.52568889 1256 788 c 0
 1256 738.200920843 1179.58334218 460.860942995 1121.54273877 262.14565676 c 0
 1120.26588902 258.315107503 1113.23698714 234.836107118 1107.63728731 215.662008481 c 1
 1101.06123667 278.126236249 1099.13331439 296.943623127 1098.91686618 298.36885232 c 0
 1098.61302375 300.369539273 1085.9628476 287.723510805 1086.90391581 278.76558787 c 0
 1090.49916958 244.542769904 1098.02883645 172.941951684 1098.07662152 172.487553998 c 2
262.909878631 186.440133411 m 1
 256.19268522 123.614618561 l 2
 236.872274885 -57.088042803 203.815575805 -329 126 -329 c 0
 97.8469677622 -329 97 -325.208515558 97 -295 c 0
 97 -255.245800763 119.829768349 -190.954472275 136.801898404 -147.026606249 c 2
 262.909878631 186.440133411 l 1
291.952180253 323.974385293 m 2
 290.937580353 323.848768163 289.86953106 306.904699344 289.602998872 304.411839471 c 2
 288.858812698 297.451509958 l 1
 274.93815367 298.939882306 l 1
 287.527215214 416.68463439 l 1
 298.899138486 324.834484884 l 1
 291.952180253 323.974385293 l 2
EndSplineSet
EndChar

